<?xml version="1.0" standalone="no"?>
<!DOCTYPE svg PUBLIC "-//W3C//DTD SVG 1.1//EN" "http://www.w3.org/Graphics/SVG/1.1/DTD/svg11.dtd" >
<svg>
<metadata>
Created by FontForge 20090914 at Tue Jul 31 07:01:25 2012
 By www-data
Copyright (c) VNI 1994 - All rights reserved.
</metadata>
<defs>
<font id="VNT-ArabNormal" horiz-adv-x="24" >
  <font-face 
    font-family="VNI-Arab"
    font-weight="400"
    font-stretch="normal"
    units-per-em="1000"
    panose-1="0 0 0 0 0 0 0 0 0 0"
    ascent="800"
    descent="-200"
    x-height="521.998"
    cap-height="715.999"
    bbox="-484 -200.002 1562 1165"
    underline-thickness="20"
    underline-position="-140"
    unicode-range="U+0020-U+2122"
  />
<missing-glyph horiz-adv-x="900" 
d="M56 0v900h788v-900h-788zM788 56v788h-676v-788h676z" />
    <glyph glyph-name=".notdef" horiz-adv-x="900" 
d="M56 0v900h788v-900h-788zM788 56v788h-676v-788h676z" />
    <glyph glyph-name="space" unicode=" " horiz-adv-x="296" 
 />
    <glyph glyph-name="exclam" unicode="!" horiz-adv-x="278" 
d="M218 155h-124c-12 0 -19.833 1.5 -23.5 4.5s-6.16699 9.16699 -7.5 18.5v457c0 14 -13 26 -39 36c-11.333 4 -17.666 10 -18.999 18c0 10 7.16699 17 21.5 21s30.833 6 49.5 6h98c27.333 0 46.333 -2.66699 57 -8c11.333 -4 17 -10.333 17 -19
c0 -6 -9.66699 -13.333 -29 -22c-18.667 -7.33301 -28 -18 -28 -32v-404c0 -11.333 8.33301 -22 25 -32c15.333 -8 23.666 -16 24.999 -24c0 -13.333 -7.66699 -20 -23 -20zM60 52c0 15.333 6.5 28.833 19.5 40.5s28.833 17.5 47.5 17.5c18 0 33.667 -5.16699 47 -15.5
s20 -24.5 20 -42.5c0 -16.667 -6.5 -30.5 -19.5 -41.5s-28.833 -16.5 -47.5 -16.5c-19.333 0 -35.333 5.33301 -48 16s-19 24.667 -19 42z" />
    <glyph glyph-name="quotedbl" unicode="&#x22;" horiz-adv-x="278" 
d="M23 463l-15.999 156l-2 24c0 26.667 2.33301 44.667 7 54c7.33301 16.667 21.666 25 42.999 25c20 0 34 -8 42 -24c5.33301 -12.667 8 -31 8 -55l-2 -24l-16 -156c0 -12 -2.66699 -22 -8 -30c-4 -8 -12 -12 -24 -12c-10 0 -18 4.33301 -24 13c-4 8 -6.66699 17.667 -8 29
zM191.001 463l-15.999 156l-2 24c0 26.667 2.33301 44.667 7 54c7.33301 16.667 21.666 25 42.999 25c20 0 34 -8 42 -24c5.33301 -12.667 8 -31 8 -55l-2 -24l-16 -156c0 -12 -2.66699 -22 -8 -30c-4 -8 -12 -12 -24 -12c-10 0 -18 4.33301 -24 13
c-4 8 -6.66699 17.667 -8 29z" />
    <glyph glyph-name="numbersign" unicode="#" horiz-adv-x="592" 
d="M107 0l25 184h-88v96h101l16 120h-88v96h101l26 184h94l-25 -184h97l25 184h94l-25 -184h88v-96h-101l-16 -120h88v-96h-101l-26 -184h-94l25 184h-97l-25 -184h-94zM353 400h-98l-16 -120h98z" />
    <glyph glyph-name="dollar" unicode="$" horiz-adv-x="592" 
d="M249 -70l0.00292969 63.998c-68 0 -121 14.667 -159 44c-42 32 -63 82.667 -63 152c0 50.667 15 93.834 45 129.501s69.333 53.5 118 53.5c33.333 0 63.666 -9 90.999 -27l70 -60c4 0 8 2 12 6c0 -11.333 -1 -21.333 -3 -30s-5.66699 -17 -11 -25
c-8 -14 -23.333 -21 -46 -21c-10 0 -18.667 1.33301 -26 4l-24 11l-17 8c-8 4 -17.333 6 -28 6c-27.333 0 -41 -17 -41 -51c0 -20 12.333 -35.333 37 -46c26.667 -9.33301 58.334 -14 95.001 -14c42 0 74.667 9.66699 98 29c26.667 23.333 40 58.333 40 105
c0 57.333 -33.333 107 -100 149l-188 93c-67.333 36 -101 78.333 -101 127c0 26 11 45.667 33 59s58.333 20 109 20h59v53c0 4.66699 1.5 8.5 4.5 11.5s7.83301 4.83301 14.5 5.5l30 -2l29 2c3.33301 0 7.66602 -1.66699 12.999 -5s8.33301 -7.33301 9 -12v-53h67
c16 0 31 -0.5 45 -1.5s28.667 -4.16699 44 -9.5c22 -6 33 -18.667 33 -38s-20 -40.666 -60 -63.999c-19.333 -10 -29 -21.333 -29 -34c0 -5.33301 4 -11.666 12 -18.999c-6 -4 -15 -6 -27 -6c-10 0 -19.333 3.33301 -28 10c-7.33301 7.33301 -11 17.333 -11 30
c0 10.667 1.66699 19.334 5 26.001c0 4 1.33301 8.66699 4 14l6 13c0 10 -2.83301 17 -8.5 21s-13.5 6 -23.5 6h-181c-10.667 0 -19.834 -2.33301 -27.501 -7s-11.5 -11.334 -11.5 -20.001c0 -6.66699 1.16699 -12.667 3.5 -18s7.16602 -9.33301 14.499 -12l212 -107
c56 -28 99.5 -65.833 130.5 -113.5s46.5 -98.5 46.5 -152.5c0 -76 -26.333 -137.333 -79 -184c-43.333 -37.333 -89 -56 -137 -56v-64c0 -4.66699 -2.33301 -8.33398 -7 -11.001l-15 -6l-29 2l-30 -2c-12.667 0 -19 5.66699 -19 17z" />
    <glyph glyph-name="percent" unicode="%" horiz-adv-x="778" 
d="M22 481c0 56.667 11.666 104.332 34.999 142.999c26 41.333 62.667 62 110 62c24 0 44.667 -3.16699 62 -9.5s26 -15.166 26 -26.499c0 -6 -2.66699 -14 -8 -24c17.333 -6 31 -17.333 41 -34c15.333 -25.333 23 -62.333 23 -111c0 -51.333 -6.66699 -90.333 -20 -117
c-17.333 -38 -45.666 -57 -84.999 -57l-19 3l-20 3l-20 -3l-21 -3c-39.333 0 -68 17.667 -86 53c-12 26 -18 66.333 -18 121zM91.999 506.998c0 -34.667 3.33301 -59.668 10 -75.001c11.333 -24.667 31 -37 59 -37c28.667 0 49.667 10.667 63 32
c11.333 17.333 17 39.333 17 66v15c0 27.333 -1.16699 46.833 -3.5 58.5s-8.83301 19.834 -19.5 24.501c-6.66699 -4 -14 -6.66699 -22 -8c-11.333 0 -17 6.66699 -17 20c0 9.33301 5.33301 16 16 20l2 7c0 6 -3.66699 10 -11 12l-25 4c-22 0 -39 -14 -51 -42
s-18 -60.333 -18 -97zM466.999 167.997c0 56.667 11.667 104.333 35 143c26 41.333 62.667 62 110 62c22 0 42.667 -3 62 -9c17.333 -7.33301 26 -16.333 26 -27c0 -8 -2.66699 -16 -8 -24c17.333 -6 31 -17.333 41 -34c15.333 -25.333 23 -62.333 23 -111
c0 -51.333 -6.66699 -90.333 -20 -117c-17.333 -38 -45.666 -57 -84.999 -57l-19 3l-20 3l-20 -3l-21 -3c-40.667 0 -69.334 17.667 -86.001 53c-12 26 -18 66.333 -18 121zM536.999 193.996c0 -34.667 3.33301 -59.668 10 -75.001c11.333 -24.667 31 -37 59 -37
c28.667 0 49.667 10.667 63 32c11.333 17.333 17 39.333 17 66v15c0 27.333 -1.16699 46.833 -3.5 58.5s-8.83301 19.834 -19.5 24.501c-4.66699 -3.33301 -12 -6 -22 -8c-11.333 0 -17 6.66699 -17 20c0 9.33301 5.33301 16 16 20l2 7c0 6 -3.66699 10 -11 12l-25 4
c-22 0 -39 -14 -51 -42s-18 -60.333 -18 -97zM175.999 35.9951l389.999 642l10 13c4.66699 4.66699 11 7 19 7c6.66699 0 12.334 -2 17.001 -6s7.66699 -9.33301 9 -16c0 -9.33301 -3.66699 -20 -11 -32l-389 -643c-8.66699 -12.667 -18.667 -19 -30 -19
c-14 0 -22.333 6.33301 -25 19c0 12 3.33301 23.667 10 35z" />
    <glyph glyph-name="ampersand" unicode="&#x26;" horiz-adv-x="741" 
d="M47 199c0 74 22.999 133.997 68.999 179.997c40 38 96.667 65 170 81c21.333 6 32.333 11.333 33 16l-7 4l-24 8c-23.333 4.66699 -42.333 8.83398 -57 12.501s-26 6.83398 -34 9.50098c-37.333 10 -66 25 -86 45c-14 15.333 -21 33.333 -21 54
c0 39.333 22.833 68 68.5 86s109.167 27 190.5 27c74.667 0 131.334 -4.33301 170.001 -13c63.333 -14 95 -39 95 -75c0 -22 -11 -38.667 -33 -50c-16.667 -7.33301 -38 -11 -64 -11l-36 3l-32 2c-6.66699 0 -11.667 -1.66699 -15 -5l-4 -7l2 -7c-20 5.33301 -30 19 -30 41
c0 12.667 9.66699 23 29 31c18.667 6.66699 29 12 31 16c0 9.33301 -11.667 16 -35 20l-66 3c-36.667 0 -65 -3 -85 -9c-30.667 -10 -46 -28.333 -46 -55c0 -23.333 16.667 -43.666 50 -60.999l58 -22l47 -17c22 -10 33 -20.667 33 -32c-61.333 -28 -115 -60.333 -161 -97
c-50.667 -40.667 -76 -87 -76 -139c0 -30.667 8.66699 -54.667 26 -72s40.666 -26 69.999 -26l53 3l54 3l43 -3l52 -3c27.333 0 50 6 68 18c21.333 15.333 32 38.666 32 69.999c0 20.667 -3.66699 36 -11 46c-9.33301 13.333 -23.666 20 -42.999 20c-24 0 -36 -11 -36 -33
c0 -4 2.66699 -8.66699 8 -14l16 -9c-12.667 -18.667 -31.667 -28 -57 -28c-20.667 0 -37 4.83301 -49 14.5s-18 23.834 -18 42.501c0 36 36.667 65 110 87s110 41 110 57c0 6.66699 -4 13 -12 19c-8 4 -16.333 6 -25 6c11.333 11.333 22.666 20.333 33.999 27
c3.33301 2 9.16602 4.66699 17.499 8s16.166 5 23.499 5c17.333 0 32.333 -5.33301 45 -16c11.333 -11.333 17 -26 17 -44c0 -17.333 -8.5 -34.333 -25.5 -51s-47.5 -31 -91.5 -43c18.667 -15.333 34.334 -36 47.001 -62l12 -38l4 -40
c0 -55.333 -17.167 -100.5 -51.5 -135.5s-78.166 -52.5 -131.499 -52.5l-31 2l-34 5l-32 4l-31 1l-30 -2l-39 -5l-30 -4l-24 -1c-53.333 0 -95.666 19.333 -126.999 58s-47 87.667 -47 147z" />
    <glyph glyph-name="quotesingle" unicode="'" horiz-adv-x="184" 
d="M60 463l-15.999 156.001l-2 24c0 26.667 2.33301 44.667 7 54c7.33301 16.667 21.666 25 42.999 25c20 0 34 -8 42 -24c5.33301 -12.667 8 -31 8 -55l-2 -24l-16 -156c0 -12 -2.66699 -22 -8 -30c-4 -8 -12 -12 -24 -12c-10 0 -17.667 3.66699 -23 11
c-4 7.33301 -7 17.666 -9 30.999z" />
    <glyph glyph-name="parenleft" unicode="(" horiz-adv-x="444" 
d="M357 612l-49.998 0.00292969c-4.66699 0 -9.33398 -4.66699 -14.001 -14l-13 -28c-22 -50 -41 -117.333 -57 -202c-7.33301 -40 -13 -78.5 -17 -115.5s-6 -70.833 -6 -101.5s1.66699 -57.667 5 -81s9.33301 -46 18 -68c20 -52.667 54.667 -88.334 104 -107.001
c33.333 -12 52.833 -20 58.5 -24s9.5 -12.667 11.5 -26c0 -10.667 -4.33301 -19.167 -13 -25.5s-19.334 -9.5 -32.001 -9.5l-23 2l-30 2l-28 -2l-25 -2c-52.667 0 -95 38.667 -127 116c-23.333 60.667 -35 121.667 -35 183c0 42 5 89.167 15 141.5
s24.167 107.166 42.5 164.499s38.5 111.666 60.5 162.999c12 27.333 23.167 50.833 33.5 70.5s22.833 41.167 37.5 64.5l12 7l19 2l18 -2l18 -2l22 2l24 2c18 0 27 -3.66699 27 -11c0 -8 -4.83301 -24 -14.5 -48s-17.5 -39.333 -23.5 -46c-2 -2 -8 -3.66699 -18 -5z" />
    <glyph glyph-name="parenright" unicode=")" horiz-adv-x="444" 
d="M137 612l-50 -0.000976562c-8.66699 0 -14.834 1.83301 -18.501 5.5s-10.834 18.5 -21.501 44.5s-16 42.333 -16 49c0 4 2.66699 7 8 9l19 2l20 -1l26 -3l18 2l18 2c13.333 0 23.666 -3 30.999 -9c48 -78 91.5 -177.167 130.5 -297.5s58.5 -222.5 58.5 -306.5
c0 -64.667 -11.333 -125.667 -34 -183c-31.333 -77.333 -74 -116 -128 -116l-23 2l-30 2l-28 -2l-25 -2c-9.33301 0 -19.666 3 -30.999 9c-9.33301 6 -14 14.667 -14 26c0 10.667 3 18.667 9 24c4 2.66699 24.333 11.334 61 26.001c46 16 80.333 51.667 103 107
c16 41.333 24 91 24 149c0 65.333 -8 139 -24 221c-7.33301 38.667 -15.666 75 -24.999 109s-19.666 63.667 -30.999 89c-10 26 -19 40 -27 42z" />
    <glyph glyph-name="asterisk" unicode="*" horiz-adv-x="315" 
d="M158 722l25 -18.002c10 -9.33301 15 -18 15 -26c0 -9.33301 -3.33301 -20.666 -10 -33.999l-15 -33l-4 -40c10 4 17.333 9.33301 22 16c7.33301 5.33301 14.333 12.333 21 21l15 20c6.66699 7.33301 12 12.333 16 15c9.33301 4.66699 18 7 26 7
c5.33301 0 11.666 -1.66699 18.999 -5l19 -10v-25c0 -6 -2 -12.667 -6 -20c-8 -14 -20.667 -21 -38 -21l-42 1l-18 -7c-8 -2 -15.333 -5.66699 -22 -11c12.667 -6.66699 25.334 -12 38.001 -16s25.667 -6 39 -6c18 0 31 -7.66699 39 -23l4 -19l4 -29l-42 -11
c-14 0 -29.333 11.333 -46 34c-3.33301 7.33301 -9.33301 15.666 -18 24.999c-2.66699 2.66699 -6.66699 6 -12 10l-18 13v-17l3 -19l5 -14l6 -14c10 -21.333 15 -35.333 15 -42c0 -6 -5 -14.667 -15 -26l-25 -19l-25 19c-10 9.33301 -15 18 -15 26
c0 6.66699 4 18.667 12 36l13 30l3 19l1 21c-13.333 -7.33301 -23.666 -15.333 -30.999 -24c-2 -2 -4.5 -5.16699 -7.5 -9.5s-6.16699 -9.16602 -9.5 -14.499c-14.667 -22.667 -30 -34 -46 -34c-6 0 -12.667 1.33301 -20 4l-22 7l8 48c8 15.333 21 23 39 23
c26 0 51.667 7.33301 77 22l-15 8l-25 10l-42 -1c-16 0 -28.667 7 -38 21l-6 23l-1 22l27 12l12 3c9.33301 0 17.333 -1.66699 24 -5l17 -16l16 -22l21 -20l10 -9l12 -7v17c0 4.66699 -0.666992 8.33398 -2 11.001l-2 12l-25 67c0 6 5 14.667 15 26
c5.33301 5.33301 13.666 11.333 24.999 18z" />
    <glyph glyph-name="plus" unicode="+" horiz-adv-x="600" 
d="M250 303v203h100v-203h202v-100h-202v-203h-100v203h-202v100h202z" />
    <glyph glyph-name="comma" unicode="," horiz-adv-x="296" 
d="M157 116c18.667 0 33.6689 -5.66602 45.002 -16.999c10.667 -12.667 16 -29.334 16 -50.001c0 -50 -22.333 -78.333 -67 -85l-46 -7c-12.667 -2 -21.667 -7.66699 -27 -17c2 11.333 7 21 15 29l10 6l19 8c15.333 6.66699 25.166 12 29.499 16s8.16602 10.667 11.499 20
l-17 -3c-13.333 0 -24 3.83301 -32 11.5s-12 19.5 -12 35.5s4.83301 28.833 14.5 38.5s23.167 14.5 40.5 14.5z" />
    <glyph glyph-name="hyphen" unicode="-" horiz-adv-x="389" 
d="M52 304h285c7.33301 0 14 -3.33301 20 -10c6 -5.33301 9 -13 9 -23c0 -9.33301 -2.5 -16.5 -7.5 -21.5s-12.167 -8.16699 -21.5 -9.5h-285c-6.66699 0 -13 2.5 -19 7.5s-9.33301 12.833 -10 23.5c0 7.33301 2.83301 14.5 8.5 21.5s12.5 10.833 20.5 11.5z" />
    <glyph glyph-name="period" unicode="." horiz-adv-x="296" 
d="M78 55c0 16.667 6.5 31 19.5 43s29.833 18 50.5 18c22 0 39.167 -5.5 51.5 -16.5s18.5 -25.833 18.5 -44.5s-6.5 -33.5 -19.5 -44.5s-29.833 -16.5 -50.5 -16.5c-20 0 -36.667 5.66699 -50 17c-13.333 10 -20 24.667 -20 44z" />
    <glyph glyph-name="slash" unicode="/" horiz-adv-x="500" 
d="M10 57l406 647c8 12 21 18 39 18c10 0 19.5 -3.66699 28.5 -11s13.5 -16.666 13.5 -27.999c0 -8.66699 -2.66699 -16.667 -8 -24l-406 -647c-8 -12 -20.667 -18 -38 -18c-10 0 -19.5 3.66699 -28.5 11s-13.5 16.666 -13.5 27.999c0 8.66699 2.33301 16.667 7 24z" />
    <glyph glyph-name="zero" unicode="0" horiz-adv-x="592" 
d="M44 293c0 128 17 223.001 51 285.001c40 72 107.333 108 202 108c49.333 0 87.666 -8.33301 114.999 -25c22.667 -14.667 34 -29.667 34 -45c0 -12 -2.33301 -23.667 -7 -35c32.667 -8.66699 58.334 -31.334 77.001 -68.001c21.333 -42.667 32 -103 32 -181
c0 -106 -13.333 -186.667 -40 -242c-30 -64 -79 -96 -147 -96l-37 3l-36 3l-36 -3l-36 -3c-54 0 -96.167 26.167 -126.5 78.5s-45.5 125.833 -45.5 220.5zM460 374.001c0 48 -4.66602 84.498 -13.999 109.498s-20.333 37.5 -33 37.5c-5.33301 0 -12.833 -2 -22.5 -6
s-17.834 -6 -24.501 -6c-8 0 -15.667 2.33301 -23 7c-5.33301 4.66699 -9 12.334 -11 23.001c0 7.33301 7 18.666 21 33.999c5.33301 5.33301 9 13.333 11 24c0 13.333 -7.16699 23.833 -21.5 31.5s-31.5 11.5 -51.5 11.5c-47.333 0 -84 -20.333 -110 -61
c-11.333 -19.333 -20.333 -47.166 -27 -83.499s-10 -79.166 -10 -128.499c0 -68 9 -120 27 -156c24 -47.333 66.333 -71 127 -71c59.333 0 103 25 131 75c20.667 39.333 31 92.333 31 159z" />
    <glyph glyph-name="one" unicode="1" horiz-adv-x="407" 
d="M291 660l-0.000976562 -541.999c0 -20 15 -41 45 -63c14.667 -10.667 22 -20.667 22 -30c0 -4.66699 -6.5 -11 -19.5 -19s-27.5 -12 -43.5 -12l-31 3l-35 3l-37 -3l-33 -3c-14 0 -28.667 3.33301 -44 10c-10.667 6 -17 13 -19 21c0 8 11.167 20.5 33.5 37.5
s33.5 35.5 33.5 55.5v434l-19 -11l-26 -16c-31.333 -20.667 -54.666 -31 -69.999 -31c-12.667 0 -23.667 2.66699 -33 8s-14.333 13 -15 23c0 10 7.66699 17.333 23 22l45 13l34 12l29 15l45 27l56 44c20.667 17.333 34.667 26.666 42 27.999c11.333 0 17 -8.66699 17 -26z
" />
    <glyph glyph-name="two" unicode="2" horiz-adv-x="592" 
d="M51 509c0 58.667 19.166 102.832 57.499 132.499s97.5 44.5 177.5 44.5c70 0 126 -13 168 -39c48 -30 72 -75 72 -135c0 -49.333 -20 -94.666 -60 -135.999c-26 -24.667 -69.167 -54.5 -129.5 -89.5s-104.5 -66.167 -132.5 -93.5l-15 -18l-5 -13
c0 -14.667 12.667 -22 38 -22l42 3l45 3l45 -3l46 -3c16 0 28 4 36 12c5.33301 7.33301 8 24.333 8 51c0 10.667 4.5 20.167 13.5 28.5s18.5 12.5 28.5 12.5c12.667 0 22.334 -5.33301 29.001 -16c-4.66699 -2 -8.66699 -6 -12 -12l-5 -24l42 -79
c13.333 -26.667 20 -48 20 -64s-12.667 -29.167 -38 -39.5s-50 -15.5 -74 -15.5l-78 3l-81 3l-76 -3l-73 -3c-32.667 0 -58.834 3.5 -78.501 10.5s-29.5 18.5 -29.5 34.5c0 38 30.333 85 91 141l171 147c61.333 59.333 92 112.666 92 159.999
c0 46.667 -11.833 82.834 -35.5 108.501s-56.5 38.5 -98.5 38.5c-31.333 0 -56.666 -6.33301 -75.999 -19c-24.667 -14.667 -37 -37.334 -37 -68.001c0 -16.667 5.83301 -31.667 17.5 -45s27.5 -20 47.5 -20c11.333 0 24 6 38 18c28 26 45 39 51 39
c12 0 21.333 -5.33301 28 -16c-8.66699 0 -13 -5.66699 -13 -17l3 -19l2 -24c0 -26.667 -11 -50 -33 -70c-22 -18 -50 -27 -84 -27c-42 0 -77 13 -105 39c-13.333 13.333 -23.333 28.333 -30 45s-10 36.334 -10 59.001z" />
    <glyph glyph-name="three" unicode="3" horiz-adv-x="592" 
d="M567 192c0 -47.333 -15.0049 -90.665 -45.0049 -129.998c-36 -45.333 -86 -68 -150 -68l-30 1l-58 5l-54 -3l-50 -3c-39.333 0 -73.666 10.667 -102.999 32c-34.667 24.667 -52 57.667 -52 99c0 30 8.16699 54.667 24.5 74s38.166 29 65.499 29
c22.667 0 39.334 -5.33301 50.001 -16c-8 -6 -12 -17.667 -12 -35c0 -11.333 5.66699 -20.333 17 -27c5.33301 -2.66699 11.333 -5 18 -7s13.334 -3 20.001 -3l65 3l28 -1l41 -2c18 0 34.667 7.66699 50 23s23 37 23 65c0 13.333 -0.333008 23.166 -1 29.499
s-3.16699 15.666 -7.5 27.999s-13.166 25.5 -26.499 39.5c-22 24 -52.333 41 -91 51l-65 12c-47.333 7.33301 -71 17.666 -71 30.999c0 10 37 28.667 111 56l88 31c39.333 17.333 59 38.333 59 63c0 23.333 -12.333 42 -37 56c-20 10 -44 15 -72 15
c-9.33301 0 -19.666 -0.166992 -30.999 -0.5s-25 -3 -41 -8s-24 -12.5 -24 -22.5c0 -4.66699 10.667 -12 32 -22c22 -7.33301 33 -18.333 33 -33c0 -11.333 -2.66699 -20 -8 -26l-10 11l-14 5l-39 -6l-34 -3c-17.333 0 -35.666 5 -54.999 15c-22 13.333 -33 30.333 -33 51
c0 29.333 18.667 50.833 56 64.5s89.333 20.5 156 20.5c70.667 0 128 -8 172 -24c51.333 -20 77 -51.333 77 -94c0 -36 -22 -65.667 -66 -89c-23.333 -11.333 -61 -21.666 -113 -30.999l-68 -10c-17.333 -2 -27 -5 -29 -9c0 -3.33301 11.333 -8 34 -14l63 -13
c64 -14 113 -36.667 147 -68c40 -36 60 -83.333 60 -142z" />
    <glyph glyph-name="four" unicode="4" horiz-adv-x="592" 
d="M303 283l-0.000976562 311.999c0 18 -6.33301 27 -19 27c-7.33301 0 -13 -2.16699 -17 -6.5s-7 -11.166 -9 -20.499c-14 -75.333 -31 -136.666 -51 -183.999l-51 -125c0 -5.33301 3 -10.666 9 -15.999c6 -4 14.333 -6 25 -6h33l45 4l63 4l68 -2l51 -3
c16 0 27.333 3.33301 34 10s10 16 10 28c0 6.66699 -3.33301 17.667 -10 33l42 -14c20.667 -6 34.667 -14.667 42 -26c9.33301 -10.667 14 -27.334 14 -50.001c0 -31.333 -8.5 -56.5 -25.5 -75.5s-39.5 -28.5 -67.5 -28.5l-40 3l-76 7l-121 -4l-114 -4
c-32 0 -57.333 3.66699 -76 11c-34.667 12 -52 32 -52 60c0 10.667 16.667 39.667 50 87l96 138c32 48 48 83 48 105c0 17.333 -6.33301 37.666 -19 60.999c-5.33301 10 -8.66602 20 -9.99902 30c0 16 9 27 27 33s54 9 108 9h66h24.5c6.33301 0 20.166 -1.33301 41.499 -4
c26 0 39 -6.66699 39 -20l-6 -7l-19 -17c-15.333 -12 -23.666 -23 -24.999 -33v-318l-24 2l-41 3zM302.999 104.999l0.000976562 31.0029l31 3l35 1l16 -1c8 0 16.333 -1.33301 25 -4l21 -2v-31c0 -6.66699 11.5 -17.334 34.5 -32.001s35.5 -27.334 37.5 -38.001
c0 -8.66699 -10.333 -17.167 -31 -25.5s-37.334 -12.5 -50.001 -12.5l-26 3l-26 3l-29 -3l-30 -3c-13.333 0 -30 3.66699 -50 11s-31 16.333 -33 27c0 8 17 22 51 42c16 9.33301 24 19.666 24 30.999z" />
    <glyph glyph-name="five" unicode="5" horiz-adv-x="592" 
d="M33 128c0 28.667 7.66699 54 23 76s36 33 62 33c16.667 0 31.5 -3 44.5 -9s20.833 -16.333 23.5 -31c-7.33301 0 -14.333 -2 -21 -6s-10 -13 -10 -27c0 -9.33301 4.33301 -15.333 13 -18c9.33301 -4 19.333 -6 30 -6l28 4l34 3l20 -1h10.5c3 0 9.5 -1.33301 19.5 -4
l24 -2c20.667 0 39.667 9.66699 57 29c9.33301 10 16.333 20.5 21 31.5s7 24.167 7 39.5c0 54.667 -17 98 -51 130s-76 48 -126 48l-29 -2l-32 -5c0 -25.333 -5 -47 -15 -65c-13.333 -20.667 -32.666 -31 -57.999 -31c-14 0 -25.667 5 -35 15c-8 10 -12 22.667 -12 38
c0 18 7.33301 34 22 48c10 9.33301 28.333 19 55 29c0 28 -7.66699 56 -23 84l-51 98c0 30 20.333 45 61 45l62 -6c28 -4 52.667 -6 74 -6l105 8l60 4c18.667 0 33 -1.66699 43 -5c8.66699 -4.66699 13 -14 13 -28c0 -22.667 -12.333 -44.167 -37 -64.5s-56 -30.5 -94 -30.5
h-12l-16 2c-6.66699 0 -22.667 3.33301 -48 10s-46 10 -62 10c-9.33301 0 -17.333 -1.66699 -24 -5c-7.33301 -2 -11 -11.667 -11 -29l2 -35l4 -37l54 6l29 2h12h8c3.33301 1.33301 5.66602 2 6.99902 2c80 0 144.167 -23.167 192.5 -69.5s72.5 -111.5 72.5 -195.5
c0 -58 -17.167 -107.667 -51.5 -149s-72.5 -62 -114.5 -62l-64 3l-57 3l-50 -3l-48 -3c-36 0 -67.667 11.333 -95 34c-30.667 26.667 -46 60 -46 100zM101 377c0 -9.33301 5 -14.667 15 -16c16.667 0 25 8.33301 25 25l-3 18c-6.66699 0 -15 -3 -25 -9
c-6 -2.66699 -10 -8.66699 -12 -18z" />
    <glyph glyph-name="six" unicode="6" horiz-adv-x="592" 
d="M40 308c0 58 6.00098 112.168 18.001 162.501s32.667 93.5 62 129.5c22 28 46.167 47 72.5 57s62.166 15 107.499 15c71.333 0 122.5 -2 153.5 -6s47.167 -11 48.5 -21c0 -21.333 -10 -43.333 -30 -66s-44 -34 -72 -34c-19.333 0 -36.666 5.33301 -51.999 16l-13 11
l-30 29l-20 15c-4 1.33301 -8 2.33301 -12 3s-10.667 1 -20 1c-22 0 -42.667 -10 -62 -30c-13.333 -15.333 -25.333 -36 -36 -62c-4.66699 -11.333 -9.83398 -29.833 -15.501 -55.5s-8.5 -46.167 -8.5 -61.5l1 -33c14.667 28.667 36.334 52.667 65.001 72
c34 22 74.667 33 122 33c64.667 0 119.667 -21.833 165 -65.5s68 -102.834 68 -177.501c0 -62 -15.333 -116.667 -46 -164c-36.667 -54.667 -84.334 -82 -143.001 -82l-30 4l-31 2l-47 -3l-22 -3c-64 0 -113.667 33.667 -149 101c-29.333 57.333 -44 128.333 -44 213z
M162.001 275.001c0 -42.667 12.667 -75.834 38 -99.501s59.333 -35.5 102 -35.5c42 0 74.833 13.667 98.5 41s35.5 62.333 35.5 105c0 39.333 -12 72.333 -36 99s-56 40 -96 40c-43.333 0 -77.833 -14.167 -103.5 -42.5s-38.5 -64.166 -38.5 -107.499z" />
    <glyph glyph-name="seven" unicode="7" horiz-adv-x="536" 
d="M134 37c0 5.33301 6.33594 14.001 19.0029 26.001l36 29c2.66699 1.33301 9.33398 28 20.001 80c6 31.333 14 62.666 24 93.999c15.333 49.333 32.666 95 51.999 137c5.33301 12 12.5 27.167 21.5 45.5s17.5 34.166 25.5 47.499c15.333 29.333 34.666 62 57.999 98l-2 2
c-34 -30.667 -74.333 -46 -121 -46c-40.667 0 -83.334 11.667 -128.001 35l-2 -4c5.33301 -6.66699 10.333 -13.667 15 -21c2.66699 -4.66699 7.83398 -14.334 15.501 -29.001s11.5 -28.667 11.5 -42c0 -24 -5.83301 -43 -17.5 -57s-25.167 -21 -40.5 -21
c-9.33301 0 -18.666 4 -27.999 12c-7.33301 8.66699 -11 18.667 -11 30l5 -1l9 -1c8 0 12.333 5.33301 13 16c0 8.66699 -3.66699 19 -11 31l-13 17l-17 17l-44 43c-18 21.333 -27 40 -27 56c0 13.333 8.66699 22.5 26 27.5s38.333 7.5 63 7.5l53 -1l120 -5l71 6
c37.333 4 67 6 89 6c11.333 0 21.666 -1 30.999 -3s18.666 -5.66699 27.999 -11c18 -8 27 -18 27 -30c0 -6 -14.333 -24.333 -43 -55c-15.333 -16.667 -30.666 -37 -45.999 -61c-20.667 -35.333 -36.834 -87.166 -48.501 -155.499s-17.5 -126.833 -17.5 -175.5
c0 -28.667 1 -49.5 3 -62.5s7.33301 -24.833 16 -35.5l32 -29c9.33301 -8 14.666 -16 15.999 -24c0 -7.33301 -7 -15.666 -21 -24.999l-22 -8l-26 -3l-35 2l-36 4l-34 -3l-35 -3c-16.667 0 -33.167 4.5 -49.5 13.5s-24.5 18.833 -24.5 29.5z" />
    <glyph glyph-name="eight" unicode="8" horiz-adv-x="592" 
d="M296 440c24 0 47 7.00098 69 21.001c29.333 18 44 45.333 44 82c0 26 -11.5 45.333 -34.5 58s-50.167 19 -81.5 19s-56.833 -6.33301 -76.5 -19s-29.5 -32.334 -29.5 -59.001c0 -29.333 14.333 -55 43 -77c22.667 -16.667 44.667 -25 66 -25zM295 0.000976562
l-50 -3.00098l-47 -3c-45.333 0 -82.666 17 -111.999 51c-27.333 34.667 -41 76 -41 124c0 58 14.833 109.667 44.5 155s70.167 78.333 121.5 99c-18.667 6.66699 -35 13.667 -49 21s-27.667 17 -41 29c-29.333 26 -44 53 -44 81c0 39.333 20 68.833 60 88.5
s92 29.5 156 29.5c79.333 0 138 -11.667 176 -35c33.333 -20 50 -46.667 50 -80c0 -30 -15.333 -58.333 -46 -85c-21.333 -17.333 -51.333 -33.666 -90 -48.999c47.333 -21.333 86.5 -55.5 117.5 -102.5s46.5 -97.5 46.5 -151.5c0 -48 -12.833 -89.167 -38.5 -123.5
s-64.834 -51.5 -117.501 -51.5l-32 1zM298 388c-46.667 0 -83.834 -13.6699 -111.501 -41.0029s-41.5 -60.333 -41.5 -99c0 -23.333 7 -44.666 21 -63.999c14 -17.333 31 -26 51 -26l25 1l53 5l34 -3l34 -3c24.667 0 45.334 8.66699 62.001 26
c6.66699 8.66699 12 18.334 16 29.001s6 22.334 6 35.001c0 36 -15 68.333 -45 97s-64.667 43 -104 43z" />
    <glyph glyph-name="nine" unicode="9" horiz-adv-x="592" 
d="M36 494c0 60 19.9971 105.999 59.9971 137.999s104.333 48 193 48c102 0 174.333 -32.333 217 -97c33.333 -51.333 50 -129 50 -233c0 -101.333 -15.333 -182.666 -46 -243.999c-37.333 -74.667 -94.666 -112 -171.999 -112l-25 3l-37 3l-56 -3l-48 -3
c-32 0 -60.5 12.833 -85.5 38.5s-37.5 56.167 -37.5 91.5c0 30.667 9.66699 56 29 76c16.667 16.667 32.334 25 47.001 25l21 -3l24 1l-16 -20c-2 -4 -3.66699 -11 -5 -21c0 -10.667 4 -21 12 -31c8.66699 -8.66699 20.667 -13 36 -13l35 2l33 2l34 -3l34 -3
c36.667 0 68.334 22.667 95.001 68s40 97 40 155l-2 48c-22 -32 -51 -56 -87 -72c-32.667 -13.333 -70 -20 -112 -20c-62 0 -114 13.667 -156 41c-50 32 -75 78 -75 138zM443.997 508.999c0 36 -14.167 64.833 -42.5 86.5s-61.833 32.5 -100.5 32.5
c-41.333 0 -73.5 -10.833 -96.5 -32.5s-34.5 -53.167 -34.5 -94.5c0 -34.667 13 -63.667 39 -87s56 -35 90 -35c42 0 76.667 11.5 104 34.5s41 54.833 41 95.5z" />
    <glyph glyph-name="colon" unicode=":" horiz-adv-x="296" 
d="M78 55c0 16.667 6.5 31 19.5 43s29.833 18 50.5 18c22 0 39.167 -5.5 51.5 -16.5s18.5 -25.833 18.5 -44.5s-6.5 -33.5 -19.5 -44.5s-29.833 -16.5 -50.5 -16.5c-20 0 -36.667 5.66699 -50 17c-13.333 10 -20 24.667 -20 44zM78 411c0 16.667 6.5 31 19.5 43
s29.833 18 50.5 18c22 0 39.167 -5.5 51.5 -16.5s18.5 -25.833 18.5 -44.5s-6.5 -33.5 -19.5 -44.5s-29.833 -16.5 -50.5 -16.5c-21.333 0 -38 5.66699 -50 17c-13.333 10 -20 24.667 -20 44z" />
    <glyph glyph-name="semicolon" unicode=";" horiz-adv-x="296" 
d="M157 116c18.667 0 33.6689 -5.66602 45.002 -16.999c10.667 -12.667 16 -29.334 16 -50.001c0 -50 -22.333 -78.333 -67 -85l-46 -7c-12.667 -2 -21.667 -7.66699 -27 -17c2 11.333 7 21 15 29l10 6l19 8c15.333 6.66699 25.166 12 29.499 16s8.16602 10.667 11.499 20
l-17 -3c-13.333 0 -24 3.83301 -32 11.5s-12 19.5 -12 35.5s4.83301 28.833 14.5 38.5s23.167 14.5 40.5 14.5zM78.002 411.001c0 16.667 6.5 31 19.5 43s29.833 18 50.5 18c22 0 39.167 -5.5 51.5 -16.5s18.5 -25.833 18.5 -44.5s-6.5 -33.5 -19.5 -44.5
s-29.833 -16.5 -50.5 -16.5c-21.333 0 -38 5.66699 -50 17c-13.333 10 -20 24.667 -20 44z" />
    <glyph glyph-name="less" unicode="&#x3c;" horiz-adv-x="600" 
d="M554 100v-108l-508 216v90l508 216v-108l-363 -153z" />
    <glyph glyph-name="equal" unicode="=" horiz-adv-x="600" 
d="M552 410v-100h-504v100h504zM552 196v-100h-504v100h504z" />
    <glyph glyph-name="greater" unicode="&#x3e;" horiz-adv-x="600" 
d="M46 100l363 153l-363 153v108l508 -216v-90l-508 -216v108z" />
    <glyph glyph-name="question" unicode="?" horiz-adv-x="463" 
d="M255 155l-99.002 0.000976562c-15.333 0 -25 2.83301 -29 8.5s-7 15.5 -9 29.5c0 36 15.667 76.667 47 122l87 111c31.333 45.333 47 89 47 131c0 38 -7.33301 66.667 -22 86c-17.333 22 -43.333 33 -78 33c-26 0 -46.5 -8.83301 -61.5 -26.5s-22.5 -39.167 -22.5 -64.5
c0 -13.333 3 -27 9 -41c6.66699 -12.667 16 -19 28 -19c9.33301 0 19.333 6.5 30 19.5s22 20.5 34 22.5c10 0 20 -5.33301 30 -16c-8 -2.66699 -12.667 -7.66699 -14 -15l1 -8l4 -11l2 -11c0 -26.667 -10.667 -46.667 -32 -60c-20 -14 -45.333 -21 -76 -21
c-37.333 0 -67.666 12.667 -90.999 38s-35 57.666 -35 96.999c0 54 21 95.667 63 125c38 24.667 86.667 37 146 37c62.667 0 113.834 -15.333 153.501 -46s59.5 -75.667 59.5 -135c0 -48 -17.333 -89.667 -52 -125c-14 -16 -51.333 -43.333 -112 -82
c-22 -12.667 -42.667 -29.334 -62 -50.001c-23.333 -25.333 -35 -48.666 -35 -69.999c0 -12.667 6 -19 18 -19h37c7.33301 0 12 3.66699 14 11l-5 17c-4 8 -6 15.667 -6 23c0 14.667 8 22 24 22c10 0 17.667 -1.33301 23 -4c-4 -2 -6.33301 -5.66699 -7 -11v-4l15 -29
l11 -22l5 -16c0 -10 -3.66699 -17 -11 -21s-17 -6 -29 -6zM134.998 52.001c0 15.333 6.5 28.833 19.5 40.5s28.833 17.5 47.5 17.5c18 0 33.667 -5.16699 47 -15.5s20 -24.5 20 -42.5c0 -16.667 -6.5 -30.5 -19.5 -41.5s-28.833 -16.5 -47.5 -16.5
c-19.333 0 -35.333 5.33301 -48 16s-19 24.667 -19 42z" />
    <glyph glyph-name="at" unicode="@" horiz-adv-x="800" 
d="M505 418c0 47.333 -13.334 71 -40.001 71c-24 0 -49 -17.333 -75 -52c-28 -39.333 -42 -82 -42 -128c0 -26 4 -47 12 -63c8.66699 -14.667 19.334 -22 32.001 -22c26 0 49.667 15.833 71 47.5s35.333 80.5 42 146.5zM538.999 531l78.998 0.00195312l-59 -248l-1 -16
l-1 -13c0 -10 2 -20 6 -30c4.66699 -8.66699 12.667 -13 24 -13c26 0 49.333 19.667 70 59s31 85.333 31 138c0 72 -24.5 130.667 -73.5 176s-114.167 68 -195.5 68c-68 0 -126.667 -24 -176 -72c-56.667 -58.667 -85 -142.334 -85 -251.001
c0 -75.333 26.333 -138.333 79 -189s116.667 -76 192 -76c24 0 45.167 1 63.5 3s35.833 5.66699 52.5 11c30.667 8.66699 61.334 22 92.001 40l10 -59l-55 -28l-46 -18c-19.333 -6 -38.5 -10.667 -57.5 -14s-38.5 -5 -58.5 -5c-126 0 -226 38 -300 114
c-62.667 64.667 -94 142 -94 232c0 116 35.667 208.667 107 278s163.333 104 276 104c102 0 185 -28.833 249 -86.5s96 -133.167 96 -226.5c0 -60.667 -16.667 -115.667 -50 -165c-38.667 -56.667 -87 -85 -145 -85c-30 0 -54.667 10.667 -74 32c-14 16 -21 30.667 -21 44
c-6.66699 -13.333 -20 -28 -40 -44c-26 -20.667 -53.333 -31 -82 -31c-12.667 0 -23.667 1.66699 -33 5s-15.666 6.16602 -18.999 8.49902s-8.33301 6.5 -15 12.5c-24.667 22.667 -37 56.667 -37 102c0 54.667 17 109 51 163c41.333 64 94.333 96 159 96
c20.667 0 36.667 -5.33301 48 -16l23 -34z" />
    <glyph glyph-name="A" unicode="A" horiz-adv-x="685" 
d="M156 716l358.002 0.000976562c43.333 0 73 -3 89 -9c22 -9.33301 33 -28.666 33 -57.999c0 -18 -9 -37.667 -27 -59c-12.667 -14 -35.334 -31 -68.001 -51l-318 -191c-24.667 -14 -46 -34 -64 -60c-16.667 -26 -25 -50.667 -25 -74c0 -18.667 1.66699 -31.334 5 -38.001
c6 -15.333 16.667 -23 32 -23c6.66699 0 13 1.33301 19 4l8 4l4 -3l-2 -4l-2 -13l2 -27l2 -26c0 -28.667 -7.16699 -51.5 -21.5 -68.5s-35.5 -25.5 -63.5 -25.5c-30 0 -52.333 12.333 -67 37c-10.667 20 -16 44.333 -16 73c0 48 14.333 111.667 43 191
c10 27.333 22.5 58.833 37.5 94.5s31.167 71.167 48.5 106.5l60 119c12 23.333 18 38 18 44c0 7.33301 -13.667 11 -41 11c-11.333 0 -20.333 -1 -27 -3s-10.334 -6.66699 -11.001 -14c0 -16 11.667 -32.333 35 -49l-28 -52c-32.667 19.333 -57.667 38.666 -75 57.999
c-21.333 22.667 -32 42.667 -32 60c0 18 8.5 30.167 25.5 36.5s39.833 9.5 68.5 9.5zM231.002 512.001l-56.998 -133.999l2 -2l278 168c26 15.333 44.5 30.166 55.5 44.499s16.5 26.833 16.5 37.5c0 10 -1.83301 18.5 -5.5 25.5s-10.834 11.167 -21.501 12.5
c-16.667 0 -25 -9.33301 -25 -28l1 -17l7 -29l-53 -36l-56 -33l-17 66c-4 18 -9.33301 31.333 -16 40c-4.66699 8.66699 -12.667 13 -24 13c-10.667 0 -25.334 -14.333 -44.001 -43l-21 -38zM395.004 426.002l107.001 64l63 -291c9.33301 -42 16.666 -69.333 21.999 -82
s11 -21.334 17 -26.001l44 -28c24 -17.333 36 -30.333 36 -39c0 -9.33301 -7.66699 -17 -23 -23c-17.333 -4.66699 -32 -7 -44 -7l-40 3l-42 3l-48 -3l-45 -3c-12.667 0 -25.667 2.66699 -39 8c-14 4 -21 10.667 -21 20c0 12.667 12.833 26.834 38.5 42.501
s38.5 26.167 38.5 31.5l-1 16l-7 34l-13 68z" />
    <glyph glyph-name="B" unicode="B" horiz-adv-x="667" 
d="M133 105v412.002l128 -61v-263c0 -22 5.66699 -38.333 17 -49c8 -6.66699 18.667 -10 32 -10l38 2l34 -2c29.333 0 51.666 8.66699 66.999 26c18.667 20.667 28 54.334 28 101.001c0 43.333 -13 81.666 -39 114.999c-20 24 -47.667 44.333 -83 61l-204 91
c-31.333 13.333 -58.666 26.333 -81.999 39l-52 34c-24 19.333 -36 39 -36 59c0 19.333 10.667 34 32 44c21.333 8 48 12 80 12h345c48 0 85.667 -7 113 -21c24.667 -15.333 37 -38.333 37 -69c0 -31.333 -14.333 -62.666 -43 -93.999c-22.667 -24 -50 -46.333 -82 -67
c54.667 -22.667 96 -57.334 124 -104.001s42 -101.334 42 -164.001c0 -65.333 -20 -118 -60 -158c-36 -34 -81 -51 -135 -51l-59 6c-30 4 -60.667 6 -92 6l-74 -3l-83 -3c-12.667 0 -22.167 0.5 -28.5 1.5s-16.5 3.16699 -30.5 6.5c-30 7.33301 -45 16.333 -45 27
c0 13.333 37 38.666 111 75.999zM261 622.002v-69.001l-53 23c-39.333 16.667 -64.333 29.334 -75 38.001c0 12 -1 20.833 -3 26.5s-8.33301 9.5 -19 11.5c-13.333 0 -20 -9 -20 -27s49.333 -46.333 148 -85c82 -30.667 143.667 -50.667 185 -60
c17.333 17.333 29.666 33.333 36.999 48s11 33 11 55c0 30.667 -10.333 52.334 -31 65.001c-21.333 10.667 -53.333 16 -96 16c-29.333 0 -50.666 -2.83301 -63.999 -8.5s-20 -16.834 -20 -33.501z" />
    <glyph glyph-name="C" unicode="C" horiz-adv-x="648" 
d="M373 -6c-98 0 -176.833 32.334 -236.5 97.001s-89.5 146.667 -89.5 246c0 114 31.667 208 95 282c58.667 68.667 130.334 103 215.001 103c66 0 121 -14.833 165 -44.5s66 -69.834 66 -120.501c0 -39.333 -13 -70.666 -39 -93.999s-59.667 -35 -101 -35
c-39.333 0 -71 13 -95 39c-18 20 -27 42 -27 66s-7.33301 36 -22 36c-7.33301 0 -12 -4.33301 -14 -13l4 -13c-5.33301 -6.66699 -13.666 -10 -24.999 -10c-12 0 -21.167 3.66699 -27.5 11s-9.5 16.666 -9.5 27.999c0 13.333 5.5 24.833 16.5 34.5s23.833 14.5 38.5 14.5
c22 0 43 -10.833 63 -32.5s38.333 -32.5 55 -32.5c14 0 25.667 4.66699 35 14s14 21 14 35c0 24 -10.667 41.667 -32 53c-20 12 -45 18 -75 18c-62 0 -112.667 -26.667 -152 -80c-36 -50 -54 -112 -54 -186c0 -83.333 28.333 -151.333 85 -204
c51.333 -48 110.666 -72 177.999 -72h39c9.33301 2 19.166 3.66699 29.499 5s23.5 6.33301 39.5 15c38 16 62 42.333 72 79c32 -4 48 -33 48 -87c0 -46.667 -24.667 -83.667 -74 -111s-111 -41 -185 -41z" />
    <glyph glyph-name="D" unicode="D" horiz-adv-x="667" 
d="M260 355v-88c0 -12 4.66699 -21.667 14 -29l10 -7l4 -10c0 -4 -14 -14 -42 -30c-20 -10 -38.333 -23.333 -55 -40l15 -4l26 -4l55 -3c74 0 129 19.333 165 58c38.667 42.667 58 108.667 58 198c0 80 -18.333 145.667 -55 197s-85.667 77 -147 77l-25 -3l-23 -6v-106
l-128 61l-2 30c-3.33301 12 -10 18 -20 18c-8 0 -14 -2.16699 -18 -6.5s-6 -10.166 -6 -17.499c0 -18.667 24.333 -40.334 73 -65.001l136 -63c49.333 -28 74 -57 74 -87c0 -24.667 -8.83301 -42.5 -26.5 -53.5s-45.167 -16.5 -82.5 -16.5zM132 190v329.998l66 -33l62 -35
v-63c14 3.33301 21 18.333 21 45c0 24.667 -25.333 50.334 -76 77.001l-142 68c-51.333 28 -77 58 -77 90c0 22 8.33301 35.333 25 40l31 5l46 2l106 -2l115 2c104.667 0 184.667 -40.667 240 -122c47.333 -71.333 71 -163.666 71 -276.999
c0 -92.667 -26.333 -169.667 -79 -231s-121 -92 -205 -92l-58 3l-58 3l-59 -3l-56 -3c-26 0 -47 2.33301 -63 7c-30.667 8 -46 20.333 -46 37c0 16 22.667 41.167 68 75.5s68 59.833 68 76.5z" />
    <glyph glyph-name="E" unicode="E" horiz-adv-x="650" 
d="M113 132l-0.00292969 429.997c0 22 -4.66699 38 -14 48c-4.66699 4.66699 -21.667 15.334 -51 32.001l-23 13c-9.33301 6 -14.666 13 -15.999 21c0 12.667 13 22.667 39 30c28.667 6.66699 64.334 10 107.001 10h306c46.667 0 82 -3 106 -9
c22.667 -7.33301 34 -18.666 34 -33.999c0 -22.667 -32.667 -52.667 -98 -90l-211 -119c0 -3.33301 3 -6 9 -8c7.33301 0 17.333 2.66699 30 8c32 12 59 18 81 18c24 0 45.667 -5.33301 65 -16c23.333 -13.333 35 -30.666 35 -51.999c0 -14.667 -3.5 -27.167 -10.5 -37.5
s-18.167 -17.166 -33.5 -20.499l2 10c0 10.667 -8 16 -24 16c-8.66699 0 -15.5 -0.333008 -20.5 -1s-14.833 -3 -29.5 -7c-49.333 -12 -81.333 -18 -96 -18c-20 0 -37.667 6.66699 -53 20s-23 29.666 -23 48.999c0 30 35.167 68.5 105.5 115.5s105.5 76.167 105.5 87.5
c0 12.667 -7.66699 22.334 -23 29.001c-7.33301 2 -16.833 3.66699 -28.5 5s-26.5 2 -44.5 2c-35.333 0 -59.333 -3.5 -72 -10.5s-19 -22.833 -19 -47.5v-101l-20 -18l-16 -21c-9.33301 -15.333 -14 -31 -14 -47c0 -14 5.66699 -28.667 17 -44l33 -30v-138
c0 -32 17 -54 51 -66c27.333 -8.66699 75 -13 143 -13c37.333 0 64 2.33301 80 7c25.333 6.66699 41 22 47 46c18.667 -6.66699 33.167 -17.834 43.5 -33.501s15.5 -33.834 15.5 -54.501c0 -32 -12.667 -56.667 -38 -74c-11.333 -7.33301 -25.666 -13.333 -42.999 -18
s-36.333 -7 -57 -7l-84 3l-93 3l-101 -1l-105 -5c-12 0 -23.5 1 -34.5 3s-22.5 5.66699 -34.5 11c-22 8.66699 -33.333 18.334 -34 29.001c0 8 18.167 22.5 54.5 43.5s54.5 38.167 54.5 51.5z" />
    <glyph glyph-name="F" unicode="F" horiz-adv-x="556" 
d="M228 345v-231.001c0 -14 16.667 -29.167 50 -45.5s50 -30.5 50 -42.5c0 -6.66699 -7 -14 -21 -22c-15.333 -6.66699 -30.333 -10 -45 -10l-53 3l-47 3l-49 -3l-40 -3l-22 1l-20 6c-14 4 -21 10 -21 18c0 12 15 27 45 45s45 41 45 69v429c0 22.667 -4.66699 38.667 -14 48
c-2.66699 4 -18.667 14.667 -48 32l-22 13c-10 7.33301 -15 14.333 -15 21c0 12 12 22 36 30l43 7l60 3h291c45.333 0 79 -3 101 -9c21.333 -7.33301 32 -18.666 32 -33.999c0 -22 -31 -52 -93 -90l-201 -119c0 -3.33301 3 -6 9 -8c4.66699 0 8.33398 0.333008 11.001 1
s8.33398 3 17.001 7c30 12 55.667 18 77 18c22 0 42.667 -5.33301 62 -16c22.667 -13.333 34 -30.666 34 -51.999c0 -14.667 -3.33301 -27.334 -10 -38.001s-17.334 -17.334 -32.001 -20.001l2 10c0 10.667 -7.66699 16 -23 16c-8.66699 0 -17.5 -1 -26.5 -3
s-16.167 -3.66699 -21.5 -5c-47.333 -12 -77.666 -18 -90.999 -18c-20 0 -37.167 6.5 -51.5 19.5s-21.5 29.5 -21.5 49.5c0 29.333 33.5 67.5 100.5 114.5s100.5 76.5 100.5 88.5c0 12.667 -7.33301 22.334 -22 29.001c-16.667 4.66699 -39.667 7 -69 7
c-34.667 0 -57.834 -3.16699 -69.501 -9.5s-17.5 -22.5 -17.5 -48.5v-101c-12.667 -9.33301 -24 -22.333 -34 -39l-8 -19c-2 -6 -3.66699 -15.333 -5 -28c0 -16 5.33301 -30.667 16 -44c7.33301 -10.667 17.666 -20.667 30.999 -30z" />
    <glyph glyph-name="G" unicode="G" horiz-adv-x="685" 
d="M597 330v-216.997c0 -13.333 8.33301 -28 25 -44c16.667 -14.667 25 -27.667 25 -39c0 -6.66699 -15 -15 -45 -25c-15.333 -3.33301 -27.333 -5.83301 -36 -7.5s-17.667 -2.83398 -27 -3.50098l-56 3l-49 3l-67 -3l-49 -3c-80 0 -146 35 -198 105
c-48.667 66 -73 144.667 -73 236c0 107.333 22 194.666 66 261.999c55.333 83.333 142.333 125 261 125c96 0 157.833 -3.66699 185.5 -11s41.5 -24.333 41.5 -51c-2 -18.667 -12.667 -34.667 -32 -48c-12 -8 -58 -32 -138 -72s-120 -68.333 -120 -85l4 -15l4 -25
c0 -14.667 -4.66699 -26.667 -14 -36c-9.33301 -7.33301 -21.666 -11 -36.999 -11c-12 0 -23.667 5 -35 15c-9.33301 10.667 -14 23.667 -14 39c0 24 19.333 49.333 58 76l76 47l66 40c25.333 17.333 38 32 38 44s-7.33301 21 -22 27l-23 6l-29 2
c-76.667 0 -133.5 -21.833 -170.5 -65.5s-55.5 -105.167 -55.5 -184.5c0 -72.667 13.667 -133.334 41 -182.001c32.667 -56.667 79.667 -85 141 -85c48 0 80.667 3.5 98 10.5s26 19.833 26 38.5v141c0 10.667 -10.167 25 -30.5 43s-30.5 30 -30.5 36
c0 6.66699 3.33301 11.5 10 14.5s11.667 4.83301 15 5.5s9.33301 1 18 1l48 -2l43 -3l44 3l30 2h13l22 -4c11.333 -2 17.666 -7 18.999 -15l-11 -12l-35 -34c-14 -12 -21 -26 -21 -42z" />
    <glyph glyph-name="H" unicode="H" horiz-adv-x="648" 
d="M248 480l0.000976562 -376.001c0 -6 14.5 -17.833 43.5 -35.5s44.5 -31.5 46.5 -41.5c0 -10 -8.16699 -18 -24.5 -24s-31.833 -9 -46.5 -9l-25 1l-60 5l-48 -3l-33 -3c-18 0 -33.667 2.33301 -47 7c-20 7.33301 -30 16 -30 26c0 7.33301 16 20.333 48 39
s48 31.334 48 38.001v416l67 -19c23.333 -6 43.666 -13 60.999 -21zM50.001 715.999l413.999 -0.000976562c30 0 51.667 -2.66699 65 -8c14.667 -4 22 -17 22 -39c0 -11.333 -4.16699 -22.166 -12.5 -32.499s-12.5 -17.166 -12.5 -20.499c0 -5.33301 1.33301 -10.333 4 -15
l5 -5c-7.33301 -4 -15.666 -6.66699 -24.999 -8c-14.667 0 -28 5 -40 15c-6 4 -15.333 15.333 -28 34c-4.66699 6.66699 -14 11.667 -28 15s-26 5.16602 -36 5.49902s-18 0.5 -24 0.5h-74c-12 0 -19.833 -2 -23.5 -6s-6.5 -11.667 -8.5 -23v-46l-48 9
c-29.333 6 -56 14.333 -80 25v11l-2 13c-2.66699 10 -8.66699 15.667 -18 17c-12.667 0 -19 -9 -19 -27c0 -14 20.667 -29 62 -45c55.333 -18 137.333 -34 246 -48c58.667 -7.33301 107.667 -29 147 -65c43.333 -40 65 -89.333 65 -148v-34c-2 -14 -3.5 -25.167 -4.5 -33.5
s-2.5 -17 -4.5 -26s-5.66699 -20.833 -11 -35.5c-10.667 -33.333 -26 -69.333 -46 -108l-44 -85c-14.667 -30.667 -22 -51.667 -22 -63c0 -7.33301 1.83301 -14.5 5.5 -21.5s9.16699 -11.167 16.5 -12.5l19 3l23 3c12 0 22 -4 30 -12s12 -18.667 12 -32
c0 -17.333 -9.33301 -31 -28 -41c-1.33301 8 -7 12 -17 12c-9.33301 0 -19 -1.33301 -29 -4l-20 -5c-25.333 0 -45.333 8.33301 -60 25s-22 37.667 -22 63v18.5c0 5 1.16699 12.333 3.5 22s4 16.334 5 20.001s4.16699 12.5 9.5 26.5l15 47l17 57l9 33c6 29.333 9 60 9 92
c0 90 -23.333 156 -70 198c-38.667 35.333 -113.667 68 -225 98c-50.667 12 -91.667 27.333 -123 46c-45.333 25.333 -68 53.666 -68 84.999c0 22 5 37 15 45c12 6.66699 30 10 54 10z" />
    <glyph glyph-name="I" unicode="I" horiz-adv-x="500" 
d="M264 222l0.00195312 290.999c0 13.333 -4.66699 24.333 -14 33l-28 29c0 10 10.333 18.333 31 25l84 22c23.333 6 35 14 35 24c0 6 -11.833 10.5 -35.5 13.5s-55.834 4.5 -96.501 4.5c-38.667 0 -64.5 -2 -77.5 -6s-20.5 -9.66699 -22.5 -17
c0 -5.33301 8.66699 -16.333 26 -33c16.667 -18 25 -34 25 -48c0 -36 -24 -54 -72 -54c-26 0 -43.333 13.333 -52 40l17 3c2.66699 2 5 6 7 12l-13 15l-40 41c-17.333 17.333 -26 33.333 -26 48c0 14 9.33301 25.5 28 34.5s46 13.5 82 13.5l62 1h22h18
c8 1.33301 13.667 2 17 2c19.333 0 40.333 -0.166992 63 -0.5s51.667 -2.83301 87 -7.5c68.667 -8 103 -21.333 103 -40c0 -14 -10 -27 -30 -39c-44 -23.333 -66 -45.333 -66 -66v-377c0 -20 6.66699 -33.667 20 -41c12.667 -8.66699 19 -25 19 -49
c0 -33.333 -19.5 -58.666 -58.5 -75.999s-91.833 -26 -158.5 -26c-62.667 0 -109.667 5.33301 -141 16c-48.667 16 -73 46.333 -73 91c0 24.667 9 48 27 70l59 58c0 7.33301 -1.33301 13.333 -4 18l19 2c8 0 15 -2 21 -6s9.33301 -10.333 10 -19l-3 -20l-3 -34
c0 -13.333 5.33301 -24 16 -32c11.333 -6.66699 26.666 -10 45.999 -10c28 0 48 10 60 30c6.66699 12 10 33.333 10 64z" />
    <glyph glyph-name="J" unicode="J" horiz-adv-x="500" 
d="M264 92v421.001c0 13.333 -4.66699 24.333 -14 33l-28 29c0 10 10.333 18.333 31 25l84 22c23.333 6 35 14 35 24c0 6 -11.833 10.5 -35.5 13.5s-55.834 4.5 -96.501 4.5c-38.667 0 -64.5 -2 -77.5 -6s-20.5 -9.66699 -22.5 -17c0 -5.33301 8.66699 -16.333 26 -33
c16.667 -18 25 -34 25 -48c0 -36 -24 -54 -72 -54c-26 0 -43.333 13.333 -52 40l17 3c2.66699 2 5 6 7 12l-13 15l-40 41c-17.333 17.333 -26 33.333 -26 48c0 14 9.33301 25.5 28 34.5s46 13.5 82 13.5l62 1h22h18c8 1.33301 13.667 2 17 2
c19.333 0 40.333 -0.166992 63 -0.5s51.667 -2.83301 87 -7.5c68.667 -8 103 -21.333 103 -40c0 -14 -10 -27 -30 -39c-44 -23.333 -66 -45.333 -66 -66v-507c0 -20 6.66699 -33.667 20 -41c12.667 -8.66699 19 -25 19 -49c0 -33.333 -20.167 -58.666 -60.5 -75.999
s-92.5 -26 -156.5 -26c-62.667 0 -109.667 5.33301 -141 16c-48.667 16 -73 46.333 -73 91c0 25.333 9 48.666 27 69.999l59 58c0 7.33301 -1.33301 13.333 -4 18l19 2c6.66699 0 13.334 -2 20.001 -6s10.334 -10.333 11.001 -19l-3 -20l-3 -34
c0 -13.333 5.33301 -24 16 -32c11.333 -6.66699 26.666 -10 45.999 -10c28 0 48 10 60 30c6.66699 13.333 10 34.666 10 63.999z" />
    <glyph glyph-name="K" unicode="K" horiz-adv-x="685" 
d="M92 716l149.999 0.00292969c19.333 0 32.666 -0.5 39.999 -1.5s20 -3.66699 38 -8s27 -12.833 27 -25.5c0 -6.66699 -16.167 -20.834 -48.5 -42.501s-48.5 -45.834 -48.5 -72.501v-35l-28 12l-49 25l-27 15l-26 18c0 14 -1 25 -3 33s-7 12 -15 12
c-12.667 0 -19 -7.66699 -19 -23c0 -26 31.333 -54.333 94 -85c52 -25.333 97.333 -41 136 -47c11.333 4 24.833 10.833 40.5 20.5s29.834 20.5 42.501 32.5c32 30 48 58 48 84v18l-4 16l-4 32c0 14.667 7 22 21 22h150c18.667 0 28 -7 28 -21c0 -4 -6 -10.667 -18 -20
l-33 -19l-121 -117c-28.667 -28.667 -57.667 -49 -87 -61c57.333 -7.33301 99.333 -40.666 126 -99.999c10 -22.667 25 -80.334 45 -173.001c14 -66.667 31.667 -105.667 53 -117l59 -31c20 -12 30.333 -23.333 31 -34c0 -8 -6.33301 -14.833 -19 -20.5s-27 -8.5 -43 -8.5
l-43 3l-42 3l-46 -3l-29 -3c-13.333 0 -22.666 4.66699 -27.999 14c-3.33301 8.66699 -7.66602 27 -12.999 55c-19.333 143.333 -43 242.666 -71 297.999c-21.333 45.333 -54.333 77 -99 95c-101.333 44 -174 86.333 -218 127c-29.333 28 -44 55.667 -44 83
c0 14 7 25.667 21 35c17.333 10 42.666 15 75.999 15zM119.999 133.003v362l22 -12l33 -15l73 -29v-325c0 -14 16.667 -29.167 50 -45.5s50 -30.5 50 -42.5c0 -6.66699 -7 -14 -21 -22c-15.333 -6.66699 -30.333 -10 -45 -10l-48 3l-52 3l-57 -3l-32 -3
c-16.667 0 -30.667 2.33301 -42 7c-14 4 -21 10 -21 18c0 12 15 27 45 45s45 41 45 69z" />
    <glyph glyph-name="L" unicode="L" horiz-adv-x="574" 
d="M120 212l0.000976562 405.004c0 17.333 -16 34.666 -48 51.999c-15.333 7.33301 -23 16.666 -23 27.999c0 6.66699 2.66699 11.667 8 15c4 1.33301 8 2.33301 12 3s10.667 1 20 1h156l51 -2c8 -2 12.667 -7 14 -15c0 -6.66699 -10.333 -17.334 -31 -32.001
s-31 -28.667 -31 -42v-390c0 -4 4 -9 12 -15c18.667 -11.333 28 -21 28 -29c0 -5.33301 -4.66699 -10.666 -14 -15.999l-17 -8l-22 -9c-36 -11.333 -73 -26.666 -111 -45.999c-48.667 -24.667 -73 -43 -73 -55c0 -4 4 -7 12 -9l25 -2c22.667 0 48.667 5.33301 78 16l86 36
l95 38c35.333 10.667 63 16 83 16l20 -1l20 -4c6 0 9.33301 2.33301 10 7c0 4.66699 -14.667 28.167 -44 70.5s-44 70.166 -44 83.499c0 18.667 5.66699 34 17 46c8.66699 10.667 14 22 16 34l40 -23c14 -9.33301 21 -22 21 -38c0 -7.33301 -1.83301 -16 -5.5 -26
s-5.5 -17.667 -5.5 -23c0 -16 16.167 -53.833 48.5 -113.5s49.166 -94.834 50.499 -105.501c0 -20 -18.333 -36.333 -55 -49c-32 -10.667 -59 -16 -81 -16l-34 3l-53 7l-48 6l-44 2l-92 -12c-27.333 -4 -50.333 -6 -69 -6c-30 0 -55.667 3.66699 -77 11
c-26.667 9.33301 -40 23.666 -40 42.999c0 12 23.167 36.5 69.5 73.5s69.5 67.167 69.5 90.5z" />
    <glyph glyph-name="M" unicode="M" horiz-adv-x="981" 
d="M176 598l-23 -50.999c-24 10.667 -42 20 -54 28l-32 22c-22 18 -33 38 -33 60c0 16.667 8.16699 30.667 24.5 42s33.833 17 52.5 17h799c25.333 0 44.666 -4.66699 57.999 -14c14 -8 21 -23 21 -45c0 -24.667 -15.333 -50.334 -46 -77.001l-39 -27l-45 -19l-15 50
c12 3.33301 21.667 8 29 14c10 8 15.333 17.333 16 28c0 10 -3 18 -9 24c-6 4 -15.333 6 -28 6c-14 0 -24.167 -1.16699 -30.5 -3.5s-10.5 -6.5 -12.5 -12.5l25 -94l22 -94l19 -93c16 -90 24 -168.333 24 -235c0 -49.333 -3 -83.666 -9 -102.999
c-7.33301 -18 -19.333 -27 -36 -27l-34 3l-35 3l-31 -3l-34 -3l-34 1c-24 3.33301 -36 10.666 -36 21.999c0 6 10.667 17.333 32 34l54 38c11.333 7.33301 19 18.166 23 32.499s6 41.166 6 80.499l-3 70c0 12 -1.5 28.333 -4.5 49s-5.16699 34.667 -6.5 42
c-4.66699 34.667 -8 56.334 -10 65.001c-4.66699 16.667 -8 29 -10 37c-8 34 -17.333 63.333 -28 88c-26 64.667 -59 97 -99 97c-23.333 0 -39.666 -12 -48.999 -36c-5.33301 -17.333 -8 -42.333 -8 -75h-33h-12l-42 1l-41 4c0 36.667 -3.66699 62.334 -11 77.001
c-11.333 23.333 -30.666 35 -57.999 35c-46 0 -89 -51.333 -129 -154c-35.333 -90.667 -53 -169.667 -53 -237c0 -50.667 3.16699 -88.5 9.5 -113.5s19.5 -43.5 39.5 -55.5c28.667 -16 50.667 -29.833 66 -41.5s23.333 -20.834 24 -27.501c0 -10.667 -6 -18 -18 -22l-26 -5
h-14l-22 1l-47 5l-34 -3l-30 -3c-12.667 0 -22.334 8.66699 -29.001 26c-2 10 -3.66699 24.5 -5 43.5s-2 43.167 -2 72.5c0 84.667 12 170 36 256c8 31.333 17.333 60 28 86c5.33301 14.667 10.833 28 16.5 40s13.5 27.667 23.5 47l36 71c0 4 -3.33301 7.33301 -10 10l-25 2
c-27.333 0 -41 -7 -41 -21c0 -8 3.66699 -15.333 11 -22c3.33301 -3.33301 10.333 -7.66602 21 -12.999zM251 517.001l16.999 40l46 -15l57 -12l56 -6l56 -2c38.667 0 74.834 1 108.501 3s66.167 5.33301 97.5 10l15 -40l-112 -10l-105 -3
c-50.667 0 -95.167 3.16699 -133.5 9.5s-72.5 14.833 -102.5 25.5zM418.999 113.001l0.000976562 355.001l32 -3l32 -1l64 2v-362c0 -8 13 -21.833 39 -41.5s39 -35.167 39 -46.5c0 -6.66699 -8.66699 -12.334 -26 -17.001l-48 -5l-24 1l-56 5l-37 -3l-37 -3
c-20.667 0 -36.334 2.66699 -47.001 8c-10.667 4 -16 11 -16 21c0 6 19.333 23 58 51c18 13.333 27 26.333 27 39z" />
    <glyph glyph-name="N" unicode="N" horiz-adv-x="759" 
d="M257 496l-128 77.001v26c0 14.667 -1.16699 25.167 -3.5 31.5s-8.5 9.5 -18.5 9.5c-7.33301 0 -13.166 -3.16699 -17.499 -9.5s-6.5 -14.5 -6.5 -24.5c0 -20 8.66699 -35.667 26 -47l252 -155c6 -4 12 -7.66699 18 -11c10 -6.66699 18.333 -12.667 25 -18
c11.333 -8 19.333 -14.667 24 -20c10.667 -14.667 16 -29.667 16 -45c0 -16.667 -5.83301 -30.334 -17.5 -41.001s-27.5 -16 -47.5 -16c-13.333 0 -26.666 5 -39.999 15c-10 7.33301 -19.667 19.666 -29 36.999l25 6c6 2 9 7 9 15c0 6 -2.66699 11.667 -8 17l-38 25
l-246 151c-16.667 11.333 -30.334 25.5 -41.001 42.5s-16 35.833 -16 56.5c0 36 15 63.667 45 83c23.333 14 55 21 95 21l146 -3l146 3c81.333 0 143.666 -16.333 186.999 -49c47.333 -36 71 -90.333 71 -163c0 -36.667 -7.33301 -72 -22 -106c-10 -24 -26 -53 -48 -87
l-48 -70c-14.667 -23.333 -22 -42.666 -22 -57.999c0 -8.66699 2.83301 -16.5 8.5 -23.5s14.167 -11.167 25.5 -12.5c7.33301 0 24 3 50 9l21 4l14 1c21.333 0 39.333 -7.33301 54 -22c14 -16 21 -33.667 21 -53c0 -8.66699 -0.166992 -17.667 -0.5 -27
s-2.83301 -20 -7.5 -32c-4 -14 -13 -27 -27 -39c-2 4 -7.16699 8 -15.5 12s-14.5 6 -18.5 6l-19 -1l-22 -7l-29 -7l-29 -3c-28 0 -52 11 -72 33s-30 50.667 -30 86c0 34 3 67 9 99l21 87c5.33301 22.667 9.5 41 12.5 55s6.33301 33.833 10 59.5s5.5 52.167 5.5 79.5
c0 46 -16 85 -48 117c-29.333 28 -65 42 -107 42h-74c-9.33301 0 -18.5 -1.83301 -27.5 -5.5s-13.5 -10.167 -13.5 -19.5v-131zM129 444.001l128.001 -78v-252c0 -14.667 16.333 -30.5 49 -47.5s49.667 -30.167 51 -39.5c0 -10 -8.83301 -18 -26.5 -24
s-33.834 -9 -48.501 -9l-43 3l-46 3l-45 -3l-44 -3c-16.667 0 -31.667 2.33301 -45 7c-20 7.33301 -30 16 -30 26c0 9.33301 16.667 22.833 50 40.5s50 33.167 50 46.5v330z" />
    <glyph glyph-name="O" unicode="O" horiz-adv-x="666" 
d="M47 344c0 104 22 189.999 66 257.999c52 80 127.333 120 226 120c92 0 163 -36 213 -108c44.667 -67.333 67 -157 67 -269c0 -42.667 -3.5 -81.167 -10.5 -115.5s-19.167 -70.166 -36.5 -107.499c-38 -85.333 -87 -128 -147 -128l-54 3l-42 3l-37 -3l-46 -3
c-50.667 0 -96.5 35.833 -137.5 107.5s-61.5 152.5 -61.5 242.5zM341 669.999c-68 0 -119.667 -31 -155 -93c-26 -47.333 -39 -103 -39 -167l1 -35v-22c2 -7.33301 3.33301 -12.333 4 -15l3 -34c2 -8 6 -18.667 12 -32c10 63.333 38.333 113.333 85 150l128 74
c42.667 25.333 64 57 64 95c0 27.333 -9.66699 47.333 -29 60s-44 19 -74 19zM213 251.999c0 -37.333 11.166 -64.1689 33.499 -80.502s55.5 -24.5 99.5 -24.5c58 0 103 27 135 81c25.333 44.667 38 98.334 38 161.001v15v12v43l-4 19
c-5.33301 32.667 -14.666 61 -27.999 85c0 -20.667 -6.16699 -40.167 -18.5 -58.5s-30.5 -35.166 -54.5 -50.499l-130 -73c-47.333 -33.333 -71 -76.333 -71 -129z" />
    <glyph glyph-name="P" unicode="P" horiz-adv-x="648" 
d="M107 115v472.997c0 21.333 -18.667 43.666 -56 66.999c-18 10 -27.333 19.333 -28 28c0 22 88.333 33 265 33c94.667 0 171 -19.667 229 -59c66.667 -45.333 100 -112.666 100 -201.999c0 -62 -19.667 -112 -59 -150s-92.666 -57 -159.999 -57
c-52.667 0 -95 13.667 -127 41c-28.667 24.667 -43 54.334 -43 89.001c0 13.333 1.66699 24 5 32s8 15 14 21l15 14c4 5.33301 6 11.333 6 18c0 4 -2 8 -6 12c9.33301 4 19.333 6 30 6c15.333 0 28.833 -4.83301 40.5 -14.5s17.5 -21.5 17.5 -35.5
c0 -15.333 3 -27.666 9 -36.999c7.33301 -8 19 -12 35 -12c30 0 52 12.333 66 37c11.333 20.667 17 47.667 17 81c0 48 -16.833 87.333 -50.5 118s-74.5 46 -122.5 46l-32 -1c-6.66699 0 -14.334 -2.66699 -23.001 -8c-9.33301 -4 -14 -12.667 -14 -26v-176l-19 -24
c-9.33301 -14.667 -14 -31 -14 -49s2.5 -33.667 7.5 -47s13.5 -26 25.5 -38v-176c0 -11.333 15.833 -26.666 47.5 -45.999s47.5 -34.333 47.5 -45c0 -9.33301 -8 -17.666 -24 -24.999c-15.333 -6 -30 -9 -44 -9l-38 3l-42 3l-51 -3l-43 -3c-12 0 -26.333 3 -43 9
s-26 14.333 -28 25c0 8 14.5 21.167 43.5 39.5s44.5 34.166 46.5 47.499z" />
    <glyph glyph-name="Q" unicode="Q" horiz-adv-x="666" 
d="M473 -96c0 -24 -7.33203 -41.999 -21.999 -53.999c0 4 -2.33301 7.33301 -7 10s-11.334 4 -20.001 4l-50 -11c-16 -4 -28.667 -6 -38 -6c-16.667 0 -30.667 4.66699 -42 14c-11.333 8 -17 21.333 -17 40c0 10.667 3.33301 23.667 10 39l16 40l31 5l16 -1l9 -3l3 -18
c0 -3.33301 5.66699 -6 17 -8l38 3c14.667 0 27.667 -4.83301 39 -14.5s17 -22.834 17 -39.501zM47.001 344.001c0 104 22 189.999 66 257.999c52 80 127.333 120 226 120c92 0 163 -36 213 -108c44.667 -67.333 67 -157 67 -269c0 -42.667 -3.5 -81.167 -10.5 -115.5
s-19.167 -70.166 -36.5 -107.499c-38 -85.333 -87 -128 -147 -128l-54 3l-42 3l-37 -3l-46 -3c-50.667 0 -96.5 35.833 -137.5 107.5s-61.5 152.5 -61.5 242.5zM341.001 670c-68 0 -119.667 -31 -155 -93c-26 -47.333 -39 -103 -39 -167l1 -35v-22
c2 -7.33301 3.33301 -12.333 4 -15l3 -34c2 -8 6 -18.667 12 -32c10 63.333 38.333 113.333 85 150l128 74c42.667 25.333 64 57 64 95c0 27.333 -9.66699 47.333 -29 60s-44 19 -74 19zM213.001 252c0 -37.333 11.166 -64.1689 33.499 -80.502s55.5 -24.5 99.5 -24.5
c58 0 103 27 135 81c25.333 44.667 38 98.334 38 161.001v15v12v43l-4 19c-5.33301 32.667 -14.666 61 -27.999 85c0 -20.667 -6.16699 -40.167 -18.5 -58.5s-30.5 -35.166 -54.5 -50.499l-130 -73c-47.333 -33.333 -71 -76.333 -71 -129z" />
    <glyph glyph-name="R" unicode="R" horiz-adv-x="704" 
d="M252 462v-347.002c0 -9.33301 13.833 -24.166 41.5 -44.499s42.5 -36.166 44.5 -47.499c0 -8.66699 -8 -16 -24 -22l-44 -7l-34 3l-41 3l-50 -3l-44 -3c-16.667 0 -33 3 -49 9c-14 4 -22.333 10.333 -25 19c0 11.333 16.167 26.833 48.5 46.5s48.5 38.167 48.5 55.5v402z
M396 663.998h-72c-26.667 0 -45.334 -4 -56.001 -12s-16 -20.667 -16 -38v-58l-25 11l-38 21l-64 37c0 10.667 -1.16699 18.834 -3.5 24.501s-8.16602 8.5 -17.499 8.5c-16.667 0 -25 -5.66699 -25 -17c0 -12 35.667 -37 107 -75s122.333 -57 153 -57
c36.667 0 69 11.667 97 35s42 48.666 42 75.999c0 14 -8.33301 25.333 -25 34c-18 6.66699 -37 10 -57 10zM68 715.998l410.998 -0.000976562c18.667 0 35 -1.33301 49 -4s26 -7 36 -13c20 -10 30 -29.333 30 -58c0 -30 -20.667 -61.333 -62 -94c-30 -24 -65 -44 -105 -60
l85 -39c22.667 -10 37 -19 43 -27c4 -6 9.66699 -24.333 17 -55l44 -239c2 -18 19.667 -36.167 53 -54.5s50 -32.833 50 -43.5c0 -5.33301 -8 -13 -24 -23c-15.333 -8 -29 -12 -41 -12l-25 1l-44 5l-32 -3l-33 -3c-11.333 0 -19.666 4.66699 -24.999 14
c-3.33301 8 -6.66602 21.667 -9.99902 41c-15.333 146 -33.5 242.167 -54.5 288.5s-69.833 89.5 -146.5 129.5l-169 89c-44.667 24 -74.667 42.667 -90 56c-22.667 18.667 -34 37.334 -34 56.001c0 32 25.667 48 77 48z" />
    <glyph glyph-name="S" unicode="S" horiz-adv-x="593" 
d="M141 716l257 -0.00292969c51.333 0 86.833 -3 106.5 -9s29.5 -19.333 29.5 -40c0 -14.667 -9.33301 -29.334 -28 -44.001l-46 -33l-15 -13c0 -7.33301 5 -16.666 15 -27.999l-23 -2c-13.333 0 -25.333 4.33301 -36 13s-16 18.667 -16 30
c0 9.33301 2.83301 18.166 8.5 26.499s9.83398 16.833 12.501 25.5c0 6.66699 -4 11.667 -12 15l-19 6l-25 1h-157c-10.667 0 -19.334 -2.33301 -26.001 -7s-10.334 -11.667 -11.001 -21c0 -20 34.667 -45.333 104 -76c92.667 -41.333 157.667 -77.666 195 -108.999
c70 -59.333 105 -133 105 -221c0 -75.333 -19.333 -133.666 -58 -174.999c-18.667 -19.333 -40.5 -34.333 -65.5 -45s-52.5 -16 -82.5 -16l-25 1l-49 5l-40 -3l-32 -3c-51.333 0 -94.666 20 -129.999 60s-53 86.667 -53 140c0 50.667 15.667 93.334 47 128.001
s69.333 52 114 52c46.667 0 83.667 -13.333 111 -40s44.333 -40.667 51 -42l11 2l2 -17c0 -16 -5 -30.667 -15 -44c-10 -11.333 -24.333 -17 -43 -17c-16 0 -31 3 -45 9c-29.333 14 -46.666 21 -51.999 21c-13.333 0 -23 -3 -29 -9s-10 -15.667 -12 -29
c0 -24 11.667 -42.333 35 -55s50.666 -19 81.999 -19c42.667 0 77.667 10.333 105 31c30 23.333 45 56 45 98c0 60 -33.333 111 -100 153l-186 94c-66.667 36.667 -100 79.334 -100 128.001c0 28.667 8.66699 48.667 26 60c16 12 39 18 69 18z" />
    <glyph glyph-name="T" unicode="T" horiz-adv-x="630" 
d="M251 113l-0.00292969 522c0 10 -1.83301 16 -5.5 18s-6.83398 3.33301 -9.50098 4s-7.66699 1 -15 1h-58l-26 -3c-6 -0.666992 -9.33301 -4.33398 -10 -11.001l36 -81c10 -24 15 -44.333 15 -61c0 -14 -4 -26 -12 -36c-9.33301 -10 -21 -15 -35 -15
c-10 0 -18.167 2.83301 -24.5 8.5s-10.166 13.834 -11.499 24.501c0 10 4.66699 19.667 14 29c10 8 15 14 15 18c0 8.66699 -24.5 31.334 -73.5 68.001s-73.5 62.334 -73.5 77.001c0 13.333 5.83301 23.333 17.5 30s24.167 10 37.5 10h566c14 0 27 -3 39 -9
c10.667 -7.33301 16 -17.666 16 -30.999c0 -14.667 -24.5 -40.334 -73.5 -77.001s-73.5 -59.334 -73.5 -68.001c0 -4 4.66699 -10 14 -18s14.333 -17.667 15 -29c0 -9.33301 -3.16699 -17.166 -9.5 -23.499s-15.166 -9.5 -26.499 -9.5c-14.667 0 -26.167 4.66699 -34.5 14
s-12.5 21.666 -12.5 36.999c0 14.667 5.66699 35.334 17 62.001l34 80c0 3.33301 -3 7 -9 11l-27 3h-58c-10 0 -17.167 -1.33301 -21.5 -4s-7.16602 -9 -8.49902 -19v-522c0 -8 16 -21.833 48 -41.5s48 -34.834 48 -45.501c0 -8 -9.33301 -15.333 -28 -22l-44 -10l-25 1
l-65 5l-50 -3l-36 -3c-7.33301 0 -13 0.333008 -17 1s-12 3 -24 7c-19.333 6.66699 -29.666 14.667 -30.999 24c0 8 16 22.667 48 44c13.333 7.33301 24.5 15.166 33.5 23.499s13.833 14.833 14.5 19.5z" />
    <glyph glyph-name="U" unicode="U" horiz-adv-x="685" 
d="M190 596l-30.998 -38.998c-34 19.333 -63.667 40.333 -89 63c-27.333 25.333 -41 47 -41 65c0 20.667 19 31 57 31h193c19.333 0 32.833 -3 40.5 -9s11.5 -15.333 11.5 -28c0 -14 -13.667 -39.667 -41 -77c-38 -49.333 -63.333 -85 -76 -107
c-28 -49.333 -42 -98 -42 -146c0 -62.667 14.333 -112.667 43 -150c33.333 -43.333 81 -65 143 -65c37.333 0 63.666 7.33301 78.999 22c15.333 13.333 23 35.333 23 66c0 37.333 -21.667 86.666 -65 147.999c-46 66 -96.333 112 -151 138l24 38
c38 -20 74.333 -46.333 109 -79s61.667 -70.334 81 -113.001l2 242c0 14.667 -13.833 31 -41.5 49s-41.5 33 -41.5 45c0 4.66699 9.16699 10.167 27.5 16.5s33.166 9.5 44.499 9.5l19 -1l48 -5l40 3l30 3c7.33301 0 15.5 -0.166992 24.5 -0.5s19.833 -2.83301 32.5 -7.5
c17.333 -4 26 -11.333 26 -22c0 -7.33301 -14.5 -19.5 -43.5 -36.5s-43.5 -33.5 -43.5 -49.5v-478c0 -12.667 15.667 -28.167 47 -46.5s47 -33.833 47 -46.5c0 -9.33301 -11 -18 -33 -26c-21.333 -6 -44.333 -9 -69 -9l-26 3l-26 4l-26 3l-26 2l-99 -8l-75 -4
c-60.667 0 -113.667 20.667 -159 62c-50 47.333 -75 112 -75 194c0 37.333 4.33301 73.5 13 108.5s22 69.167 40 102.5l116 170c0 14 -14 21 -42 21l-36 -2c-3.33301 0 -6 -3.66699 -8 -11c0 -4 5 -10.667 15 -20l12 -11z" />
    <glyph glyph-name="V" unicode="V" horiz-adv-x="666" 
d="M211 522l124.998 -280.999c20 -44.667 37 -67 51 -67c24 0 53 42.667 87 128s51 153 51 203c0 30 -5.33301 55.667 -16 77c-13.333 26.667 -33 40 -59 40c-11.333 0 -38.333 -6.33301 -81 -19l-140 -41c-10.667 0 -16 5 -16 15c0 3.33301 3 7 9 11l32 13l122 51l94 37
c57.333 22 93.333 33 108 33c23.333 0 41.666 -8.83301 54.999 -26.5s20 -38.5 20 -62.5c0 -41.333 -24.667 -119.166 -74 -233.499s-100.666 -211.833 -153.999 -292.5l-56 -85c-17.333 -24 -31.666 -36.667 -42.999 -38c-7.33301 0 -13.5 2.5 -18.5 7.5
s-13.167 19.5 -24.5 43.5l-223 497c-2 6 -10.167 12 -24.5 18s-21.5 13.333 -21.5 22c0 5.33301 9.66699 12.333 29 21c8.66699 4 17.334 7 26.001 9l31 9c20 2 47.333 10.5 82 25.5s53 25.5 55 31.5c0 5.33301 -31 8 -93 8c-20 0 -37.167 -2 -51.5 -6s-21.5 -11 -21.5 -21
c0 -3.33301 2 -9 6 -17c4 -5.33301 6.33301 -12 7 -20c-32 0 -56 3 -72 9c-23.333 9.33301 -35 26.666 -35 51.999c0 30.667 30 46 90 46l60 1h22h18c8 1.33301 13.667 2 17 2c112.667 0 169 -10 169 -30c0 -10.667 -14.333 -24.334 -43 -41.001l-46 -25l-55 -24l-15 -8
c-2.66699 -2 -5 -5.66699 -7 -11l3 -13z" />
    <glyph glyph-name="W" unicode="W" horiz-adv-x="907" 
d="M59 716l231.999 -0.00292969c23.333 0 41.5 -3.16699 54.5 -9.5s19.5 -17.166 19.5 -32.499l-3 -11l-3 -12c0 -5.33301 1.66699 -10.666 5 -15.999h-9l-13 -2l-16 -2c-12 0 -22 6 -30 18c-6.66699 12 -13.334 18.333 -20.001 19h-34c-11.333 0 -17 -10 -17 -30
c0 -68.667 10.333 -159 31 -271c7.33301 -42.667 15.5 -79.167 24.5 -109.5s19.5 -54.833 31.5 -73.5c24 32 47.333 80 70 144s34 122.333 34 175l-84 10l-40 6c-14.667 2 -26.667 5.33301 -36 10l-3 45c28 -7.33301 63.5 -13.333 106.5 -18s82.5 -7 118.5 -7l72 1l57 7
c42.667 5.33301 85.334 13.666 128.001 24.999l-6 -48l-93 -21c-13.333 -2.66699 -27.333 -5 -42 -7s-27.334 -3 -38.001 -3c0 -54 8 -109.333 24 -166s39 -105.667 69 -147c33.333 55.333 60.333 127.333 81 216c9.33301 40.667 16.333 79.167 21 115.5s7 73.5 7 111.5
l-2 27c-0.666992 4.66699 -4 8 -10 10h-78c-6.66699 0 -12.667 -7 -18 -21c-4 -13.333 -12.667 -20 -26 -20l-17 4l-17 -1c4 2.66699 6.66699 6.66699 8 12l-9 14c-6 7.33301 -9 15.666 -9 24.999c0 22 20.667 33 62 33h164c43.333 0 74 -5 92 -15c13.333 -8 20 -21 20 -39
c0 -16 -7.33301 -31.333 -22 -46c-14 -12 -32 -23 -54 -33l4 48l18 13c4 3.33301 6 7 6 11c0 3.33301 -3.33301 7 -10 11l-21 3c-7.33301 0 -11 -7.66699 -11 -23c0 -80.667 -13.667 -175.667 -41 -285c-22 -89.333 -49.167 -172.833 -81.5 -250.5
s-55.833 -116.5 -70.5 -116.5l-12 3l-9 3l-8 -3l-13 -3c-9.33301 0 -26 27 -50 81c-17.333 40.667 -36.666 91.334 -57.999 152.001l-33 106c-14 -44 -39.333 -106 -76 -186c-46 -102 -77 -153 -93 -153l-10 3l-9 3c-7.33301 -4 -14 -6 -20 -6c-18.667 0 -45 69.667 -79 209
s-58.667 287 -74 443c-0.666992 6.66699 -2.16699 11.5 -4.5 14.5s-7.16602 5.16699 -14.499 6.5c-17.333 0 -26 -4.66699 -26 -14c0 -4 3.33301 -8 10 -12l21 -10v-49l-30 16c-15.333 8.66699 -25.333 15.334 -30 20.001c-18.667 16.667 -28 36.334 -28 59.001
c0 11.333 6.33301 21 19 29c14.667 6.66699 31.667 10 51 10z" />
    <glyph glyph-name="X" unicode="X" horiz-adv-x="685" 
d="M408 383l171 -243.995c13.333 -18 33.333 -36 60 -54c46 -29.333 69 -47.666 69 -54.999c0 -12.667 -15.667 -23 -47 -31l-34 -5l-35 3l-40 3l-45 -3l-45 -3c-15.333 0 -32.666 3 -51.999 9c-24.667 8 -37 19 -37 33c0 6 10.667 15.667 32 29
c8.66699 5.33301 16.334 11.333 23.001 18c4 5.33301 6.66699 11.666 8 18.999c0 7.33301 -9.66699 27 -29 59l-38 59l-30 44l-24 34l-29 -28c-38 -36.667 -66.667 -67.334 -86 -92.001s-29 -42.667 -29 -54c0 -9.33301 20 -25 60 -47c40 -20 61 -35.667 63 -47
c0 -10 -12.333 -19.333 -37 -28l-25 -6l-26 -2l-31 3l-37 3l-34 -3l-25 -3c-13.333 0 -26 5 -38 15c-10.667 10.667 -16 23.667 -16 39c0 33.333 43.667 88.666 131 165.999l136 120l-143 205c-6.66699 11.333 -17.334 21.666 -32.001 30.999s-22.667 15.666 -24 18.999
c0 12 14 18 42 18c29.333 0 61.5 4 96.5 12s52.5 17.333 52.5 28c0 4 -6 8 -18 12c-13.333 3.33301 -27.666 5 -42.999 5h-57c-14.667 0 -25.334 -1.66699 -32.001 -5c-6.66699 -2 -11 -9 -13 -21l2 -17c-20.667 4.66699 -37.334 9.66699 -50.001 15
c-22.667 9.33301 -34 21.333 -34 36c0 13.333 5.16699 24 15.5 32s25.5 12 45.5 12l113 -3l113 3c27.333 0 47.5 -1.66699 60.5 -5s19.5 -11.333 19.5 -24c0 -14 -14.333 -30.333 -43 -49l-94 -49c0 -6.66699 10.667 -24.667 32 -54l85 -120l58 51l33 30l36 35
c23.333 25.333 35 45.666 35 60.999c0 24 -14 36 -42 36c-16.667 0 -42.667 -6.33301 -78 -19l-112 -39c-12 0 -18 4.33301 -18 13c0 4 2.33301 8.33301 7 13l26 11l85 36l86 40c56 26 96.667 39 122 39c30.667 0 46 -14 46 -42c0 -14.667 -8.5 -34.5 -25.5 -59.5
s-42.167 -54.5 -75.5 -88.5l-99 -93z" />
    <glyph glyph-name="Y" unicode="Y" horiz-adv-x="667" 
d="M284 293l-181 246c-7.33301 12 -18.666 21 -33.999 27c-16 7.33301 -24 13.333 -24 18c0 8 6.33301 14.333 19 19l141 49l15 5l5 3l3 4c0 4 -15 6 -45 6h-57c-12 0 -22.167 -0.666992 -30.5 -2s-15.166 -3 -20.499 -5c-13.333 -5.33301 -20 -13.333 -20 -24
c0 -6 3.33301 -12.667 10 -20c-32.667 0 -57.334 3.66699 -74.001 11c-20 9.33301 -30 24.666 -30 45.999c0 15.333 6.33301 25.833 19 31.5s29 8.5 49 8.5h260h33l20 -6c8.66699 -2 13 -9.33301 13 -22c0 -8.66699 -22.333 -22 -67 -40s-67 -30.667 -67 -38
c0 -2.66699 0.666992 -5.5 2 -8.5s4.33301 -7.5 9 -13.5l21 -30l133 -175c38.667 34 70 65.333 94 94c37.333 46.667 56 87.334 56 122.001c0 12 -3 21 -9 27l-11 6l-17 2c-13.333 0 -23.833 -0.5 -31.5 -1.5s-13.334 -1.83301 -17.001 -2.5s-10.834 -2.66699 -21.501 -6
l-52 -13l-65 -16l-26.5 -5c-7 -1.33301 -14.5 -2 -22.5 -2c-10.667 0 -16.334 4.33301 -17.001 13c2 5.33301 3.66699 8.66602 5 9.99902c4 3.33301 14 7.33301 30 12l173 57c74 24 117 36 129 36c17.333 0 33.166 -4.83301 47.499 -14.5s21.5 -23.834 21.5 -42.501
c0 -33.333 -32 -88.666 -96 -165.999c-26 -30.667 -52 -59 -78 -85c-22 -22 -44 -41 -66 -57v-242c0 -6.66699 16 -19.5 48 -38.5s48 -33.833 48 -44.5c0 -7.33301 -9.33301 -15 -28 -23l-44 -9l-25 1l-63 5l-52 -3l-36 -3c-7.33301 0 -13.166 0.5 -17.499 1.5
s-12.166 3.16699 -23.499 6.5c-19.333 6.66699 -29.666 14.667 -30.999 24c0 9.33301 16 23.333 48 42s48 32.334 48 41.001v184z" />
    <glyph glyph-name="Z" unicode="Z" horiz-adv-x="685" 
d="M67 132l362.001 478l14 20c4 6.66699 6.33301 13.334 7 20.001c0 8 -3.33301 13.333 -10 16l-27 4h-203c-14 -2 -24.667 -5.66699 -32 -11s-11 -14.333 -11 -27c0 -15.333 18.333 -38 55 -68c37.333 -28 56 -50.333 56 -67c0 -8 -13.167 -25 -39.5 -51
s-39.5 -48 -39.5 -66c-32 0 -48 14.333 -48 43c0 10 2 23.667 6 41l11 46c0 20.667 -26.5 47 -79.5 79s-79.5 57.667 -79.5 77c0 21.333 19 35 57 41s122.333 9 253 9c122.667 0 202.5 -3.16699 239.5 -9.5s55.5 -18.166 55.5 -35.499c0 -5.33301 -2.5 -13 -7.5 -23
s-15.5 -25.667 -31.5 -47l-310 -404l-14 -19l-7 -22c0 -14.667 10 -22 30 -22h245c33.333 0 50.333 5.33301 51 16c0 16 -26.167 39.167 -78.5 69.5s-78.5 55.833 -78.5 76.5c0 18 12.167 37.167 36.5 57.5s36.5 38.166 36.5 53.499l-2 24c22 -12 38.333 -23.333 49 -34
c8.66699 -10.667 13 -23.334 13 -38.001l-5 -34l-6 -30c0 -10.667 25.167 -41.5 75.5 -92.5s75.5 -94.167 75.5 -129.5c0 -29.333 -13.667 -51 -41 -65c-22.667 -9.33301 -54.334 -14 -95.001 -14l-104 3l-66 3l-109 -3l-103 -3c-29.333 0 -58 4 -86 12
c-38 11.333 -57 27.333 -57 48c0 6 3.33301 15.667 10 29c2.66699 5.33301 7 12.833 13 22.5s12.333 18.5 19 26.5z" />
    <glyph glyph-name="bracketleft" unicode="[" horiz-adv-x="332" 
d="M96 -163v858.001c0 7.33301 2 14 6 20c4 4 9.66699 6.33301 17 7l57 -3l47 3h35c10 0 16 -4.33301 18 -13c0 -12 -6.66699 -21 -20 -27c-29.333 -13.333 -44 -32.333 -44 -57v-718c0 -24 10.667 -41 32 -51s32 -21 32 -33c0 -4.66699 -3.33301 -8.33398 -10 -11.001
l-43 -2l-47 3l-57 -3c-9.33301 0 -15.333 2.33301 -18 7z" />
    <glyph glyph-name="backslash" unicode="\" horiz-adv-x="500" 
d="M84 704l406.001 -647.001c3.33301 -6 5.66602 -14 6.99902 -24c0 -9.33301 -4 -18.666 -12 -27.999c-8.66699 -7.33301 -18.667 -11 -30 -11c-16 0 -28.667 6 -38 18l-406 647c-4 7.33301 -6.66699 15.333 -8 24c0 10 4 19 12 27s18 12 30 12c16 0 29 -6 39 -18z" />
    <glyph glyph-name="bracketright" unicode="]" horiz-adv-x="332" 
d="M236 695v-858.001c0 -10 -2 -17 -6 -21s-9.66699 -6 -17 -6l-57 3l-47 -3h-14l-28 2c-5.33301 0 -9 3.66699 -11 11c0 12 6.66699 21 20 27c29.333 13.333 44 32.333 44 57v718c0 24 -10.667 41 -32 51s-32 21 -32 33c0 4.66699 3.33301 8.33398 10 11.001l43 2l47 -3
l57 3c10 0 16.333 -2.33301 19 -7z" />
    <glyph glyph-name="asciicircum" unicode="^" horiz-adv-x="650" 
d="M328 569l273 -483h-545z" />
    <glyph glyph-name="underscore" unicode="_" horiz-adv-x="500" 
d="M500 -125h-500v50h500v-50z" />
    <glyph glyph-name="grave" unicode="`" horiz-adv-x="278" 
d="M14 694c0 8 5.66699 13 17 15l30 -2l28 2c10 0 19.667 -6 29 -18l18 -28l22 -30l26 -28c8 -8 12 -14.333 12 -19c0 -7.33301 -6 -11 -18 -11c-30.667 0 -65.667 14.833 -105 44.5s-59 54.5 -59 74.5z" />
    <glyph glyph-name="a" unicode="a" horiz-adv-x="593" 
d="M399 155l0.000976562 227c0 34 -9.66699 58.667 -29 74c-20.667 13.333 -47.667 20 -81 20c-32 0 -57.667 -2.83301 -77 -8.5s-29 -15.167 -29 -28.5c0 -10 5.66699 -16.333 17 -19l29 -3h14c4.66699 0 11.667 0.666992 21 2l26 3l43 4c13.333 0 24 -2 32 -6
s12 -12.667 12 -26c0 -16 -31.5 -40.167 -94.5 -72.5s-94.5 -68.833 -94.5 -109.5c0 -28 8 -48 24 -60s39.333 -18 70 -18c12.667 0 22.667 0.5 30 1.5s18.666 4.16699 33.999 9.5zM533.001 325l-0.00195312 -246.001l25 -18c12 -10 18 -18.667 18 -26
c0 -11.333 -12 -21.666 -36 -30.999c-12 -2.66699 -25.167 -5 -39.5 -7s-28.166 -3 -41.499 -3l-59 6c-26 4 -46.333 6 -61 6c-14 0 -35.833 -2 -65.5 -6s-52.5 -6 -68.5 -6c-48 0 -87.667 13.333 -119 40c-33.333 29.333 -50 67.333 -50 114c0 44.667 21 85 63 121
c31.333 25.333 82 53 152 83l26 9c8 4 12 8.33301 12 13c0 6 -4.66699 9 -14 9l-20 -1l-34 -6l-57 -7c-26.667 0 -49.667 6.33301 -69 19c-22.667 15.333 -34 35 -34 59c0 22 12.667 40.333 38 55c26.667 13.333 55.334 20 86.001 20l41 -2l36 -2l78 2l59 2
c55.333 0 93 -17.333 113 -52c14 -26 21 -74.333 21 -145z" />
    <glyph glyph-name="b" unicode="b" horiz-adv-x="593" 
d="M70 143l-0.00292969 469c0 12 -15 28.667 -45 50c-14 10 -21.333 20.333 -22 31c0 7.33301 3.83301 13 11.5 17s16.834 6 27.501 6h127c19.333 0 29 -8.33301 29 -25v-194c16 0 38.5 5.16699 67.5 15.5s51.833 15.5 68.5 15.5c66.667 0 122.334 -27.667 167.001 -83
c42 -53.333 63 -118.333 63 -195c0 -70 -17.5 -130.167 -52.5 -180.5s-84.167 -75.5 -147.5 -75.5l-46 2l-49 4l-30 -1l-60 -5c-39.333 0 -67.666 13 -84.999 39c-16 26 -24 62.667 -24 110zM197.997 427l0.000976562 -192c0 -34.667 3.33301 -59.667 10 -75
c7.33301 -13.333 24 -20 50 -20l47 2l50 -2c31.333 0 55.666 15 72.999 45c13.333 25.333 20 58 20 98c0 56 -11.167 100.167 -33.5 132.5s-53.166 48.5 -92.499 48.5c-10.667 0 -21.334 -1.66699 -32.001 -5l-11 -4l-18 -9l-31 -13c-11.333 -4 -22 -6 -32 -6z" />
    <glyph glyph-name="c" unicode="c" horiz-adv-x="519" 
d="M296 528c56.667 0 99.832 -9.33203 129.499 -27.999s44.5 -47 44.5 -85c0 -23.333 -9.16699 -43.166 -27.5 -59.499s-41.166 -24.5 -68.499 -24.5c-19.333 0 -36.666 6.66699 -51.999 20l-26 19c-8 0 -13 -3.66699 -15 -11c-10.667 5.33301 -16 14.333 -16 27
c0 8 3.66699 16.667 11 26c7.33301 5.33301 16.666 8.66602 27.999 9.99902l21 -1l17 -2c10 0 16 5 18 15c0 9.33301 -8.83301 18.666 -26.5 27.999s-34.834 14 -51.501 14c-46 0 -82 -16 -108 -48c-23.333 -32.667 -35 -74 -35 -124c0 -60 12.333 -102.667 37 -128
c28 -28 79.333 -42 154 -42c29.333 0 55.666 5 78.999 15c26.667 12 44.334 31.333 53.001 58c16.667 -2 30.667 -11.5 42 -28.5s17 -34.167 17 -51.5c0 -38 -12.667 -69.667 -38 -95c-12 -12 -25.667 -21.333 -41 -28s-31 -10 -47 -10l-61 3l-42 3l-31 -1l-61 -5
c-42 0 -81 23 -117 69s-54 102.667 -54 170c0 91.333 23.333 163.333 70 216s112.334 79 197.001 79z" />
    <glyph glyph-name="d" unicode="d" horiz-adv-x="593" 
d="M398 188v237.999c-9.33301 2 -26 9.83301 -50 23.5s-48 20.5 -72 20.5c-42 0 -74.667 -20.667 -98 -62c-18 -33.333 -27 -72.666 -27 -117.999c0 -42.667 10.667 -78.667 32 -108c18 -24 36.333 -36 55 -36l59 3l49 -3c15.333 0 27.833 4 37.5 12s14.5 18 14.5 30z
M398 487.999l0.000976562 135.001c0 8.66699 -16.667 22.334 -50 41.001c-14 8 -22 17.667 -24 29c0 15.333 9.33301 23 28 23h137c12 0 21.167 -2.83301 27.5 -8.5s9.5 -15.834 9.5 -30.501v-589l37 -22c17.333 -11.333 27 -21.333 29 -30c0 -8 -7.33301 -16.333 -22 -25
l-27 -8l-37 -3h-30h-22l-19 2h-38l-29 4c-11.333 0 -30.333 -2 -57 -6s-46.334 -6 -59.001 -6c-72 0 -128.333 26.667 -169 80c-36 49.333 -54 112.333 -54 189c0 67.333 18.667 127.666 56 180.999c42 60 95.667 90 161 90c30.667 0 58 -5.33301 82 -16z" />
    <glyph glyph-name="e" unicode="e" horiz-adv-x="555" 
d="M254 522l148.001 -0.000976562c30 0 54 -4 72 -12c26.667 -12 40 -31.667 40 -59c0 -38 -25 -73 -75 -105l-143 -75c-53.333 -32 -82.666 -68 -87.999 -108c16 -9.33301 35 -16.666 57 -21.999c9.33301 -2 19.166 -3.66699 29.499 -5s22.166 -2 35.499 -2
c29.333 0 55.666 5 78.999 15c26.667 12 44.334 31.333 53.001 58c16.667 -2 30.667 -11.5 42 -28.5s17 -34.167 17 -51.5c0 -38 -12.667 -69.667 -38 -95c-12 -12 -25.667 -21.333 -41 -28s-31 -10 -47 -10l-61 3l-42 3l-31 -1l-61 -5c-42 0 -81 23 -117 69
s-54 102.667 -54 170c0 78 17.333 143.333 52 196c41.333 62 99 93 173 93zM386.001 417.999c0 18.667 -8.66699 32.335 -26 41.002c-18.667 7.33301 -43.667 11 -75 11c-42 0 -74.667 -9.33301 -98 -28c-32 -26 -48 -71.333 -48 -136v-26
c0 -6.66699 1.16699 -18.334 3.5 -35.001s8.5 -31.667 18.5 -45c16 49.333 71.667 99.666 167 150.999c38.667 20.667 58 43 58 67z" />
    <glyph glyph-name="f" unicode="f" horiz-adv-x="333" 
d="M226 449l0.000976562 -364.002l9 -8l31 -23c12 -7.33301 18 -14.666 18 -21.999c0 -6 -9 -14 -27 -24c-18.667 -7.33301 -33.334 -11 -44.001 -11l-51 3l-47 -3c-18 0 -34.5 3.83301 -49.5 11.5s-23.5 15.5 -25.5 23.5c0 8 9.33301 17.5 28 28.5s28.667 19.167 30 24.5
v361c0 10 -15 23.333 -45 40s-45 30 -45 40c0 13.333 8 20 24 20h45l-43 42c-13.333 17.333 -20 37.333 -20 60c0 26.667 11 48 33 64c21.333 13.333 47.333 20 78 20c10.667 0 21 -0.833008 31 -2.5s20.333 -3.5 31 -5.5l35 -6l28 -2l32 3c8.66699 0 17.667 4.33301 27 13
l16 -28c4 -11.333 6 -21 6 -29c0 -22 -12.333 -42.333 -37 -61c-24.667 -17.333 -49.667 -26 -75 -26c-9.33301 0 -16.166 0.5 -20.499 1.5s-10.5 3.16699 -18.5 6.5l-26 8c-12 0 -19.333 -0.5 -22 -1.5s-4.33398 -4.5 -5.00098 -10.5c0 -5.33301 3 -13 9 -23l19 -23h36
c79.333 0 119 -10.333 119 -31c0 -7.33301 -9 -17.666 -27 -30.999z" />
    <glyph glyph-name="g" unicode="g" horiz-adv-x="574" 
d="M506 458l0.00195312 -313l3 -37l10 -37l9 -34l3 -39c0 -52 -17.833 -94 -53.5 -126s-77.167 -48 -124.5 -48l-52 1l-40 2l-51 -1l-35 -2c-47.333 0 -82 5 -104 15c-24.667 12.667 -37 34.667 -37 66c0 8 2 17.667 6 29l6 17c0 8 -1.66699 14 -5 18
c2 2 7.66699 3.33301 17 4c33.333 0 65.666 -14.667 96.999 -44s69 -44 113 -44c47.333 0 81.666 8.16699 102.999 24.5s32 40.5 32 72.5l-2 39c-15.333 -18 -38 -27 -68 -27l-30 3l-33 3l-33 -3l-33 -3c-56 0 -100 28 -132 84c-25.333 45.333 -38 96.666 -38 153.999
c0 90.667 23.5 162.667 70.5 216s115.5 80 205.5 80l91 -3l114 -3c20 0 30 -6.33301 30 -19c0 -7.33301 -3.33301 -14.666 -10 -21.999zM384.002 215l0.000976562 163.999c0 28 -9 50.667 -27 68c-19.333 15.333 -42 23 -68 23c-46 0 -81 -19 -105 -57
c-18.667 -33.333 -28 -74.666 -28 -123.999c0 -57.333 9.33301 -98.666 28 -123.999c15.333 -20.667 36.666 -31 63.999 -31l19 2l19 2l22 -2l25 -2c12 0 23.667 7.66699 35 23c10.667 17.333 16 36.666 16 57.999z" />
    <glyph glyph-name="h" unicode="h" horiz-adv-x="574" 
d="M71 85l-0.00195312 570.998l-24 9l-18 9c-8.66699 6 -14 13 -16 21c0 14 15.667 21 47 21h145c16.667 0 29 -1.16699 37 -3.5s13 -8.16602 15 -17.499c0 -6 -5.33301 -13.333 -16 -22c-2.66699 -1.33301 -8.66699 -4 -18 -8s-17.333 -7 -24 -9v-197l93 46
c24.667 11.333 50.667 17 78 17c46 0 80.333 -12.333 103 -37c20 -22 30 -52.333 30 -91v-309l9 -8l31 -23c12 -7.33301 18 -14.666 18 -21.999c0 -6 -8.83301 -13.333 -26.5 -22s-32.5 -13 -44.5 -13l-51 3l-47 -3c-8 0 -15.5 0.666992 -22.5 2s-15.833 4.33301 -26.5 9
c-16 8 -24.667 16 -26 24c0 8 9.33301 17.5 28 28.5s28.667 19.167 30 24.5v285c0 18 -6 33.667 -18 47c-13.333 11.333 -27.666 17 -42.999 17c-8.66699 0 -20 -2 -34 -6c-32 -10 -59 -15 -81 -15v-328l9 -8l31 -24c12 -7.33301 18 -14.333 18 -21
c0 -6 -8.83301 -13.333 -26.5 -22s-32.5 -13 -44.5 -13l-51 3l-47 -3c-17.333 0 -33.666 3.66699 -48.999 11s-24 15.333 -26 24c0 7.33301 9.33301 17 28 29c18 10 28 18 30 24z" />
    <glyph glyph-name="i" unicode="i" horiz-adv-x="296" 
d="M84 85l-0.000976562 376.999l-24 9l-18 9c-9.33301 6 -14.666 13 -15.999 21c0 14 15.667 21 47 21h145c18.667 0 31.667 -1.66699 39 -5c8.66699 -2 13 -7.33301 13 -16c0 -6 -5.33301 -13.333 -16 -22c-4.66699 -2.66699 -10.5 -5.5 -17.5 -8.5
s-15.167 -5.83301 -24.5 -8.5v-377l9 -8l31 -23c12 -7.33301 18 -14.666 18 -21.999c0 -6 -8.83301 -13.333 -26.5 -22s-32.5 -13 -44.5 -13l-51 3l-47 -3c-8 0 -15.5 0.666992 -22.5 2s-15.833 4.33301 -26.5 9c-16 8 -24.667 16 -26 24c0 8 9.33301 17.5 28 28.5
s28.667 19.167 30 24.5zM147.999 591.999l-30.001 1.00098c-5.33301 0 -11.666 2.33301 -18.999 7c-16 7.33301 -24 19.666 -24 36.999s7.16699 29.833 21.5 37.5s31.833 11.5 52.5 11.5c22.667 0 39 -2.66699 49 -8c15.333 -8 23 -21.333 23 -40
c0 -18 -6.33301 -30.167 -19 -36.5s-30.667 -9.5 -54 -9.5z" />
    <glyph glyph-name="j" unicode="j" horiz-adv-x="296" 
d="M84 16l-0.000976562 421.999c0 13.333 -8 25 -24 35c-14 7.33301 -22 16.666 -24 27.999c0 14 11.333 21 34 21h155c23.333 0 35 -7 35 -21c0 -10 -8 -19.667 -24 -29s-24 -22.333 -24 -39v-389c0 -9.33301 5 -23.666 15 -42.999c9.33301 -20.667 14 -41.667 14 -63
c0 -39.333 -13.667 -69.666 -41 -90.999c-30.667 -24.667 -74.334 -37 -131.001 -37c-49.333 0 -88.666 9.16699 -117.999 27.5s-44 45.833 -44 82.5c0 20 8 39.333 24 58s36 28 60 28c20 0 36 -6.33301 48 -19l30 -42l10 3c3.33301 -1.33301 6 -7.33301 8 -18
c0 -9.33301 -3.83301 -17.833 -11.5 -25.5s-17.5 -11.5 -29.5 -11.5c-11.333 0 -20.166 3.66699 -26.499 11s-11.833 12 -16.5 14c-3.33301 0 -6 -4.33301 -8 -13c0 -13.333 7.33301 -23.333 22 -30c14 -4.66699 27 -7 39 -7c28 0 47.667 5.66699 59 17
c5.33301 6 9.33301 12.333 12 19s4 15 4 25c0 12.667 -4.66699 25.667 -14 39zM148.999 685.999c22.667 0 38.999 -2.66602 48.999 -7.99902c15.333 -8 23 -21.333 23 -40c0 -18 -6.33301 -30.167 -19 -36.5s-30.667 -9.5 -54 -9.5l-30 1
c-5.33301 0 -11.666 2.33301 -18.999 7c-16 7.33301 -24 19.666 -24 36.999s7.16699 29.833 21.5 37.5s31.833 11.5 52.5 11.5z" />
    <glyph glyph-name="k" unicode="k" horiz-adv-x="611" 
d="M71 95v557l-37 18c-13.333 8 -20.333 16.333 -21 25c0 14 15.667 21 47 21h151c16.667 0 29.334 -1.66699 38.001 -5c8.66699 -2 13.334 -7.33301 14.001 -16c0 -7.33301 -6.66699 -15.333 -20 -24l-38 -19v-187l47 24l41 18c24 10 53.333 15 88 15
c46.667 0 84 -8.66699 112 -26c32.667 -20.667 49 -48.334 49 -83.001c0 -34 -21.667 -59.333 -65 -76c-30 -10.667 -62.667 -16 -98 -16h-17c-8 0 -14.333 0.666992 -19 2l-18 3l-5 -4l8 -5l19 -10l97 -37c34 -12 58.333 -34.333 73 -67
c7.33301 -20 14.666 -59.333 21.999 -118l26 -14l25 -16c15.333 -12 23.333 -21 24 -27c0 -6.66699 -7.33301 -14 -22 -22c-15.333 -6 -32.333 -9 -51 -9l-50 3l-58 -3c-10.667 0 -20.334 6.66699 -29.001 20c-7.33301 13.333 -11 29.333 -11 48
c0 64.667 -6.66699 110.667 -20 138c-12 28.667 -31.333 50.334 -58 65.001l-50 27c-22 13.333 -33 27.333 -33 42c0 11.333 3.16699 20.5 9.5 27.5s18.166 10.5 35.499 10.5l36 -4l45 -4c20.667 0 33.667 3.66699 39 11l8 14c2 5.33301 3 12 3 20
c0 10.667 -6.16699 20 -18.5 28s-28.166 12 -47.499 12s-37.666 -3.33301 -54.999 -10l-82 -33v-324l37 -27c14 -11.333 21 -20 21 -26s-9 -14 -27 -24c-18.667 -7.33301 -33.334 -11 -44.001 -11l-58 3l-46 -3c-17.333 0 -33.666 3.66699 -48.999 11s-24 15.333 -26 24
c0 10 13 23 39 39c11.333 8 17.666 16 18.999 24z" />
    <glyph glyph-name="l" unicode="l" horiz-adv-x="296" 
d="M84 85v554.999c0 12 -8.16699 22.167 -24.5 30.5s-24.833 16.833 -25.5 25.5c0 13.333 7.66699 20 23 20h124c12.667 0 20.5 -1.16699 23.5 -3.5s5.5 -8.83301 7.5 -19.5v-608l9 -8l31 -23c12 -7.33301 18 -14.666 18 -21.999c0 -6 -8.83301 -13.333 -26.5 -22
s-32.5 -13 -44.5 -13l-51 3l-47 -3c-8 0 -15.5 0.666992 -22.5 2s-15.833 4.33301 -26.5 9c-16 8 -24.667 16 -26 24c0 8 9.33301 17.5 28 28.5s28.667 19.167 30 24.5z" />
    <glyph glyph-name="m" unicode="m" horiz-adv-x="870" 
d="M71 85l-0.000976562 349.998c0 13.333 -11.667 27.666 -35 42.999c-9.33301 5.33301 -15 13 -17 23c0 8 3 13.667 9 17l28 4h162c22.667 0 34.334 -5.33301 35.001 -16c0 -8 -8.5 -18.167 -25.5 -30.5s-26.5 -22.166 -28.5 -29.499v-12c15.333 4 32.666 12 51.999 24
l42 29c5.33301 4 12.666 8.5 21.999 13.5l24 12.5c15.333 6 35.333 9 60 9c28 0 51.667 -7.16699 71 -21.5s29 -36.5 29 -66.5c15.333 4 32.666 12 51.999 24l42 29c5.33301 4 12.666 8.5 21.999 13.5l24 12.5c15.333 6 35.333 9 60 9c28 0 51.667 -7.16699 71 -21.5
s29 -36.5 29 -66.5v-349l9 -8l31 -23c12 -7.33301 18 -14.666 18 -21.999c0 -6 -8.83301 -13.333 -26.5 -22s-32.5 -13 -44.5 -13l-51 3l-47 -3c-16.667 0 -33.334 3.66699 -50.001 11c-15.333 8 -23.666 16 -24.999 24c0 8 9.33301 17.5 28 28.5s28.667 19.167 30 24.5v294
c0 10.667 -4 21 -12 31c-9.33301 8 -21 12 -35 12c-15.333 0 -36.666 -5.66699 -63.999 -17s-47.666 -17 -60.999 -17v-303l9 -8l31 -23c12 -7.33301 18 -14.666 18 -21.999c0 -6 -9 -14 -27 -24c-18.667 -7.33301 -33.334 -11 -44.001 -11l-51 3l-47 -3
c-8 0 -15.5 0.666992 -22.5 2s-15.833 4.33301 -26.5 9c-16 8 -24.667 16 -26 24c0 8 9.33301 17.5 28 28.5s28.667 19.167 30 24.5v294c0 10.667 -4.16699 20.5 -12.5 29.5s-19.833 13.5 -34.5 13.5c-15.333 0 -36.666 -5.66699 -63.999 -17s-47.666 -17 -60.999 -17v-303
l9 -8l31 -24c12 -7.33301 18 -14.333 18 -21c0 -6 -8.83301 -13.333 -26.5 -22s-32.5 -13 -44.5 -13l-51 3l-47 -3c-17.333 0 -33.666 3.66699 -48.999 11s-24 15.333 -26 24c0 7.33301 9.33301 17 28 29c18 10 28 18 30 24z" />
    <glyph glyph-name="n" unicode="n" horiz-adv-x="574" 
d="M56 522l161.999 -0.000976562c22.667 0 34.334 -5.33301 35.001 -16c0 -8 -8.5 -18.167 -25.5 -30.5s-26.5 -22.166 -28.5 -29.499v-12c21.333 4 46.666 21 75.999 51c24.667 24.667 56.334 37 95.001 37c46 0 80.333 -12.333 103 -37c20 -22 30 -52.333 30 -91v-309
l9 -8l31 -23c12 -7.33301 18 -14.666 18 -21.999c0 -6 -8.83301 -13.333 -26.5 -22s-32.5 -13 -44.5 -13l-51 3l-47 -3c-8 0 -15.5 0.666992 -22.5 2s-15.833 4.33301 -26.5 9c-16 8 -24.667 16 -26 24c0 8 9.33301 17.5 28 28.5s28.667 19.167 30 24.5v282
c0 16.667 -4.66699 29.667 -14 39c-8.66699 10.667 -20.334 16 -35.001 16c-26.667 0 -55 -8.66699 -85 -26c-16.667 -9.33301 -30.667 -14 -42 -14v-297l9 -8l31 -24c12 -7.33301 18 -14.333 18 -21c0 -6 -8.83301 -13.333 -26.5 -22s-32.5 -13 -44.5 -13l-51 3l-47 -3
c-17.333 0 -33.666 3.66699 -48.999 11s-24 15.333 -26 24c0 7.33301 9.33301 17 28 29c18 10 28 18 30 24v350c0 13.333 -11.667 27.666 -35 42.999c-9.33301 5.33301 -15 13 -17 23c0 8 3 13.667 9 17z" />
    <glyph glyph-name="o" unicode="o" horiz-adv-x="556" 
d="M145 318c0 -44 11.168 -80.666 33.501 -109.999s52.166 -44 89.499 -44c50 0 87.667 16 113 48c20 27.333 30 66.666 30 117.999c0 23.333 -2.33301 43.5 -7 60.5s-13 33.167 -25 48.5c-21.333 28.667 -52.333 43 -93 43c-46 0 -81 -15.167 -105 -45.5
s-36 -69.833 -36 -118.5zM29.001 268.001c0 82.667 21 147.667 63 195s104.333 71 187 71c78 0 138.833 -24.167 182.5 -72.5s65.5 -112.833 65.5 -193.5c0 -76.667 -19.333 -141.5 -58 -194.5s-84.667 -79.5 -138 -79.5l-27 3l-25 3l-26 -3l-22 -3
c-56 0 -103.667 27 -143 81s-59 118.333 -59 193z" />
    <glyph glyph-name="p" unicode="p" horiz-adv-x="593" 
d="M76 -102v535.997c0 8 -8.33301 19 -25 33c-17.333 12.667 -26.666 23.667 -27.999 33c0 7.33301 2.5 12.333 7.5 15s12.833 5 23.5 7h158c18 0 27 -7.66699 27 -23l-4 -5l-14 -14c-12 -10 -18.333 -19.333 -19 -28v-12c30 28 53 47 69 57c26 16.667 55 25 87 25
c58 0 105.667 -26 143 -78c33.333 -48.667 50 -109 50 -181c0 -71.333 -18.667 -133.666 -56 -186.999c-42.667 -58.667 -97.667 -88 -165 -88c-40 0 -72 11 -96 33s-36 48.333 -36 79c0 14.667 3 29 9 43l18 39c0 7.33301 -2.66699 14 -8 20l20 2
c25.333 0 42.833 -12.667 52.5 -38s24.5 -38 44.5 -38c37.333 0 67 17 89 51c18.667 32 28 68 28 108c0 22.667 -2 42.834 -6 60.501s-10.667 33.834 -20 48.501c-21.333 33.333 -54.333 50 -99 50c-16 0 -40.333 -8 -73 -24s-49 -29.667 -49 -41v-208l-13 -18l-6 -14
c-5.33301 -14.667 -8 -29.667 -8 -45l1 -22l7 -17l7 -17l12 -16v-126c0.666992 -2 1.66699 -4 3 -6s3.33301 -4.33301 6 -7l20 -11l22 -14c3.33301 -3.33301 5.66602 -8.33301 6.99902 -15c0 -6 -8.83301 -13.333 -26.5 -22s-32.5 -13 -44.5 -13l-51 3l-47 -3
c-15.333 0 -31.166 3.5 -47.499 10.5s-25.5 15.167 -27.5 24.5c0 5.33301 6 13 18 23c13.333 8 24.666 16.333 33.999 25z" />
    <glyph glyph-name="q" unicode="q" horiz-adv-x="593" 
d="M519 429l-0.00195312 -489.001c10 4 21.333 6 34 6c12 0 21.167 -3.66699 27.5 -11s9.5 -16.666 9.5 -27.999c0 -7.33301 -0.333008 -12.5 -1 -15.5s-3 -8.5 -7 -16.5l-15 7c-9.33301 0 -24.666 -13 -45.999 -39c-19.333 -26 -40.666 -39 -63.999 -39
c-14.667 0 -27 3.66699 -37 11c-16 13.333 -24 36.333 -24 69v122c-14.667 -7.33301 -34 -14.666 -58 -21.999l-32 -6l-36 -2c-71.333 0 -127.333 24 -168 72s-61 112 -61 192c0 35.333 4 68.333 12 99s20.667 60 38 88c39.333 63.333 92 95 158 95c26 0 50.667 -8 74 -24
c34 -24 57 -39 69 -45c0 6.66699 -4 14 -12 22c-18.667 14.667 -28 25.667 -28 33c0 3.33301 3 7 9 11c6 2 14.333 3 25 3h156c22 0 33 -7.33301 33 -22c0 -8.66699 -9.33301 -17.334 -28 -26.001c-18.667 -6 -28 -21 -28 -45zM390.998 170.999v239.002c-14 0 -33 7 -57 21
s-46.333 21 -67 21c-39.333 0 -69.333 -19.333 -90 -58c-17.333 -32.667 -26 -75.334 -26 -128.001c0 -40.667 12.833 -75.834 38.5 -105.501s57.167 -44.5 94.5 -44.5c20 0 38.667 4.5 56 13.5s34.333 22.833 51 41.5z" />
    <glyph glyph-name="r" unicode="r" horiz-adv-x="426" 
d="M71 85l-0.00292969 350c0 13.333 -11.667 27.666 -35 42.999c-9.33301 5.33301 -15 13 -17 23c0 8 3 13.667 9 17l28 4h160c11.333 0 20.333 -1 27 -3s10 -8 10 -18c0 -5.33301 -9 -14.666 -27 -27.999c-16.667 -10.667 -25.667 -19.667 -27 -27v-12l83 63
c20.667 16.667 40.334 25 59.001 25c26.667 0 48.667 -9.66699 66 -29c18 -18 27 -42.667 27 -74c0 -42 -11.667 -75.667 -35 -101l-77 -47l2 -7l-10 -2c-8 0 -15.333 2.66699 -22 8s-10 13.333 -10 24c0 7.33301 4 19 12 35s12 30 12 42c0 10.667 -2.66699 19.167 -8 25.5
s-14 9.5 -26 9.5c-7.33301 0 -19.666 -3.33301 -36.999 -10l-36 -11v-300l9 -8l31 -24c12 -7.33301 18 -14.333 18 -21c0 -6 -8.83301 -13.333 -26.5 -22s-32.5 -13 -44.5 -13l-51 3l-47 -3c-17.333 0 -33.666 3.66699 -48.999 11s-24 15.333 -26 24
c0 7.33301 9.33301 17 28 29c18 10 28 18 30 24z" />
    <glyph glyph-name="s" unicode="s" horiz-adv-x="556" 
d="M206 522l197.999 -0.00195312c31.333 0 54 -5 68 -15s21 -23.333 21 -40c0 -13.333 -4.16699 -24.166 -12.5 -32.499s-20.833 -12.5 -37.5 -12.5c-15.333 0 -27 2.33301 -35 7s-13 12.667 -15 24c0 11.333 -7 17 -21 17h-103c-22.667 0 -38.667 -2.33301 -48 -7
c-10.667 -4 -16 -11.667 -16 -23s28 -28 84 -50c72.667 -25.333 124.667 -50 156 -74c56 -42 84 -93.333 84 -154c0 -52 -13.833 -93 -41.5 -123s-59.167 -45 -94.5 -45l-66 4l-60 4l-55 -4l-63 -4c-31.333 0 -59 9 -83 27c-26 21.333 -39 49.333 -39 84
c0 23.333 7.33301 45.333 22 66s22 37 22 49c0 8 -2.66699 16.333 -8 25c13.333 4 28.666 6 45.999 6c19.333 0 35.833 -6.66699 49.5 -20s20.5 -31.333 20.5 -54c0 -18 7.33301 -31 22 -39c16.667 -6.66699 40.334 -10 71.001 -10c30 0 55 5 75 15s30 26 30 48
c0 32.667 -46.667 71.334 -140 116.001c-65.333 30 -112.666 55.333 -141.999 76c-12 8.66699 -22.333 18.667 -31 30c-7.33301 11.333 -11 23.333 -11 36c0 48.667 51 73 153 73z" />
    <glyph glyph-name="t" unicode="t" horiz-adv-x="315" 
d="M71 85l-0.00195312 357.002l-6 5l-19 13c-15.333 7.33301 -24 16.333 -26 27c0 8 5.33301 13.333 16 16l33 3v29c0 14.667 -5.5 24.667 -16.5 30s-17.167 11.666 -18.5 18.999c0.666992 2 1.66699 4 3 6s3.33301 4.33301 6 7l34 18l26.5 12.5
c5 2.33301 12.5 6.83301 22.5 13.5c16 9.33301 32.333 20.666 49 33.999c8.66699 6.66699 16.667 11.334 24 14.001c10 0 15 -4.66699 15 -14c-1.33301 -6.66699 -2.66602 -10.667 -3.99902 -12c-7.33301 -14.667 -11 -28 -11 -40v-124c9.33301 0 23.666 2 42.999 6l34 5
c12.667 0 23.334 -2.66699 32.001 -8c8.66699 -6.66699 13 -15.334 13 -26.001c0 -6.66699 -0.5 -12 -1.5 -16s-3.16699 -10.667 -6.5 -20c-6 -14 -9 -25.333 -9 -34c0 -19.333 5.66699 -33.666 17 -42.999c-4.66699 -8 -11 -13.667 -19 -17l-17 -4l-13 -1
c-14 0 -25.833 5.16699 -35.5 15.5s-14.5 26.166 -14.5 47.499l2 16l2 13c0 4 -3.33301 6 -10 6l-17 -3v-351l9 -8l31 -24c12 -7.33301 18 -14.333 18 -21c0 -6 -8.83301 -13.333 -26.5 -22s-32.5 -13 -44.5 -13l-51 3l-47 -3c-17.333 0 -33.666 3.66699 -48.999 11
s-24 15.333 -26 24c0 7.33301 9.33301 17 28 29c18 10 28 18 30 24z" />
    <glyph glyph-name="u" unicode="u" horiz-adv-x="574" 
d="M71 131l-0.000976562 317.002c0 10 -9.66699 20 -29 30s-29 19 -29 27c0 4 2.5 7.83301 7.5 11.5s13.833 5.5 26.5 5.5h122c12 0 20.333 -4.33301 25 -13l5 -25v-310c0 -38.667 16.333 -58 49 -58c16 0 42 6.66699 78 20c18.667 6.66699 35 10 49 10v302
c0 5.33301 -9 15 -27 29c-18.667 11.333 -28 20.666 -28 27.999c0 5.33301 2.66699 9.5 8 12.5s14 4.5 26 4.5h172c23.333 0 35 -5.66699 35 -17c0 -8 -9.66699 -17.667 -29 -29c-18 -9.33301 -27.667 -18.666 -29 -27.999v-361c0 -12 11.667 -26.333 35 -43
c10.667 -6.66699 16.334 -14.334 17.001 -23.001c0 -8.66699 -2.83301 -14.334 -8.5 -17.001s-15.167 -4 -28.5 -4h-162c-22.667 -0 -34.334 5.33301 -35.001 16c0 8 12 21.667 36 41c12 8 18 15.667 18 23v8c-21.333 -4.66699 -48.666 -21.667 -81.999 -51
c-28.667 -24.667 -60.667 -37 -96 -37c-42 -0 -73.5 10.333 -94.5 31s-31.5 54 -31.5 100z" />
    <glyph glyph-name="v" unicode="v" horiz-adv-x="556" 
d="M19 522l162.998 0.000976562l27 -3c6 -2 9 -6.66699 9 -14c0 -4 -5.66699 -11.667 -17 -23c-11.333 -10 -17 -23 -17 -39c0 -28 21.5 -87.5 64.5 -178.5s72.833 -136.5 89.5 -136.5c6 0 10.667 1.16699 14 3.5s7.33301 7.83301 12 16.5
c13.333 27.333 29.5 71.833 48.5 133.5s28.5 108.834 28.5 141.501c0 18 -5.33301 30.333 -16 37s-26.667 10 -48 10c-35.333 0 -53.666 -4 -54.999 -12l6 -19l4 -13c0 -16.667 -9 -25 -27 -25c-13.333 0 -22.666 2.66699 -27.999 8c4 4 6.33301 8.33301 7 13l-6 6l-20 17
c-16 11.333 -24.667 22.666 -26 33.999c0 12.667 5.16699 23 15.5 31s24.166 12 41.499 12h156c28.667 0 50.834 -3.83301 66.501 -11.5s23.5 -21.834 23.5 -42.501c0 -28 -17 -82 -51 -162c-28 -68 -61.833 -137 -101.5 -207s-65.167 -105 -76.5 -105
c-4.66699 0 -9 1.66699 -13 5l-10 5l-5 2l-14 -6c-7.33301 -4 -13 -6 -17 -6c-9.33301 0 -19.333 13.333 -30 40l-136 330l-17 40c-5.33301 12.667 -11 23.334 -17 32.001c-4.66699 9.33301 -11 17.666 -19 24.999c-6 8 -13 15 -21 21l-15 11c-4 2 -6.33301 5.33301 -7 10
c0 6.66699 1.66699 11 5 13s13 4 29 6z" />
    <glyph glyph-name="w" unicode="w" horiz-adv-x="704" 
d="M204 22l-135.002 399.997c-8 24 -24.667 44.333 -50 61c-10 6 -15 12.333 -15 19c0 6 2 10.667 6 14l27 6h159c28 0 42 -6.33301 42 -19l-6 -8l-21 -23c-6.66699 -7.33301 -11 -16.666 -13 -27.999l2 -20l91 -261l104 266c2 6.66699 7.66699 11 17 13
c7.33301 0 13 -4.33301 17 -13l92 -276l70 193c10 29.333 15 54 15 74c0 18.667 -2.5 31.334 -7.5 38.001s-12 11.334 -21 14.001s-21.833 4 -38.5 4h-176c-18.667 0 -28.334 -3.66699 -29.001 -11l7 -15l4 -16c0 -15.333 -4.33301 -27.333 -13 -36s-20.667 -13 -36 -13
c-9.33301 0 -17.5 3.16699 -24.5 9.5s-11.5 14.833 -13.5 25.5l6 -1c7.33301 0 11 5.33301 11 16c0 5.33301 -1.66699 11.666 -5 18.999c-8 16 -12 28.333 -12 37c0 10.667 5 18.667 15 24c12 4.66699 27.333 7 46 7h335c12.667 0 23.334 -2.5 32.001 -7.5
s13.334 -12.833 14.001 -23.5c0 -10.667 -7.33301 -36 -22 -76l-145 -393l-6 -16c-4 -8 -9.33301 -12 -16 -12l-5 2l-7 5c-2 2.66699 -5.66699 4.33398 -11 5.00098l-10 -6c-5.33301 -4 -10 -6 -14 -6c-4.66699 0 -9.33398 2.33301 -14.001 7l-9 21l-62 186l-75 -186l-7 -15
c-4 -8 -10.667 -12.333 -20 -13l-11 6c-5.33301 4 -9.66602 6 -12.999 6l-11 -6c-5.33301 -4 -9.66602 -6 -12.999 -6c-6 0 -11.333 2.66699 -16 8z" />
    <glyph glyph-name="x" unicode="x" horiz-adv-x="574" 
d="M70 99l152.002 152.998l-125 172c-14.667 17.333 -32.334 32 -53.001 44l-15 10c-5.33301 4.66699 -9 11 -11 19c0 6.66699 5 13 15 19c10 4 21.333 6 34 6h199c16 0 27.833 -1.16699 35.5 -3.5s11.5 -7.5 11.5 -15.5l-6 -16l79 23c32 8 57.333 12 76 12
c31.333 0 47 -7.66699 47 -23c0 -7.33301 -10.667 -20.666 -32 -39.999c-10 -8.66699 -24.667 -23 -44 -43l-36 -39l-67 -77l104 -134l44 -54c18.667 -20.667 36 -36.334 52 -47.001l36 -25c6 -6 9.66699 -12 11 -18c0 -7.33301 -7.33301 -13.833 -22 -19.5
s-28.334 -8.5 -41.001 -8.5l-23 1l-47 5l-37 -3l-35 -3l-24 1c-6 0 -13.333 1.66699 -22 5c-8.66699 2 -13.334 6.66699 -14.001 14c0 7.33301 7 16.833 21 28.5s21 19.834 21 24.501c-1.33301 6.66699 -2.66602 10.667 -3.99902 12l-11 15l-85 115l-53 -62l-23 -34
c-4 -7.33301 -6.66699 -15.333 -8 -24c0 -8 6 -17 18 -27c26 -19.333 39 -32 39 -38c0 -5.33301 -7.66699 -12 -23 -20c-14 -5.33301 -27 -8.66602 -39 -9.99902l-29 2l-30 4l-31 -3l-30 -3c-21.333 0 -32 8.33301 -32 25c0 9.33301 5 21 15 35zM303.002 339.998l49 62
l21 26c6 9.33301 9 16.333 9 21c0 10 -4.33301 15 -13 15c-8 0 -26 -5 -54 -15s-45.333 -15 -52 -15c-20.667 0 -31 6 -31 18l6 11l10 13h-33c-6 0 -9 -2 -9 -6l5 -11l10 -13z" />
    <glyph glyph-name="y" unicode="y" horiz-adv-x="574" 
d="M233 84l-192 352.999c-3.33301 7.33301 -13.333 18.5 -30 33.5s-25 26.167 -25 33.5c0 6.66699 2.66699 11 8 13s10 3.33301 14 4s10.667 1 20 1h248c21.333 0 32 -6 32 -18c0 -8 -5.66699 -15.333 -17 -22l44 6l78 20l22 5l31 6l43 3c13.333 0 24.333 -2.66699 33 -8
c9.33301 -4 14 -12 14 -24c0 -25.333 -27 -89 -81 -191l-47 -86c-14.667 -27.333 -35 -61.666 -61 -102.999v-178c0 -45.333 -7.83301 -77 -23.5 -95s-35.167 -27 -58.5 -27c-14 0 -25.167 2.33301 -33.5 7s-18.833 15.334 -31.5 32.001l-24 34
c-8 9.33301 -15 14.666 -21 15.999l-16 -4l-15 -6l9 45c4 23.333 17.667 35 41 35c12 0 25 -4 39 -12v127zM159 475.999l154 -295.001l6 -10l4 -1l6 4l11 12c26.667 38 49 77.167 67 117.5s27 78.5 27 114.5c0 30.667 -11.333 46 -34 46c-13.333 0 -24.333 -1.33301 -33 -4
l-50 -14l-43 -12c-17.333 -4 -32.333 -6 -45 -6c-19.333 0 -29 8.33301 -29 25c0 4 1.16699 8.33301 3.5 13s5.83301 7.33398 10.5 8.00098z" />
    <glyph glyph-name="z" unicode="z" horiz-adv-x="574" 
d="M52 82l297.002 353.999c2 2.66699 4 5.66699 6 9s3.66699 6.33301 5 9c0 6.66699 -6 10 -18 10h-138c-10.667 0 -18.667 -1.33301 -24 -4s-8.33301 -6.66699 -9 -12l6 -14c7.33301 -10.667 12 -21.667 14 -33c0 -10 -4.16699 -19.333 -12.5 -28s-18.833 -13 -31.5 -13
c-10.667 0 -19.667 2.83301 -27 8.5s-12.333 12.167 -15 19.5c6.66699 8 10 14.667 10 20c0 4 -14.333 19 -43 45c-14 13.333 -21 26.333 -21 39c0 8 8.5 15 25.5 21s37.5 9 61.5 9h334c16 0 31.667 -2 47 -6c11.333 -4 17.666 -11 18.999 -21
c0 -16 -7.33301 -32.667 -22 -50l-260 -299c8 -4 20.333 -7 37 -9l54 -3c18 0 37 3 57 9c23.333 8 35 18.333 35 31c0 4 -3 12.667 -9 26l-5 19c0 6.66699 3.33301 13.334 10 20.001s15.667 10 27 10c14.667 0 24.667 -1.66699 30 -5c6 -2 11 -9.66699 15 -23
c-9.33301 -1.33301 -14 -9.33301 -14 -24c0 -12 10.833 -32 32.5 -60s32.5 -53.667 32.5 -77c0 -22 -11 -39.667 -33 -53l-26 -8c-13.333 -3.33301 -28 -5 -44 -5l-91 6c-45.333 4 -80.333 6 -105 6c-16.667 0 -43.834 -2 -81.501 -6s-69.167 -6 -94.5 -6
c-14 0 -23.833 0.333008 -29.5 1s-12.167 3 -19.5 7c-10 6 -16 13.667 -18 23c0 10 5 21 15 33z" />
    <glyph glyph-name="braceleft" unicode="{" horiz-adv-x="332" 
d="M225 126v-170.001c0 -39.333 5.66699 -69 17 -89c9.33301 -20 28.333 -33.667 57 -41v-16c-70.667 0 -119 9 -145 27c-30 21.333 -45 63 -45 125v180c0 36.667 -5 64 -15 82s-30.333 32 -61 42c27.333 8 46.833 21.333 58.5 40s17.5 46.667 17.5 84v180
c0 62 14.667 103.667 44 125c25.333 18 74 27 146 27v-16c-27.333 -6 -46.5 -19.667 -57.5 -41s-16.5 -51 -16.5 -89v-170c0 -44.667 -4.66699 -75 -14 -91c-10 -22 -32.333 -38 -67 -48c31.333 -10 53 -25.667 65 -47c10.667 -21.333 16 -52.666 16 -93.999z" />
    <glyph glyph-name="bar" unicode="|" horiz-adv-x="222" 
d="M61 -6v728h100v-728h-100z" />
    <glyph glyph-name="braceright" unicode="}" horiz-adv-x="332" 
d="M107 -44v169.999c0 42 5 72.833 15 92.5s32 35.167 66 46.5c-31.333 10 -53 25.333 -65 46c-10.667 22.667 -16 54.334 -16 95.001v170c0 38 -5.16699 67.5 -15.5 88.5s-29.833 34.833 -58.5 41.5v16c70.667 0 119 -9 145 -27c30 -21.333 45 -63 45 -125v-180
c0 -35.333 5 -62.333 15 -81s30.333 -33 61 -43c-28 -8 -48 -22 -60 -42c-5.33301 -10 -9.33301 -21.167 -12 -33.5s-4 -28.5 -4 -48.5v-180c0 -62 -14.667 -103.667 -44 -125c-25.333 -18 -74 -27 -146 -27v16c28 7.33301 47.333 21 58 41s16 49.667 16 89z" />
    <glyph glyph-name="asciitilde" unicode="~" horiz-adv-x="599" 
d="M549 337c-51.333 -20 -98.8311 -55.832 -142.498 -107.499s-79.834 -110.167 -108.501 -175.5c-11.333 29.333 -26.5 59.166 -45.5 89.499s-39.5 57.833 -61.5 82.5c-44 52 -92.333 89 -145 111c28.667 12 55.167 28 79.5 48s47.333 42.667 69 68s41.5 53 59.5 83
c7.33301 12.667 15.333 27.334 24 44.001c6.66699 13.333 13.334 27.666 20.001 42.999c13.333 -31.333 28.666 -61.5 45.999 -90.5s37.666 -57.167 60.999 -84.5c45.333 -52 93.333 -89 144 -111z" />
    <glyph glyph-name="c128" horiz-adv-x="296" 
 />
    <glyph glyph-name="c129" horiz-adv-x="296" 
 />
    <glyph glyph-name="c141" horiz-adv-x="296" 
 />
    <glyph glyph-name="c142" horiz-adv-x="296" 
 />
    <glyph glyph-name="c143" horiz-adv-x="296" 
 />
    <glyph glyph-name="c144" horiz-adv-x="296" 
 />
    <glyph glyph-name="c157" horiz-adv-x="296" 
 />
    <glyph glyph-name="c158" horiz-adv-x="296" 
 />
    <glyph glyph-name="nonbreakingspace" unicode="&#xa0;" horiz-adv-x="296" 
 />
    <glyph glyph-name="exclamdown" unicode="&#xa1;" horiz-adv-x="278" 
d="M60 377h124.002c10.667 0 18 -1 22 -3s7 -8.66699 9 -20v-457c0 -14 13 -26 39 -36c11.333 -4 17.666 -10 18.999 -18c0 -10 -7.33301 -17 -22 -21s-31 -6 -49 -6h-98c-27.333 0 -46.333 2.5 -57 7.5s-16.334 11.5 -17.001 19.5c0 6 9.66699 13.333 29 22
c18.667 6 28 16.667 28 32v404c0 12 -8.16699 22.167 -24.5 30.5s-24.833 16.833 -25.5 25.5c0 13.333 7.66699 20 23 20zM84.002 480c0 14.667 6.5 28 19.5 40s28.833 18 47.5 18c20 0 36.167 -5.5 48.5 -16.5s18.5 -24.833 18.5 -41.5c0 -14 -6.33301 -27.667 -19 -41
c-12.667 -11.333 -28.667 -17 -48 -17s-35.333 5.33301 -48 16s-19 24.667 -19 42z" />
    <glyph glyph-name="cent" unicode="&#xa2;" horiz-adv-x="592" 
d="M334 -85h-56c-12.667 0 -19 6.33301 -19 19v60c-46 0 -85.667 14 -119 42c-52.667 46.667 -79 124.667 -79 234c0 76.667 25.667 140.667 77 192c36 38 76.333 61.333 121 70v56c0 4 1.33301 7.33301 4 10l15 4h56c8.66699 0 15 -1 19 -3s6 -5.66699 6 -11v-56
c33.333 -3.33301 63.666 -13.666 90.999 -30.999c34.667 -22.667 52 -51.334 52 -86.001c0 -23.333 -9.16699 -43.166 -27.5 -59.499s-41.166 -24.5 -68.499 -24.5c-19.333 0 -36.666 6.66699 -51.999 20l-26 19c-8 0 -13 -3.66699 -15 -11c-10.667 4 -16 13 -16 27
c0 10 3.5 18.5 10.5 25.5s16.5 10.5 28.5 10.5l20 -1l18 -2c12 0 18 5 18 15c0 9.33301 -8.83301 18.666 -26.5 27.999s-34.834 14 -51.501 14c-48 0 -83.833 -16.167 -107.5 -48.5s-35.5 -73.5 -35.5 -123.5c0 -60 12.333 -102.667 37 -128c28 -28 79.333 -42 154 -42
c29.333 0 55.666 5 78.999 15c26.667 12.667 44.334 32 53.001 58c16.667 -2 30.667 -11.5 42 -28.5s17 -34.167 17 -51.5c0 -38 -12.667 -69.667 -38 -95c-12 -12 -25.667 -21.333 -41 -28s-31 -10 -47 -10h-68v-60c0 -4.66699 -2 -9 -6 -13s-10.333 -6 -19 -6z" />
    <glyph glyph-name="sterling" unicode="&#xa3;" horiz-adv-x="592" 
d="M45 50c0 18.667 7.33203 42.999 21.999 72.999c17.333 37.333 33 76 47 116c10.667 32 19.334 65.333 26.001 100l43 3l26 -2l13 -2c-4 -25.333 -22.333 -64.666 -55 -117.999c-13.333 -22.667 -20.666 -39.667 -21.999 -51c0 -9.33301 4.5 -16.166 13.5 -20.499
s19.833 -6.5 32.5 -6.5l53 2l49 2l53 -3l40 -3l24 1c13.333 3.33301 20 11.333 20 24c0 41.333 -22.333 83 -67 125c-50.667 45.333 -108.334 68 -173.001 68c-27.333 0 -48.833 -2.16699 -64.5 -6.5s-23.5 -13.833 -23.5 -28.5c0 -6 2.66699 -12.667 8 -20
c-7.33301 -4.66699 -17.333 -7 -30 -7c-10.667 0 -19.667 3.66699 -27 11c-6 7.33301 -9.66699 15.666 -11 24.999c0 26 14 45.667 42 59c29.333 12.667 65.666 19 108.999 19c72 0 140.667 -28.333 206 -85c46.667 -39.333 89.334 -94 128.001 -164
c28.667 -54 43 -89.333 43 -106c0 -24 -13 -41 -39 -51c-9.33301 -2.66699 -20.5 -5 -33.5 -7s-26.5 -3 -40.5 -3l-79 6c-38 4 -66.333 6 -85 6l-65 -2l-74 -4c-40 0 -68.167 4.5 -84.5 13.5s-24.5 21.167 -24.5 36.5zM324.999 663.999
c-30.667 0 -55.999 -10.5029 -75.999 -31.5029s-30 -44.167 -30 -69.5l3 -51l7 -90l-21 3l-24 1l-27 -1l-22 -8l-37 70c-16.667 36.667 -25 63.334 -25 80.001c0 52.667 25.667 92.334 77 119.001c40 20 94 30 162 30c64.667 0 119.5 -14.333 164.5 -43
s67.5 -67.667 67.5 -117c0 -31.333 -11 -57.666 -33 -78.999c-22 -20 -46.333 -30 -73 -30c-31.333 0 -57.333 16 -78 48s-35.334 49 -44.001 51l-9 -1l-7 -4c0 18 11 27 33 27l19 -2l17 -4l25 -5c26.667 0 40 16 40 48c0 21.333 -10 37 -30 47c-20 8 -46.333 12 -79 12z
" />
    <glyph glyph-name="currency" unicode="&#xa4;" horiz-adv-x="592" 
d="M36 151l55.0029 54.001c-14 18 -25.167 39.667 -33.5 65s-12.5 52 -12.5 80l3 39c2 14.667 5.33301 28.667 10 42c8 25.333 19 46.666 33 63.999l-54 54l61 61l55 -55c15.333 12.667 36.166 23 62.499 31s53.166 12 80.499 12c32 0 59 -3.66699 81 -11
c23.333 -6.66699 42.666 -16.667 57.999 -30l57 55l64 -64l-55 -56c14 -12 25.333 -31.667 34 -59s13 -55 13 -83s-4.16699 -55 -12.5 -81s-19.833 -47.333 -34.5 -64l54 -54l-58 -58l-54 56c-14.667 -13.333 -36 -25 -64 -35c-25.333 -8 -53 -12 -83 -12
c-31.333 0 -59.333 3.83301 -84 11.5s-45 19.167 -61 34.5l-56 -56zM438.003 350.001c0 42.667 -13.668 77.667 -41.001 105c-13.333 14 -28.166 24.667 -44.499 32s-35.166 11 -56.499 11c-38.667 0 -71.834 -13.833 -99.501 -41.5s-41.5 -63.167 -41.5 -106.5
c0 -42 13.5 -77.167 40.5 -105.5s60.5 -42.5 100.5 -42.5c39.333 0 72.833 14.333 100.5 43s41.5 63.667 41.5 105z" />
    <glyph glyph-name="yen" unicode="&#xa5;" horiz-adv-x="592" 
d="M258 230v47.999l-4 6h-118c-17.333 0 -26 8.66699 -26 26c0 21.333 8.66699 32 26 32h82l-134 191c-4 8.66699 -18 19 -42 31c-8.66699 4 -13.334 8.66699 -14.001 14c0 7.33301 27.833 20 83.5 38s83.834 30.667 84.501 38c0 6.66699 -8.66699 10 -26 10h-67
c-14.667 0 -25.667 -1.16699 -33 -3.5s-12 -8.5 -14 -18.5l3 -16l8 -13l-43 2c-12 0 -24.333 5 -37 15s-19 23.333 -19 40c0 14.667 6 25 18 31s27.667 9 47 9h227c22.667 0 39 -1.16699 49 -3.5s15 -9.83301 15 -22.5c0 -10.667 -22 -24.334 -66 -41.001
s-66 -30.334 -66 -41.001c0 -13.333 32 -61.666 96 -144.999l64 -80c26 22.667 52.333 54.667 79 96c28.667 49.333 43 89.333 43 120c0 16 -2.16699 26.833 -6.5 32.5s-13.5 8.5 -27.5 8.5c-8.66699 0 -26.334 -3.66699 -53.001 -11l-48 -14l-62 -18
c-21.333 -6 -35.333 -9 -42 -9c-10.667 0 -16 4.33301 -16 13c0 6 4.66699 11.667 14 17l74 30l64 25l96 32c12 3.33301 21.667 5.83301 29 7.5s15 2.83398 23 3.50098c43.333 0 65 -19 65 -57c0 -36 -26.667 -90.667 -80 -164c-46 -65.333 -88.667 -113.666 -128 -144.999
l120 -2c17.333 0 26 -10.667 26 -32c0 -17.333 -8.66699 -26 -26 -26h-122v-54h122c17.333 0 26 -10.667 26 -32c0 -17.333 -8.66699 -26 -26 -26h-122v-48c0 -17.333 15 -35 45 -53s46 -31.333 48 -40c0 -7.33301 -8.66699 -15 -26 -23
c-4 -1.33301 -10.167 -2.83301 -18.5 -4.5s-15.166 -2.83398 -20.499 -3.50098h-6l-38 3l-42 3l-41 -3l-39 -3h-8c-8 0 -14 0.333008 -18 1s-12.5 3.33398 -25.5 8.00098s-19.5 12 -19.5 22c0 4 21 21 63 51c20 14 30 28 30 42v48h-122c-17.333 0 -26 8.66699 -26 26
c0 21.333 8.66699 32 26 32h122z" />
    <glyph glyph-name="brokenbar" unicode="&#xa6;" horiz-adv-x="222" 
d="M61 -6v272h100v-272h-100zM61 450v272h100v-272h-100z" />
    <glyph glyph-name="section" unicode="&#xa7;" horiz-adv-x="556" 
d="M159 716l240 -0.00292969c33.333 0 60 -3 80 -9c18 -7.33301 27 -21.333 27 -42c0 -16 -15.667 -32.333 -47 -49c-14.667 -8 -24 -13.333 -28 -16c-12 -8.66699 -18 -17 -18 -25c0 -5.33301 2 -11.666 6 -18.999l14 -17c-24 0 -43.333 3.66699 -58 11
s-22 18.666 -22 33.999c0 10 4 19.833 12 29.5s12.333 18.5 13 26.5c0 8 -8.66699 13.833 -26 17.5s-33.333 5.5 -48 5.5l-40 1c-42.667 0 -70.667 -2.66699 -84 -8c-14 -4 -21 -13.333 -21 -28c0 -42 31.333 -81.333 94 -118l175 -98c63.333 -44 95 -96.333 95 -157
c0 -34.667 -9.33301 -64.667 -28 -90c-11.333 -17.333 -35.333 -38.666 -72 -63.999c20 -16 37.333 -35.333 52 -58c7.33301 -12.667 13.333 -26 18 -40s7 -27.667 7 -41c0 -45.333 -12.333 -80.333 -37 -105c-12.667 -12.667 -26.334 -21.667 -41.001 -27
c-15.333 -6.66699 -31.666 -10 -48.999 -10l-110 3l-52 -1l-44 -2c-28.667 0 -56 11.167 -82 33.5s-39 49.833 -39 82.5c0 32 6.33301 58.333 19 79s30.667 31 54 31c8 0 22 -6 42 -18c10 -6.66699 18.333 -10 25 -10c4 0 9 2 15 6c0 -24 -9 -39 -27 -45
c-10.667 -4 -19 -9.66699 -25 -17c-6 -9.33301 -9 -19.666 -9 -30.999c0 -22 12 -37 36 -45c19.333 -5.33301 50.333 -8 93 -8c48 0 80 3 96 9c23.333 9.33301 35 29.666 35 60.999c0 30.667 -31.667 62.334 -95 95.001c-112 56 -171 86.667 -177 92
c-63.333 45.333 -95 99.333 -95 162c0 33.333 8.66699 64 26 92s41.333 51 72 69c-14 12 -25.333 23.333 -34 34l-22 31c-17.333 30.667 -26 66.334 -26 107.001c0 34 11.667 57.667 35 71c17.333 10 42.333 15 75 15zM423 214.997c0 49.333 -42.668 97.667 -128.001 145
l-115 62c-17.333 -11.333 -30.666 -24 -39.999 -38c-2 -4 -4.66699 -10.5 -8 -19.5s-5 -19.167 -5 -30.5c0 -42 33 -82 99 -120l150 -79c14 10 25.333 21.833 34 35.5s13 28.5 13 44.5z" />
    <glyph glyph-name="dieresis" unicode="&#xa8;" horiz-adv-x="278" 
d="M113 640c0 -32 -23 -48 -69 -48c-43.333 0 -65 16 -65 48c0 30.667 21.667 46 65 46c46 0 69 -15.333 69 -46zM165 640c0 30.667 22.666 46 67.999 46c20.667 0 36.834 -3.83301 48.501 -11.5s17.5 -19.167 17.5 -34.5c0 -32 -22 -48 -66 -48c-45.333 0 -68 16 -68 48z
" />
    <glyph glyph-name="copyright" unicode="&#xa9;" horiz-adv-x="800" 
d="M112 358c0 -80.667 27.8311 -148.834 83.498 -204.501s123.834 -83.5 204.501 -83.5s148.834 27.833 204.501 83.5s83.5 123.834 83.5 204.501c0 80 -28 148 -84 204s-124 84 -204 84s-148 -28 -204 -84s-84 -124 -84 -204zM35.998 358
c0 99.333 35.167 184.833 105.5 256.5s156.5 107.5 258.5 107.5c100 0 185.667 -35.167 257 -105.5s107 -156.5 107 -258.5c0 -100.667 -35.5 -186.5 -106.5 -257.5s-156.833 -106.5 -257.5 -106.5c-100 0 -185.667 35.167 -257 105.5s-107 156.5 -107 258.5zM402.998 187
c-48 0 -87.333 16 -118 48s-46 73 -46 123c0 55.333 15 101.333 45 138s66.667 55 110 55c32 0 59.667 -7.33301 83 -22c22 -15.333 33 -35.333 33 -60c0 -20.667 -6.66699 -36.667 -20 -48s-30 -17 -50 -17s-36 6.33301 -48 19c-8.66699 10 -13 21 -13 33
s-3.66699 18.333 -11 19l-6 -5l1 -9l-12 -5c-12.667 0 -19 6.66699 -19 20c0 6 1.83301 11.167 5.5 15.5s11.167 7.5 22.5 9.5c11.333 0 21.666 -5.66699 30.999 -17c9.33301 -9.33301 18.333 -14.666 27 -15.999c8 0 14 2.16699 18 6.5s6.33301 10.166 7 17.499
c0 12 -5.16699 21 -15.5 27s-22.833 9 -37.5 9c-32 0 -57.333 -12.833 -76 -38.5s-28 -57.167 -28 -94.5c0 -42 14 -76 42 -102c26 -24 56 -36 90 -36c22.667 0 40.667 3.33301 54 10c18 7.33301 30 20.333 36 39c16 0 24 -14.333 24 -43c0 -22 -12.167 -40.167 -36.5 -54.5
s-55.166 -21.5 -92.499 -21.5z" />
    <glyph glyph-name="ordfeminine" unicode="&#xaa;" horiz-adv-x="540" 
d="M40 544h460v-460h-460v460z" />
    <glyph glyph-name="guillemotleft" unicode="&#xab;" horiz-adv-x="426" 
d="M148 250l62 -155l7 -26c0 -12 -6.33301 -18 -19 -18c-8 0 -14.667 1.66699 -20 5l-23 31l-103 169l-5 16l1 9l4 7l103 169l16 24c7.33301 8 16.333 12 27 12c12.667 0 19 -6 19 -18c0 -5.33301 -2.33301 -14 -7 -26l-62 -155l-5 -22zM310 250l62 -155l7 -26
c0 -12 -6.33301 -18 -19 -18c-8 0 -14.667 1.66699 -20 5l-23 31l-103 169l-5 16l1 9l4 7l103 169l16 24c7.33301 8 16.333 12 27 12c12.667 0 19 -6 19 -18c0 -5.33301 -2.33301 -14 -7 -26l-62 -155l-5 -22z" />
    <glyph glyph-name="logicalnot" unicode="&#xac;" horiz-adv-x="600" 
d="M452 109v201h-404v100h504v-301h-100z" />
    <glyph glyph-name="minus" unicode="&#xad;" horiz-adv-x="600" 
d="M552 203h-504v100h504v-100z" />
    <glyph glyph-name="registered" unicode="&#xae;" horiz-adv-x="800" 
d="M112 358c0 -80.667 27.8311 -148.834 83.498 -204.501s123.834 -83.5 204.501 -83.5s148.834 27.833 204.501 83.5s83.5 123.834 83.5 204.501c0 80 -28 148 -84 204s-124 84 -204 84s-148 -28 -204 -84s-84 -124 -84 -204zM35.998 358
c0 99.333 35.167 184.833 105.5 256.5s156.5 107.5 258.5 107.5c100 0 185.667 -35.167 257 -105.5s107 -156.5 107 -258.5c0 -100.667 -35.5 -186.5 -106.5 -257.5s-156.833 -106.5 -257.5 -106.5c-100 0 -185.667 35.167 -257 105.5s-107 156.5 -107 258.5zM355.998 416
v-173.001c0 -4 9.66699 -13.667 29 -29c7.33301 -5.33301 12 -11.333 14 -18c0 -3.33301 -4 -6.66602 -12 -9.99902l-22 -4l-21 2l-17 1l-46 -3l-25 3c-6 2 -10.333 5.66699 -13 11c0 6 7.83301 14 23.5 24s24.167 19 25.5 27v201zM427.998 516.999h-36
c-24 0 -36 -8.33301 -36 -25v-29l-64 34v4c0 8 -3.33301 12.333 -10 13c-7.33301 0 -11.333 -2.66699 -12 -8c0 -6 18 -18.667 54 -38s61 -29 75 -29c18 0 34.167 6 48.5 18s21.5 24.667 21.5 38c0 6 -4.66699 11.667 -14 17l-19 5h-8zM263.998 542.999l206.001 -0.00195312
c19.333 0 33.666 -2.66699 42.999 -8s14 -15 14 -29c0 -15.333 -10.333 -31.333 -31 -48c-4.66699 -4 -8.33398 -7 -11.001 -9s-6.66699 -4 -12 -6l-30 -15l43 -19c12.667 -6 19.667 -10.333 21 -13l4 -7l5 -21l22 -120c0 -8 8.5 -16.333 25.5 -25s25.833 -16.667 26.5 -24
l-3 -3l-8 -7l-12 -4l-10 -3l-35 3l-32 -3c-6 0 -10 2.33301 -12 7l-6 20c0 35.333 -2.33301 64.5 -7 87.5s-11 41.833 -19 56.5c-10 22.667 -34.667 44.334 -74 65.001l-84 45l-27 15c-8 4.66699 -14.333 9.33398 -19 14.001c-9.33301 8 -14.666 17 -15.999 27
c0 16 12.667 24 38 24z" />
    <glyph glyph-name="macron" unicode="&#xaf;" horiz-adv-x="546" 
d="M40 336l105 126l104 -126l-104 -126zM168 185l105 124l104 -124l-104 -127zM168 488l105 126l103 -126l-103 -125zM294 336l104 126l106 -126l-106 -126z" />
    <glyph glyph-name="degree" unicode="&#xb0;" horiz-adv-x="1600" 
d="M233 371l2.00098 -1.99805l2 -2l3 2v5c-22 27.333 -33 52.666 -33 75.999c0 27.333 9.83301 49.833 29.5 67.5s41.5 26.5 65.5 26.5c28.667 0 52.334 -10.167 71.001 -30.5s28 -41.5 28 -63.5c0 -11.333 -4 -24.666 -12 -39.999l-14 -25l-7 -16
c4 -2 7.66699 -0.333008 11 5v5l1 4l21 18c11.333 9.33301 21.333 15.333 30 18c9.33301 5.33301 20.333 8 33 8c10 0 24.667 -4 44 -12c5.33301 -0.666992 12.333 -4.66699 21 -12l18 -18c10 -12 15 -28.667 15 -50c0 -8.66699 -0.333008 -15 -1 -19s-3 -11.333 -7 -22
c-4 -14 -14.667 -28.333 -32 -43c-11.333 -10 -27 -15 -47 -15c-21.333 0 -41 4.33301 -59 13l-4 2l-5 -2l-1 -3c2 -3.33301 4.66699 -6 8 -8l13 -2c6 0 16.667 -5 32 -15c8 -4 17.333 -14.667 28 -32c8 -12 12 -27.667 12 -47c0 -20 -8 -41 -24 -63
c-17.333 -19.333 -40.333 -29 -69 -29c-30.667 0 -55.334 9.66699 -74.001 29c-16 19.333 -24 41.333 -24 66l-3 5l1 8l2 4c0 6.66699 -2 11 -6 13l-2 -2l-2 -8l1 -11l1 -9c0 -16 -2.83301 -29.833 -8.5 -41.5s-14.167 -22.834 -25.5 -33.501
c-20.667 -13.333 -42.334 -20 -65.001 -20c-23.333 0 -44.666 8.66699 -63.999 26c-8.66699 7.33301 -16.167 17 -22.5 29s-9.5 24.333 -9.5 37c0 25.333 7.66699 45.666 23 60.999c14 15.333 32 26.333 54 33c12 0 18.333 2.33301 19 7c0 3.33301 -1.33301 6 -4 8
c-4.66699 0 -8.66699 -1.66699 -12 -5l-9 -1l-5 -2l-8 -1l-7 -2h-18c-28 0 -50.667 10.667 -68 32c-16.667 22.667 -25 43.667 -25 63c0 24 9 46 27 66c8 10 18.167 17.833 30.5 23.5s24.166 8.5 35.499 8.5c38 0 69.667 -20.667 95 -62zM219.001 281.002
c0 -22.667 8.66699 -42.666 26 -59.999s35.666 -26 54.999 -26h5c22 0 41.667 8.66699 59 26c14.667 12.667 22 31.667 22 57s-9.33301 45.333 -28 60c-15.333 16 -34 24 -56 24c-19.333 0 -37.666 -8 -54.999 -24c-8 -6 -15 -14.333 -21 -25
c-4.66699 -10.667 -7 -21.334 -7 -32.001zM733.001 871.003l2.00098 -1.99805l2 -2l3 2v5c-22 27.333 -33 52.666 -33 75.999c0 27.333 9.83301 49.833 29.5 67.5s41.5 26.5 65.5 26.5c28.667 0 52.334 -10.167 71.001 -30.5s28 -41.5 28 -63.5
c0 -11.333 -4 -24.666 -12 -39.999l-14 -25l-7 -16c4 -2 7.66699 -0.333008 11 5v5l1 4l21 18c11.333 9.33301 21.333 15.333 30 18c9.33301 5.33301 20.333 8 33 8c10 0 24.667 -4 44 -12c5.33301 -0.666992 12.333 -4.66699 21 -12l18 -18c10 -12 15 -28.667 15 -50
c0 -8.66699 -0.333008 -15 -1 -19s-3 -11.333 -7 -22c-4 -14 -14.667 -28.333 -32 -43c-11.333 -10 -27 -15 -47 -15c-21.333 0 -41 4.33301 -59 13l-4 2l-5 -2l-1 -3c2 -3.33301 4.66699 -6 8 -8l13 -2c6 0 16.667 -5 32 -15c8 -4 17.333 -14.667 28 -32
c8 -12 12 -27.667 12 -47c0 -20 -8 -41 -24 -63c-17.333 -19.333 -40.333 -29 -69 -29c-30.667 0 -55.334 9.66699 -74.001 29c-16 19.333 -24 41.333 -24 66l-3 5l1 8l2 4c0 6.66699 -2 11 -6 13l-2 -2l-2 -8l1 -11l1 -9c0 -16 -2.83301 -29.833 -8.5 -41.5
s-14.167 -22.834 -25.5 -33.501c-20.667 -13.333 -42.334 -20 -65.001 -20c-23.333 0 -44.666 8.66699 -63.999 26c-8.66699 7.33301 -16.167 17 -22.5 29s-9.5 24.333 -9.5 37c0 25.333 7.66699 45.666 23 60.999c14 15.333 32 26.333 54 33c12 0 18.333 2.33301 19 7
c0 3.33301 -1.33301 6 -4 8c-4.66699 0 -8.66699 -1.66699 -12 -5l-9 -1l-5 -2l-8 -1l-7 -2h-18c-28 0 -50.667 10.667 -68 32c-16.667 22.667 -25 43.667 -25 63c0 24 9 46 27 66c8 10 18.167 17.833 30.5 23.5s24.166 8.5 35.499 8.5c38 0 69.667 -20.667 95 -62z
M719.002 781.005c0 -22.667 8.66699 -42.666 26 -59.999s35.666 -26 54.999 -26h5c22 0 41.667 8.66699 59 26c14.667 12.667 22 31.667 22 57s-9.33301 45.333 -28 60c-15.333 16 -34 24 -56 24c-19.333 0 -37.666 -8 -54.999 -24c-8 -6 -15 -14.333 -21 -25
c-4.66699 -10.667 -7 -21.334 -7 -32.001zM1233 371.006l2.00098 -1.99805l2 -2l3 2v5c-22 27.333 -33 52.666 -33 75.999c0 27.333 9.83301 49.833 29.5 67.5s41.5 26.5 65.5 26.5c28.667 0 52.334 -10.167 71.001 -30.5s28 -41.5 28 -63.5
c0 -11.333 -4 -24.666 -12 -39.999l-14 -25l-7 -16c4 -2 7.66699 -0.333008 11 5v5l1 4l21 18c11.333 9.33301 21.333 15.333 30 18c9.33301 5.33301 20.333 8 33 8c10 0 24.667 -4 44 -12c5.33301 -0.666992 12.333 -4.66699 21 -12l18 -18c10 -12 15 -28.667 15 -50
c0 -8.66699 -0.333008 -15 -1 -19s-3 -11.333 -7 -22c-4 -14 -14.667 -28.333 -32 -43c-11.333 -10 -27 -15 -47 -15c-21.333 0 -41 4.33301 -59 13l-4 2l-5 -2l-1 -3c2 -3.33301 4.66699 -6 8 -8l13 -2c6 0 16.667 -5 32 -15c8 -4 17.333 -14.667 28 -32
c8 -12 12 -27.667 12 -47c0 -20 -8 -41 -24 -63c-17.333 -19.333 -40.333 -29 -69 -29c-30.667 0 -55.334 9.66699 -74.001 29c-16 19.333 -24 41.333 -24 66l-3 5l1 8l2 4c0 6.66699 -2 11 -6 13l-2 -2l-2 -8l1 -11l1 -9c0 -16 -2.83301 -29.833 -8.5 -41.5
s-14.167 -22.834 -25.5 -33.501c-20.667 -13.333 -42.334 -20 -65.001 -20c-23.333 0 -44.666 8.66699 -63.999 26c-8.66699 7.33301 -16.167 17 -22.5 29s-9.5 24.333 -9.5 37c0 25.333 7.66699 45.666 23 60.999c14 15.333 32 26.333 54 33c12 0 18.333 2.33301 19 7
c0 3.33301 -1.33301 6 -4 8c-4.66699 0 -8.66699 -1.66699 -12 -5l-9 -1l-5 -2l-8 -1l-7 -2h-18c-28 0 -50.667 10.667 -68 32c-16.667 22.667 -25 43.667 -25 63c0 24 9 46 27 66c8 10 18.167 17.833 30.5 23.5s24.166 8.5 35.499 8.5c38 0 69.667 -20.667 95 -62z
M1219 281.008c0 -22.667 8.66699 -42.666 26 -59.999s35.666 -26 54.999 -26h5c22 0 41.667 8.66699 59 26c14.667 12.667 22 31.667 22 57s-9.33301 45.333 -28 60c-15.333 16 -34 24 -56 24c-19.333 0 -37.666 -8 -54.999 -24c-8 -6 -15 -14.333 -21 -25
c-4.66699 -10.667 -7 -21.334 -7 -32.001z" />
    <glyph glyph-name="plusminus" unicode="&#xb1;" horiz-adv-x="600" 
d="M250 375v130h100v-130h202v-100h-202v-131h-100v131h-202v100h202zM48 0v100h504v-100h-504z" />
    <glyph glyph-name="twosuperior" unicode="&#xb2;" horiz-adv-x="385" 
d="M17 581c0 32 15.667 57.501 47 76.501s71.333 28.5 120 28.5c55.333 0 98.333 -9 129 -27s46 -43.333 46 -76l-1 -15c-3.33301 -25.333 -15 -46.333 -35 -63c-16 -14 -54 -37 -114 -69l-50 -28l-26 -16c-10 -8.66699 -15 -16 -15 -22c0 -4.66699 7 -7 21 -7l29 3l32 3
l22 -1l41 -5c20.667 0 31 7.66699 31 23c0 8 3 15 9 21s12.667 9 20 9c12 0 19.667 -2.66699 23 -8c-8 -2 -12 -8 -12 -18l28 -48c10 -15.333 15 -28 15 -38c0 -10.667 -6.16699 -19.167 -18.5 -25.5s-27.833 -9.5 -46.5 -9.5l-68 3l-58 3l-53 -3l-50 -3
c-15.333 0 -31.333 2 -48 6s-25.667 10 -27 18c0 29.333 20.667 59.666 62 90.999l115 84c42 36 63 71.333 63 106c0 52 -29.333 78 -88 78c-19.333 0 -36.333 -4.5 -51 -13.5s-22 -20.5 -22 -34.5c0 -9.33301 3 -17.833 9 -25.5s14.667 -11.5 26 -11.5
c14 0 24 1.16699 30 3.5s12 6.5 18 12.5l10 10l5 4l4 1c9.33301 0 15.333 -2.66699 18 -8c-3.33301 -1.33301 -6 -4.66602 -8 -9.99902c4.66699 -10.667 7 -21.334 7 -32.001c0 -17.333 -7.66699 -31.166 -23 -41.499s-36 -15.5 -62 -15.5c-30.667 0 -55.667 8.66699 -75 26
s-29 38.666 -29 63.999z" />
    <glyph glyph-name="threesuperior" unicode="&#xb3;" horiz-adv-x="385" 
d="M270 551l-59 -10c-12 -2 -23 -5 -33 -9l-4 -2l7 -4l12 -3l43 -8c51.333 -9.33301 87.666 -21.666 108.999 -36.999c26.667 -18.667 40 -45.667 40 -81c0 -34.667 -10.667 -64.667 -32 -90c-20 -25.333 -45.667 -38 -77 -38l-46 3l-47 3l-43 -3l-49 -3
c-22.667 0 -43.5 7.16699 -62.5 21.5s-28.5 32.833 -28.5 55.5c0 18 5.5 32.667 16.5 44s25.5 17 43.5 17l29 -1c5.33301 -0.666992 10 -3 14 -7c-6 -4 -9 -11 -9 -21c0 -4.66699 3.33301 -10 10 -16c6 -2 14.667 -3.66699 26 -5l46 3l27 -1l21 -2c30 0 45 19 45 57
c0 21.333 -7.33301 38.333 -22 51c-14 10 -35.667 18.667 -65 26l-56 11c-17.333 4 -26.666 11 -27.999 21c0 7.33301 13 15.666 39 24.999l51 14l28 7c9.33301 2.66699 15.333 4.66699 18 6c6 3.33301 10.333 5.66602 13 6.99902c17.333 9.33301 26 20.333 26 33
c0 8.66699 -7.33301 16.334 -22 23.001l-24 6l-32 2h-29c-12.667 0 -21.5 -0.666992 -26.5 -2s-7.83301 -5.33301 -8.5 -12l24 -7c16 -4 24 -8.66699 24 -14c0 -8 -2.66699 -14.667 -8 -20c-6 6 -12.667 9 -20 9l-23 -2l-27 -3c-13.333 0 -26.333 3.33301 -39 10
s-19 16.667 -19 30c0 15.333 12.333 28 37 38c26 8.66699 65 13 117 13c55.333 0 98 -5 128 -15c28 -11.333 42 -30 42 -56c0 -18.667 -10.667 -33.667 -32 -45c-13.333 -6.66699 -35 -13 -65 -19z" />
    <glyph glyph-name="acute" unicode="&#xb4;" horiz-adv-x="278" 
d="M264 694c0 -20 -19.833 -44.832 -59.5 -74.499s-74.5 -44.5 -104.5 -44.5c-12 0 -18 3.66699 -18 11c0 3.33301 4 9.66602 12 18.999l26 28l22 30l17 27c8.66699 12.667 18.667 19 30 19l28 -2l30 2c10 0 15.667 -5 17 -15z" />
    <glyph glyph-name="mu" unicode="&#xb5;" horiz-adv-x="574" 
d="M71 131l-0.000976562 317.002c0 10 -9.66699 20 -29 30s-29 19 -29 27c0 4 2.5 7.83301 7.5 11.5s13.833 5.5 26.5 5.5h122c12 0 20.333 -4.33301 25 -13l5 -25v-310c0 -38.667 16.333 -58 49 -58c16 0 42 6.66699 78 20c18.667 6.66699 35 10 49 10v302
c0 5.33301 -9 15 -27 29c-18.667 11.333 -28 20.666 -28 27.999c0 5.33301 2.66699 9.5 8 12.5s14 4.5 26 4.5h172c23.333 0 35 -5.66699 35 -17c0 -8 -9.66699 -17.667 -29 -29c-18 -9.33301 -27.667 -18.666 -29 -27.999v-361c0 -12 11.667 -26.333 35 -43
c10.667 -6.66699 16.334 -14.334 17.001 -23.001c0 -8.66699 -2.83301 -14.334 -8.5 -17.001s-15.167 -4 -28.5 -4h-162c-22.667 -0 -34.334 5.33301 -35.001 16c0 8 12 21.667 36 41c12 8 18 15.667 18 23v8c-21.333 -4.66699 -48.666 -21.667 -81.999 -51
c-28.667 -24.667 -60.667 -37 -96 -37c-18.667 0 -35 3.66699 -49 11l26 -149c0 -16 -5.5 -28.667 -16.5 -38s-26.5 -14 -46.5 -14c-16 0 -29.5 5.33301 -40.5 16s-16.5 22.667 -16.5 36l12 132l2 78z" />
    <glyph glyph-name="paragraph" unicode="&#xb6;" horiz-adv-x="620" 
d="M207 -65l-0.000976562 370c-50 0 -90.167 19.167 -120.5 57.5s-45.5 90.166 -45.5 155.499c0 68.667 18.167 118.834 54.5 150.501s94.833 47.5 175.5 47.5h298v-40c-23.333 0 -41.666 -4.83301 -54.999 -14.5s-20 -26.5 -20 -50.5v-676c0 -50 25 -75 75 -75v-40h-175
v856h-87v-856h-180v40c24.667 0 44.167 6.5 58.5 19.5s21.5 31.5 21.5 55.5z" />
    <glyph glyph-name="periodcentered" unicode="&#xb7;" horiz-adv-x="296" 
d="M81 320c0 15.333 6.5 28.833 19.5 40.5s28.833 17.5 47.5 17.5c19.333 0 35.333 -5.33301 48 -16s19 -24.667 19 -42c0 -14 -6.33301 -27.667 -19 -41c-13.333 -11.333 -29.333 -17 -48 -17c-19.333 0 -35.333 5.33301 -48 16s-19 24.667 -19 42z" />
    <glyph glyph-name="periodcentered" unicode="&#x2219;" horiz-adv-x="296" 
d="M81 320c0 15.333 6.5 28.833 19.5 40.5s28.833 17.5 47.5 17.5c19.333 0 35.333 -5.33301 48 -16s19 -24.667 19 -42c0 -14 -6.33301 -27.667 -19 -41c-13.333 -11.333 -29.333 -17 -48 -17c-19.333 0 -35.333 5.33301 -48 16s-19 24.667 -19 42z" />
    <glyph glyph-name="cedilla" unicode="&#xb8;" horiz-adv-x="278" 
d="M188 6l-26 -48l18 2l27 1c14 0 25.667 -4.66699 35 -14s14 -22 14 -38c0 -19.333 -7.33301 -35.833 -22 -49.5s-32.334 -20.5 -53.001 -20.5l-22 1c-8.66699 0 -17 1.33301 -25 4l-29 4c-12.667 0 -20.667 -0.666992 -24 -2l-14 -11c2 10 7 21 15 33
c5.33301 7.33301 13.333 12 24 14l53 -3c8 0 14.333 2.33301 19 7s7.33398 10.667 8.00098 18c0 15.333 -8.33301 23 -25 23l-19 -3l-16 -3c-10 0 -15.333 3.66699 -16 11c0 6 3 14 9 24l29 50h40z" />
    <glyph glyph-name="onesuperior" unicode="&#xb9;" horiz-adv-x="265" 
d="M114 331v275l-50 -25l-37 -7c-18 0 -27 6 -27 18c0 6 5.66699 10.333 17 13l25 5l21 7l33 16l68 40l18 9l14 4c8 0 12 -5 12 -15v-340c0 -5.33301 10 -14 30 -26c8 -4 13 -9.66699 15 -17l-3 -4l-12 -9l-27 -6l-50 2l-49 -2c-9.33301 0 -18.5 2 -27.5 6
s-13.833 8.33301 -14.5 13c0 4.66699 7 11 21 19s21.667 16 23 24z" />
    <glyph glyph-name="ordmasculine" unicode="&#xba;" horiz-adv-x="570" 
d="M44 577h484v-485h-484v485zM73 551v-433h428v433h-428z" />
    <glyph glyph-name="guillemotright" unicode="&#xbb;" horiz-adv-x="426" 
d="M216 95l62 154.999l5 22l-5 22l-62 155l-7 26c0 12 6.33301 18 19 18c7.33301 0 13.5 -1.66699 18.5 -5s13.167 -13.666 24.5 -30.999l103 -169l5 -16l-1 -9l-4 -7l-103 -169l-16 -24c-7.33301 -8 -16.333 -12 -27 -12c-12.667 0 -19 6 -19 18l1 8zM54 94.999
l61.998 154.999l5 22l-5 22l-62 155l-7 26c0 12 6.33301 18 19 18c8.66699 0 15.834 -2.16699 21.501 -6.5s12.834 -14.166 21.501 -29.499l103 -169l5 -16l-1 -9l-4 -7l-103 -169l-16 -24c-7.33301 -8 -16.333 -12 -27 -12c-12.667 0 -19 6 -19 18l1 8z" />
    <glyph glyph-name="onequarter" unicode="&#xbc;" horiz-adv-x="888" 
d="M192 36l390.002 642l10 13c4 4 10.333 6.33301 19 7c7.33301 0 13.166 -2 17.499 -6s7.16602 -9.33301 8.49902 -16l-3 -17l-8 -15l-389 -643c-8.66699 -12.667 -18.667 -19 -30 -19c-12 0 -20.333 6.33301 -25 19c0 12 3.33301 23.667 10 35zM752.002 367v-188.001
l-48 2l-46 -2v185c0 8 -3.33301 12 -10 12c-3.33301 0 -7 -4.33301 -11 -13l-13 -43l-11 -32c-8 -24 -19.333 -47.667 -34 -71l-12 -20l-7 -18c0 -6.66699 10 -10 30 -10l56 3l46 2l38 -1l32 -2c20 0 30.333 3.33301 31 10c0 10 -2.66699 17.333 -8 22l21 -7l26 -9
c7.33301 -2 14.666 -6.66699 21.999 -14c6 -7.33301 9 -15.333 9 -24c0 -36 -17.667 -54 -53 -54l-106 3l-83 -3l-75 -4c-30.667 0 -52.667 2.5 -66 7.5s-20 14.5 -20 28.5c0 10 21.833 43.333 65.5 100s65.5 92.334 65.5 107.001c0 8.66699 -4.33301 20.667 -13 36
c-4 6 -6 11.333 -6 16c0 20 34.667 30 104 30c36 0 63 -1 81 -3s27 -7.33301 27 -16l-4 -5l-15 -10c-7.33301 -6 -11.666 -11 -12.999 -15zM658.002 64.999l0.00195312 19l22 3l23 1l27 -2l16 -2v-20c0 -5.33301 7.33301 -13 22 -23c14.667 -8.66699 22 -15.667 22 -21
c0 -3.33301 -6 -9 -18 -17c-13.333 -6 -25 -9 -35 -9l-17 3l-17 3l-19 -3l-19 -3c-6.66699 0 -11.834 0.5 -15.501 1.5s-9.83398 3.16699 -18.501 6.5c-12 6 -18.667 12 -20 18c0 6 10.333 14.333 31 25c10 4 15.333 10.667 16 20zM139.004 330.999v275.001l-50 -25l-37 -7
c-18 0 -27 6 -27 18c0 6 5.66699 10.333 17 13l25 5l21 7l33 16l68 40l18 9l14 4c8 0 12 -5 12 -15v-340c0 -5.33301 10 -14 30 -26c10 -5.33301 15 -11 15 -17l-3 -4l-12 -9l-27 -6l-50 2l-49 -2c-10 0 -20 2 -30 6c-7.33301 5.33301 -11.333 9.66602 -12 12.999
c0 3.33301 7.33301 10 22 20c14 6 21.333 13.667 22 23z" />
    <glyph glyph-name="onehalf" unicode="&#xbd;" horiz-adv-x="888" 
d="M188 36l390 642.001l10 13c4 4 10.333 6.33301 19 7c6 0 11.333 -2 16 -6s8 -9.33301 10 -16c0 -8.66699 -3.66699 -19.334 -11 -32.001l-389 -643c-8.66699 -12.667 -18.667 -19 -30 -19c-12 0 -20.333 6.33301 -25 19c0 12 3.33301 23.667 10 35zM512 306.001
c0 31.333 16.168 56.667 48.501 76s71.833 29 118.5 29c57.333 0 100.833 -9.16699 130.5 -27.5s44.5 -43.5 44.5 -75.5l-1 -15c-2 -23.333 -13.667 -44.333 -35 -63c-16 -14 -54 -37 -114 -69c-40 -21.333 -65.167 -36.166 -75.5 -44.499s-15.5 -15.5 -15.5 -21.5
c0 -4.66699 7 -7 21 -7l29 3l32 3l22 -1l41 -5c20.667 0 31 7.66699 31 23c0 5.33301 3 12 9 20c6 6 12.667 9.33301 20 10c12 0 19.667 -2.66699 23 -8c-8 -2 -12 -8 -12 -18l13 -24l16 -23c8 -14.667 12.667 -27.667 14 -39c0 -10.667 -6.16699 -19.167 -18.5 -25.5
s-27.833 -9.5 -46.5 -9.5l-62 2l-64 4l-53 -3l-50 -3c-16.667 0 -33.334 2 -50.001 6s-25 10 -25 18c0 29.333 20.667 59.666 62 90.999l115 84c42 36 63 71.333 63 106c0 52 -29.333 78 -88 78c-19.333 0 -36.333 -4.5 -51 -13.5s-22 -20.5 -22 -34.5c0 -8 3 -16.667 9 -26
c6 -7.33301 14.667 -11 26 -11c14 0 24 1.66699 30 5c7.33301 2.66699 13.333 6.33398 18 11.001l10 10l5 4l4 1c9.33301 0 15.333 -2.66699 18 -8c-4 -2.66699 -6.66699 -6 -8 -10c4.66699 -10.667 7 -21.334 7 -32.001c0 -17.333 -7.16699 -31.166 -21.5 -41.499
s-35.5 -15.5 -63.5 -15.5c-30.667 0 -55.667 8.66699 -75 26s-29 38.666 -29 63.999zM130.001 331.002l-0.000976562 274.999l-50 -25l-37 -7c-18 0 -27 6 -27 18c0 6 5.66699 10.333 17 13l25 5l21 7l33 16l68 40l18 9l14 4c8 0 12 -5 12 -15v-340
c0 -5.33301 10 -14 30 -26c10 -5.33301 15 -11 15 -17l-3 -4l-12 -9l-27 -6l-50 2l-49 -2c-12 0 -21.667 2.16699 -29 6.5s-11.666 8.5 -12.999 12.5c0 4.66699 7.33301 11.334 22 20.001c14 6 21.333 13.667 22 23z" />
    <glyph glyph-name="threequarters" unicode="&#xbe;" horiz-adv-x="888" 
d="M241 36l389.999 642l10 13c4.66699 4.66699 11 7 19 7c6.66699 0 12.334 -2 17.001 -6s7.66699 -9.33301 9 -16c0 -9.33301 -3.66699 -20 -11 -32l-389 -643c-8.66699 -12.667 -18.667 -19 -30 -19c-14 0 -22.333 6.33301 -25 19c0 12 3.33301 23.667 10 35zM770.999 367
v-188.001l-48 2l-46 -2v185c0 8 -3.33301 12 -10 12c-3.33301 0 -7 -4.33301 -11 -13l-24 -75l-13 -32l-21 -39l-12 -20l-7 -18c0 -6.66699 10 -10 30 -10l56 3l46 2l38 -1l32 -2c20 0 30.333 3.33301 31 10c0 10 -2.66699 17.333 -8 22l21 -7l26 -9
c7.33301 -2 14.666 -6.66699 21.999 -14c6 -7.33301 9 -15.333 9 -24c0 -36 -17.667 -54 -53 -54l-106 3l-83 -3l-75 -4c-30.667 0 -52.667 2.5 -66 7.5s-20 14.5 -20 28.5c0 10 21.833 43.333 65.5 100s65.5 92.334 65.5 107.001c0 8.66699 -4.33301 20.667 -13 36
c-4 6 -6 11.333 -6 16c0 20 34.667 30 104 30c36 0 63 -1 81 -3s27 -7.33301 27 -16l-4 -5l-15 -10c-7.33301 -6 -11.666 -11 -12.999 -15zM676.999 64.999l0.00195312 19l22 3l23 1l28 -2l15 -2v-20c0 -7.33301 7.66699 -15.333 23 -24l13 -8
c4 -3.33301 6.66699 -7.33301 8 -12c0 -3.33301 -6 -9 -18 -17c-13.333 -6 -25 -9 -35 -9l-17 3l-17 3l-19 -3l-19 -3c-6.66699 0 -11.834 0.5 -15.501 1.5s-9.83398 3.16699 -18.501 6.5c-12 6 -18.667 12 -20 18c0 7.33301 6.33301 14 19 20l14 6
c7.33301 4 12 10.333 14 19zM276.001 550.999l-58.999 -10c-14 -2 -25 -5 -33 -9l-4 -2l8 -4l11 -3l43 -8c51.333 -9.33301 87.666 -21.666 108.999 -36.999c26.667 -19.333 40 -46.333 40 -81s-10.667 -64.667 -32 -90c-20 -25.333 -45.667 -38 -77 -38l-46 3l-47 3l-43 -3
l-49 -3c-23.333 0 -44.333 7 -63 21s-28 32.667 -28 56c0 18 5.5 32.667 16.5 44s25.5 17 43.5 17l29 -1c4 0 8.66699 -2.33301 14 -7c-6 -4 -9 -11 -9 -21c0 -4.66699 3.33301 -10 10 -16c6 -2 14.667 -3.66699 26 -5l46 3l27 -1l21 -2c30 0 45 19 45 57
c0 21.333 -7.33301 38.333 -22 51c-14 10 -35.667 18.667 -65 26l-57 11c-18 4 -27 11 -27 21c0 7.33301 13 15.666 39 24.999l51 14l28 7c9.33301 2.66699 15.333 4.66699 18 6c6 3.33301 10.333 5.66602 13 6.99902c17.333 9.33301 26 20.333 26 33
c0 8.66699 -7.33301 16.334 -22 23.001l-24 6l-32 2h-29c-12.667 0 -21.5 -0.666992 -26.5 -2s-7.83301 -5.33301 -8.5 -12l24 -7c16 -4 24 -8.66699 24 -14c0 -8 -2.66699 -14.667 -8 -20c-6 6 -12.667 9 -20 9l-23 -2l-27 -3c-13.333 0 -26.333 3.33301 -39 10
s-19 16.667 -19 30c0 15.333 12.333 28 37 38c26 8.66699 65 13 117 13c55.333 0 98 -5 128 -15c28 -11.333 42 -30 42 -56c0 -18.667 -10.667 -33.667 -32 -45c-13.333 -6.66699 -35 -13 -65 -19z" />
    <glyph glyph-name="questiondown" unicode="&#xbf;" horiz-adv-x="463" 
d="M208 377l99.001 -0.000976562c15.333 0 25.166 -3.33301 29.499 -10s7.16602 -16 8.49902 -28c0 -36 -15 -75 -45 -117l-89 -116c-31.333 -45.333 -47 -89 -47 -131c0 -38 7.83301 -67.333 23.5 -88s41.167 -31 76.5 -31c28.667 0 49.667 8.66699 63 26
c14 16 21 37.667 21 65c0 16.667 -3.16699 30.834 -9.5 42.501s-15.5 17.5 -27.5 17.5c-8 0 -18.667 -7 -32 -21c-11.333 -14 -22 -21 -32 -21s-20 5.33301 -30 16c7.33301 2 12 7 14 15l-3 15l-4 15c0 26 10 46 30 60s46 21 78 21c36 0 66 -13 90 -39s36 -58 36 -96
c0 -54 -21 -95.667 -63 -125c-18.667 -11.333 -40.334 -20.333 -65.001 -27s-51.667 -10 -81 -10c-61.333 0 -111.666 15 -150.999 45c-41.333 32 -62 77.333 -62 136c0 48 17.333 89.667 52 125c14 16 51.333 43.333 112 82l31 21c6 4.66699 9.66699 7.66699 11 9
c6.66699 6 13.334 12.667 20.001 20c23.333 25.333 35 48.666 35 69.999c0 12.667 -6 19 -18 19h-37c-7.33301 0 -12 -3.66699 -14 -11l6 -16l5 -24c0 -14.667 -8 -22 -24 -22c-9.33301 0 -17 1.33301 -23 4c4 2 6.33301 5.66699 7 11v4l-15 29
c-10 16.667 -15.333 29.334 -16 38.001c0 10 3.83301 17 11.5 21s17.167 6 28.5 6zM194.001 479.999c0 14.667 6.5 28 19.5 40s28.833 18 47.5 18c19.333 0 35.333 -5.33301 48 -16s19 -24.667 19 -42c0 -14.667 -6.5 -28 -19.5 -40s-28.833 -18 -47.5 -18
c-19.333 0 -35.333 5.33301 -48 16s-19 24.667 -19 42z" />
    <glyph glyph-name="Agrave" unicode="&#xc0;" 
d="M-295 810l-14 10.999l-9 7c-12 12 -25 18 -39 18l-13 -3l-2 -5c0 -8 8.66699 -13 26 -15l2 -4l-5 -5l-6 -3l-12 -8l-32 -19c-28.667 -11.333 -51 -17 -67 -17l-12 3l-4 3l-2 2l9 15l18 14l20 18l18 17c4.66699 4.66699 12 9.66699 22 15l19 9l23 13l5 7
c0 4 -9.66699 7.33301 -29 10c-6.66699 0 -10.334 2.66699 -11.001 8l2 4l8 3l13 3c8.66699 3.33301 20 5 34 5c10.667 0 17.334 -0.666992 20.001 -2c10 -2 19.667 -7.66699 29 -17c7.33301 -4.66699 15 -13 23 -25c2.66699 -5.33301 8.66699 -12.666 18 -21.999l16 -16
l19 -16l13 -12l18 -16l6 -9l3 -6c0 -3.33301 -4.33301 -6 -13 -8c-22 0 -42.667 3.66699 -62 11l-26 13zM-357 1033c0 4 2 8.66602 6 13.999c2 4 6.66699 6 14 6h63c6 0 15 -3.66699 27 -11c11.333 -9.33301 18 -19.666 20 -30.999c0.666992 -9.33301 3.66699 -17 9 -23
l16 -17c6.66699 -4 10.667 -7.66699 12 -11c4 -8 10.667 -16.667 20 -26c2 -2.66699 3.66699 -7.66699 5 -15c0 -8 -6.33301 -12 -19 -12c-28 0 -62.667 14.333 -104 43c-46 33.333 -69 61 -69 83z" />
    <glyph glyph-name="Aacute" unicode="&#xc1;" 
d="M-295 810l-14 10.999l-9 7c-12 12 -25 18 -39 18l-13 -3l-2 -5c0 -8 8.66699 -13 26 -15l2 -4l-5 -5l-6 -3l-12 -8l-32 -19c-28.667 -11.333 -51 -17 -67 -17l-12 3l-4 3l-2 2l9 15l18 14l20 18l18 17c4.66699 4.66699 12 9.66699 22 15l19 9l23 13l5 7
c0 4 -9.66699 7.33301 -29 10c-6.66699 0 -10.334 2.66699 -11.001 8l2 4l8 3l13 3c8.66699 3.33301 20 5 34 5c10.667 0 17.334 -0.666992 20.001 -2c10 -2 19.667 -7.66699 29 -17c7.33301 -4.66699 15 -13 23 -25c2.66699 -5.33301 8.66699 -12.666 18 -21.999l16 -16
l19 -16l13 -12l18 -16l6 -9l3 -6c0 -3.33301 -4.33301 -6 -13 -8c-22 0 -42.667 3.66699 -62 11l-26 13zM-26 1007c0 -21.333 -22.999 -48.999 -68.999 -82.999c-40.667 -28.667 -75.334 -43 -104.001 -43c-12.667 0 -19 4 -19 12c0 4.66699 1.66699 9.66699 5 15l20 26
c0.666992 1.33301 1.66699 2.83301 3 4.5s3.66602 3.5 6.99902 5.5l17 17c4.66699 6.66699 7.83398 15.167 9.50098 25.5s8.5 20.166 20.5 29.499c7.33301 5.33301 16.333 9 27 11h63c6 0 11 -2 15 -6c2 -2 3.66699 -6.66699 5 -14z" />
    <glyph glyph-name="Acircumflex" unicode="&#xc2;" 
d="M-295 810l-14 10.999l-9 7c-12 12 -25 18 -39 18l-13 -3l-2 -5c0 -8 8.66699 -13 26 -15l2 -4l-5 -5l-6 -3l-12 -8l-32 -19c-28.667 -11.333 -51 -17 -67 -17l-12 3l-4 3l-2 2l9 15l18 14l20 18l18 17c4.66699 4.66699 12 9.66699 22 15l19 9l23 13l5 7
c0 4 -9.66699 7.33301 -29 10c-6.66699 0 -10.334 2.66699 -11.001 8l2 4l8 3l13 3c8.66699 3.33301 20 5 34 5c10.667 0 17.334 -0.666992 20.001 -2c10 -2 19.667 -7.66699 29 -17c7.33301 -4.66699 15 -13 23 -25c2.66699 -5.33301 8.66699 -12.666 18 -21.999l16 -16
l19 -16l13 -12l18 -16l6 -9l3 -6c0 -3.33301 -4.33301 -6 -13 -8c-22 0 -42.667 3.66699 -62 11l-26 13z" />
    <glyph glyph-name="Atilde" unicode="&#xc3;" 
d="M-295 810l-14 10.999l-9 7c-12 12 -25 18 -39 18l-13 -3l-2 -5c0 -8 8.66699 -13 26 -15l2 -4l-5 -5l-6 -3l-12 -8l-32 -19c-28.667 -11.333 -51 -17 -67 -17l-12 3l-4 3l-2 2l9 15l18 14l20 18l18 17c4.66699 4.66699 12 9.66699 22 15l19 9l23 13l5 7
c0 4 -9.66699 7.33301 -29 10c-6.66699 0 -10.334 2.66699 -11.001 8l2 4l8 3l13 3c8.66699 3.33301 20 5 34 5c10.667 0 17.334 -0.666992 20.001 -2c10 -2 19.667 -7.66699 29 -17c7.33301 -4.66699 15 -13 23 -25c2.66699 -5.33301 8.66699 -12.666 18 -21.999l16 -16
l19 -16l13 -12l18 -16l6 -9l3 -6c0 -3.33301 -4.33301 -6 -13 -8c-22 0 -42.667 3.66699 -62 11l-26 13zM-472 990.999c0 20.667 7.99902 40.6709 23.999 60.0039s36.333 29 61 29c6 0 30.667 -6 74 -18l61 -16c16 0 26.333 1.16699 31 3.5s11.334 10.166 20.001 23.499l5 8
l7 4c4 -2.66699 6.66699 -5.33398 8 -8.00098l1 -25c0 -20 -8.66699 -38.667 -26 -56c-12 -13.333 -31 -20 -57 -20c-17.333 0 -40.333 4.33301 -69 13l-27 9l-27 9l-21 5c-10 0 -16.667 -2.33301 -20 -7s-6 -10.334 -8 -17.001l1 -6l3 -4l6 1l8 4l7 4l20 6l4 -5l-7 -19
c-5.33301 -10 -15.333 -15 -30 -15c-8.66699 0 -19 2.33301 -31 7c-4 1.33301 -8 4.66602 -12 9.99902s-6 12 -6 20z" />
    <glyph glyph-name="Adieresis" unicode="&#xc4;" 
d="M-295 810l-14 10.999l-9 7c-12 12 -25 18 -39 18l-13 -3l-2 -5c0 -8 8.66699 -13 26 -15l2 -4l-5 -5l-6 -3l-12 -8l-32 -19c-28.667 -11.333 -51 -17 -67 -17l-12 3l-4 3l-2 2l9 15l18 14l20 18l18 17c4.66699 4.66699 12 9.66699 22 15l19 9l23 13l5 7
c0 4 -9.66699 7.33301 -29 10c-6.66699 0 -10.334 2.66699 -11.001 8l2 4l8 3l13 3c8.66699 3.33301 20 5 34 5c10.667 0 17.334 -0.666992 20.001 -2c10 -2 19.667 -7.66699 29 -17c7.33301 -4.66699 15 -13 23 -25c2.66699 -5.33301 8.66699 -12.666 18 -21.999l16 -16
l19 -16l13 -12l18 -16l6 -9l3 -6c0 -3.33301 -4.33301 -6 -13 -8c-22 0 -42.667 3.66699 -62 11l-26 13zM-393 -144.001c0 7.33301 2 15.666 6 24.999s8.66699 15.666 14 18.999c12.667 12.667 28.667 19 48 19c14 0 31 -5 51 -15c8 -6 14.333 -13.333 19 -22
c2 -6 3.66699 -14.667 5 -26c0 -17.333 -8 -30.666 -24 -39.999c-22.667 -10.667 -39.667 -16 -51 -16c-18 0 -34 4 -48 12c-4 2.66699 -8.33301 8.33398 -13 17.001s-7 17.667 -7 27z" />
    <glyph glyph-name="Aring" unicode="&#xc5;" 
d="M-295 810l-14 10.999l-9 7c-12 12 -25 18 -39 18l-13 -3l-2 -5c0 -8 8.66699 -13 26 -15l2 -4l-5 -5l-6 -3l-12 -8l-32 -19c-28.667 -11.333 -51 -17 -67 -17l-12 3l-4 3l-2 2l9 15l18 14l20 18l18 17c4.66699 4.66699 12 9.66699 22 15l19 9l23 13l5 7
c0 4 -9.66699 7.33301 -29 10c-6.66699 0 -10.334 2.66699 -11.001 8l2 4l8 3l13 3c8.66699 3.33301 20 5 34 5c10.667 0 17.334 -0.666992 20.001 -2c10 -2 19.667 -7.66699 29 -17c7.33301 -4.66699 15 -13 23 -25c2.66699 -5.33301 8.66699 -12.666 18 -21.999l16 -16
l19 -16l13 -12l18 -16l6 -9l3 -6c0 -3.33301 -4.33301 -6 -13 -8c-22 0 -42.667 3.66699 -62 11l-26 13zM-320 1045c0 9.33301 0.332031 15.8311 0.999023 19.498s3.33398 10.334 8.00098 20.001s12 18.167 22 25.5c21.333 15.333 46 23 74 23c24 0 44.333 -4.66699 61 -14
c16.667 -10.667 30.667 -23.667 42 -39l8 -21l3 -22c0 -16 -3.33301 -29.333 -10 -40c-7.33301 -14 -30 -32.333 -68 -55c-20 -11.333 -30 -23.666 -30 -36.999l2 -4l1 -3h20l6 3l2 5l-4 5l-3 2c3.33301 10 11 15 23 15c-2 -2.66699 -3.66699 -6.66699 -5 -12l9 -10
c6 -6 9.33301 -12.667 10 -20c0 -8.66699 -7.66699 -13 -23 -13h-49c-14 0 -21 5.33301 -21 16c0 6 0.5 12.333 1.5 19s4.16699 15 9.5 25c2.66699 5.33301 6 10.833 10 16.5s11.333 14.167 22 25.5l8 9l5 6l3 5l4 6c8.66699 10.667 13 24.667 13 42
c0 16 -4.5 28.667 -13.5 38s-19.833 14 -32.5 14c-14.667 0 -26.334 -4.33301 -35.001 -13c-4.66699 -4 -9 -10.667 -13 -20c0 -7.33301 1.83301 -13.833 5.5 -19.5s9.83398 -8.5 18.501 -8.5c6 0 10 2.33301 12 7c4 4 8.33301 6 13 6l18 -8l-6 -2l-3 -5l2 -6v-9
c0 -11.333 -3.66699 -19.666 -11 -24.999c-13.333 -8.66699 -27.333 -13 -42 -13c-20 0 -36.333 6.66699 -49 20s-19 28.666 -19 45.999z" />
    <glyph glyph-name="AE" unicode="&#xc6;" horiz-adv-x="500" 
d="M264 222l0.00195312 290.999c0 13.333 -4.66699 24.333 -14 33l-28 29c0 10 10.333 18.333 31 25l84 22c23.333 6 35 14 35 24c0 6 -11.833 10.5 -35.5 13.5s-55.834 4.5 -96.501 4.5c-38.667 0 -64.5 -2 -77.5 -6s-20.5 -9.66699 -22.5 -17
c0 -5.33301 8.66699 -16.333 26 -33c16.667 -18 25 -34 25 -48c0 -36 -24 -54 -72 -54c-26 0 -43.333 13.333 -52 40l17 3c2.66699 2 5 6 7 12l-13 15l-40 41c-17.333 17.333 -26 33.333 -26 48c0 14 9.33301 25.5 28 34.5s46 13.5 82 13.5l62 1h22h18
c8 1.33301 13.667 2 17 2c19.333 0 40.333 -0.166992 63 -0.5s51.667 -2.83301 87 -7.5c68.667 -8 103 -21.333 103 -40c0 -14 -10 -27 -30 -39c-44 -23.333 -66 -45.333 -66 -66v-377c0 -20 6.66699 -33.667 20 -41c12.667 -8.66699 19 -25 19 -49
c0 -33.333 -19.5 -58.666 -58.5 -75.999s-91.833 -26 -158.5 -26c-62.667 0 -109.667 5.33301 -141 16c-48.667 16 -73 46.333 -73 91c0 24.667 9 48 27 70l59 58c0 7.33301 -1.33301 13.333 -4 18l19 2c8 0 15 -2 21 -6s9.33301 -10.333 10 -19l-3 -20l-3 -34
c0 -13.333 5.33301 -24 16 -32c11.333 -6.66699 26.666 -10 45.999 -10c28 0 48 10 60 30c6.66699 12 10 33.333 10 64zM122.002 954.999c0 27.333 10.499 48.8301 31.499 64.4971s45.5 23.5 73.5 23.5c23.333 0 43.5 -4.66699 60.5 -14s31.167 -22.333 42.5 -39
c7.33301 -13.333 11 -27.666 11 -42.999c0 -16.667 -3.5 -31 -10.5 -43s-29.5 -29.333 -67.5 -52c-20 -11.333 -30 -23.666 -30 -36.999l1 -3l2 -4h20l6 3l2 5l-4 5l-3 2c3.33301 10 11 15 23 15c-2 -2.66699 -3.66699 -6.66699 -5 -12l2 -4l8 -8c4 -2 7 -8 9 -18
c0 -8.66699 -7.66699 -13 -23 -13h-49c-13.333 0 -20.333 5.33301 -21 16c0 12.667 3.66699 27.334 11 44.001l15 22l17 20l14 18l6 8c5.33301 8.66699 9.66602 22.667 12.999 42c0 16 -4.66699 28.667 -14 38s-20 14 -32 14c-7.33301 0 -14 -1.33301 -20 -4
c-6 0 -11 -3 -15 -9c-4.66699 -4 -9 -10.667 -13 -20c0 -8 1.83301 -14.667 5.5 -20s9.83398 -8 18.501 -8c6 0 10 2.33301 12 7c4 4 8.33301 6 13 6c3.33301 -0.666992 5.33301 -1.33398 6 -2.00098l12 -6l-6 -3l-3 -4l2 -6v-9c0 -12 -3.66699 -20.333 -11 -25l-17 -8
c-5.33301 -2 -13.666 -3.66699 -24.999 -5c-19.333 0 -35.5 6.33301 -48.5 19s-19.5 28.334 -19.5 47.001z" />
    <glyph glyph-name="Ccedilla" unicode="&#xc7;" horiz-adv-x="648" 
d="M373 -6c-98 0 -176.833 32.334 -236.5 97.001s-89.5 146.667 -89.5 246c0 114 31.667 208 95 282c58.667 68.667 130.334 103 215.001 103c66 0 121 -14.833 165 -44.5s66 -69.834 66 -120.501c0 -39.333 -13 -70.666 -39 -93.999s-59.667 -35 -101 -35
c-39.333 0 -71 13 -95 39c-18 20 -27 42 -27 66s-7.33301 36 -22 36c-7.33301 0 -12 -4.33301 -14 -13l4 -13c-5.33301 -6.66699 -13.666 -10 -24.999 -10c-12 0 -21.167 3.66699 -27.5 11s-9.5 16.666 -9.5 27.999c0 13.333 5.5 24.833 16.5 34.5s23.833 14.5 38.5 14.5
c22 0 43 -10.833 63 -32.5s38.333 -32.5 55 -32.5c14 0 25.667 4.66699 35 14s14 21 14 35c0 24 -10.667 41.667 -32 53c-20 12 -45 18 -75 18c-62 0 -112.667 -26.667 -152 -80c-36 -50 -54 -112 -54 -186c0 -83.333 28.333 -151.333 85 -204
c51.333 -48 110.666 -72 177.999 -72h39c9.33301 2 19.166 3.66699 29.499 5s23.5 6.33301 39.5 15c38 16 62 42.333 72 79c32 -4 48 -33 48 -87c0 -46.667 -24.667 -83.667 -74 -111s-111 -41 -185 -41zM373 6.00098l-26 -48l18 2l27 1c14 0 25.667 -4.66699 35 -14
s14 -22 14 -38c0 -19.333 -7.33301 -35.833 -22 -49.5s-32.334 -20.5 -53.001 -20.5l-22 1c-8.66699 0 -17 1.33301 -25 4l-29 4c-12.667 0 -20.667 -0.666992 -24 -2l-14 -11c2 10 7 21 15 33c5.33301 7.33301 13.333 12 24 14l53 -3c8 0 14.333 2.33301 19 7
s7.33398 10.667 8.00098 18c0 15.333 -8.33301 23 -25 23l-19 -3l-16 -3c-10 0 -15.333 3.66699 -16 11c0 6 3 14 9 24l29 50h40z" />
    <glyph glyph-name="Egrave" unicode="&#xc8;" 
d="M-382 856c6 -2 10.3311 -4.66699 12.998 -8l7 -11l13 -12l22 -6c6 0 9 2.66699 9 8l-4 6l-7 1l-6 2l-3 5c2 4 4.33301 6.33301 7 7l22 5l24 5c16.667 6.66699 28.334 13.667 35.001 21l8 10l9 11c8.66699 7.33301 19.667 11 33 11c7.33301 0 14.333 -1.83301 21 -5.5
s11 -10.834 13 -21.501c-5.33301 4 -12.333 6.66699 -21 8c-7.33301 0 -13.666 -4 -18.999 -12l-2 -13l-5 -19c0 -6 -4 -14.667 -12 -26l-30 -27c-21.333 -17.333 -48.333 -26 -81 -26c-34 0 -62 8 -84 24c-12 6 -25.333 20.333 -40 43c-2 3.33301 -4.66699 8.83301 -8 16.5
s-5 16.834 -5 27.501l1 7v9c3.33301 6 8.5 11.167 15.5 15.5s16.5 7.5 28.5 9.5h18l13 -4l4 -13c-14.667 0 -26 -2 -34 -6l-4 -9l5 -9c9.33301 -8.66699 24 -16.667 44 -24zM-475.002 1046c0 4 1.83203 8.33398 5.49902 13.001s8.5 7 14.5 7h63
c6.66699 0 15.667 -3.66699 27 -11c11.333 -8.66699 18 -18.334 20 -29.001c0.666992 -9.33301 3.33398 -17.333 8.00098 -24s10.167 -12.167 16.5 -16.5s10.5 -8.5 12.5 -12.5l10 -14l10 -12c1.33301 -1.33301 3 -6.33301 5 -15c0 -8 -6.33301 -12 -19 -12
c-28 0 -62.667 14.333 -104 43c-46 33.333 -69 61 -69 83z" />
    <glyph glyph-name="Eacute" unicode="&#xc9;" 
d="M-382 856c6 -2 10.3311 -4.66699 12.998 -8l7 -11l13 -12l22 -6c6 0 9 2.66699 9 8l-4 6l-7 1l-6 2l-3 5c2 4 4.33301 6.33301 7 7l22 5l24 5c16.667 6.66699 28.334 13.667 35.001 21l8 10l9 11c8.66699 7.33301 19.667 11 33 11c7.33301 0 14.333 -1.83301 21 -5.5
s11 -10.834 13 -21.501c-5.33301 4 -12.333 6.66699 -21 8c-7.33301 0 -13.666 -4 -18.999 -12l-2 -13l-5 -19c0 -6 -4 -14.667 -12 -26l-30 -27c-21.333 -17.333 -48.333 -26 -81 -26c-34 0 -62 8 -84 24c-12 6 -25.333 20.333 -40 43c-2 3.33301 -4.66699 8.83301 -8 16.5
s-5 16.834 -5 27.501l1 7v9c3.33301 6 8.5 11.167 15.5 15.5s16.5 7.5 28.5 9.5h18l13 -4l4 -13c-14.667 0 -26 -2 -34 -6l-4 -9l5 -9c9.33301 -8.66699 24 -16.667 44 -24zM-168.002 1046c0 -21.333 -22.998 -49 -68.998 -83c-40.667 -28.667 -75.334 -43 -104.001 -43
c-12.667 0 -19 4 -19 12c0 4.66699 1.66699 9.66699 5 15l10 12l10 14c0.666992 1.33301 1.66699 2.83301 3 4.5s3.66602 3.5 6.99902 5.5l18 18c4 5.33301 6.83301 13 8.5 23s8.5 20.333 20.5 31c7.33301 5.33301 16.333 9 27 11h63c6 0 11 -2 15 -6
c2 -2 3.66699 -6.66699 5 -14z" />
    <glyph glyph-name="Ecircumflex" unicode="&#xca;" 
d="M-382 856c6 -2 10.3311 -4.66699 12.998 -8l7 -11l13 -12l22 -6c6 0 9 2.66699 9 8l-4 6l-7 1l-6 2l-3 5c2 4 4.33301 6.33301 7 7l22 5l24 5c16.667 6.66699 28.334 13.667 35.001 21l8 10l9 11c8.66699 7.33301 19.667 11 33 11c7.33301 0 14.333 -1.83301 21 -5.5
s11 -10.834 13 -21.501c-5.33301 4 -12.333 6.66699 -21 8c-7.33301 0 -13.666 -4 -18.999 -12l-2 -13l-5 -19c0 -6 -4 -14.667 -12 -26l-30 -27c-21.333 -17.333 -48.333 -26 -81 -26c-34 0 -62 8 -84 24c-12 6 -25.333 20.333 -40 43c-2 3.33301 -4.66699 8.83301 -8 16.5
s-5 16.834 -5 27.501l1 7v9c3.33301 6 8.5 11.167 15.5 15.5s16.5 7.5 28.5 9.5h18l13 -4l4 -13c-14.667 0 -26 -2 -34 -6l-4 -9l5 -9c9.33301 -8.66699 24 -16.667 44 -24z" />
    <glyph glyph-name="Edieresis" unicode="&#xcb;" 
d="M-382 856c6 -2 10.3311 -4.66699 12.998 -8l7 -11l13 -12l22 -6c6 0 9 2.66699 9 8l-4 6l-7 1l-6 2l-3 5c2 4 4.33301 6.33301 7 7l22 5l24 5c16.667 6.66699 28.334 13.667 35.001 21l8 10l9 11c8.66699 7.33301 19.667 11 33 11c7.33301 0 14.333 -1.83301 21 -5.5
s11 -10.834 13 -21.501c-5.33301 4 -12.333 6.66699 -21 8c-7.33301 0 -13.666 -4 -18.999 -12l-2 -13l-5 -19c0 -6 -4 -14.667 -12 -26l-30 -27c-21.333 -17.333 -48.333 -26 -81 -26c-34 0 -62 8 -84 24c-12 6 -25.333 20.333 -40 43c-2 3.33301 -4.66699 8.83301 -8 16.5
s-5 16.834 -5 27.501l1 7v9c3.33301 6 8.5 11.167 15.5 15.5s16.5 7.5 28.5 9.5h18l13 -4l4 -13c-14.667 0 -26 -2 -34 -6l-4 -9l5 -9c9.33301 -8.66699 24 -16.667 44 -24zM-433.002 -144c0 7.33301 2 15.666 6 24.999s8.66699 15.666 14 18.999
c12.667 12.667 28.667 19 48 19c14 0 31 -5 51 -15c8 -6 14.333 -13.333 19 -22c2 -6 3.66699 -14.667 5 -26c0 -17.333 -8 -30.666 -24 -39.999c-22.667 -10.667 -39.667 -16 -51 -16c-18 0 -34 4 -48 12c-4 2.66699 -8.33301 8.33398 -13 17.001s-7 17.667 -7 27z" />
    <glyph glyph-name="Igrave" unicode="&#xcc;" horiz-adv-x="500" 
d="M264 222l0.00195312 290.999c0 13.333 -4.66699 24.333 -14 33l-28 29c0 10 10.333 18.333 31 25l84 22c23.333 6 35 14 35 24c0 6 -11.833 10.5 -35.5 13.5s-55.834 4.5 -96.501 4.5c-38.667 0 -64.5 -2 -77.5 -6s-20.5 -9.66699 -22.5 -17
c0 -5.33301 8.66699 -16.333 26 -33c16.667 -18 25 -34 25 -48c0 -36 -24 -54 -72 -54c-26 0 -43.333 13.333 -52 40l17 3c2.66699 2 5 6 7 12l-13 15l-40 41c-17.333 17.333 -26 33.333 -26 48c0 14 9.33301 25.5 28 34.5s46 13.5 82 13.5l62 1h22h18
c8 1.33301 13.667 2 17 2c19.333 0 40.333 -0.166992 63 -0.5s51.667 -2.83301 87 -7.5c68.667 -8 103 -21.333 103 -40c0 -14 -10 -27 -30 -39c-44 -23.333 -66 -45.333 -66 -66v-377c0 -20 6.66699 -33.667 20 -41c12.667 -8.66699 19 -25 19 -49
c0 -33.333 -19.5 -58.666 -58.5 -75.999s-91.833 -26 -158.5 -26c-62.667 0 -109.667 5.33301 -141 16c-48.667 16 -73 46.333 -73 91c0 24.667 9 48 27 70l59 58c0 7.33301 -1.33301 13.333 -4 18l19 2c8 0 15 -2 21 -6s9.33301 -10.333 10 -19l-3 -20l-3 -34
c0 -13.333 5.33301 -24 16 -32c11.333 -6.66699 26.666 -10 45.999 -10c28 0 48 10 60 30c6.66699 12 10 33.333 10 64zM120.002 908.999c0 4 1.66504 8.66699 4.99805 14c4 4 9 6 15 6h63c6.66699 0 15.834 -4 27.501 -12s17.834 -16.333 18.501 -25l7 -24l11 -14l12 -9
l8 -9c3.33301 -6 10 -14.667 20 -26c2 -2.66699 3.66699 -7.66699 5 -15c0 -8 -6.33301 -12 -19 -12c-28 0 -62.667 14.333 -104 43c-46 32 -69 59.667 -69 83z" />
    <glyph glyph-name="Iacute" unicode="&#xcd;" horiz-adv-x="500" 
d="M264 222l0.00195312 290.999c0 13.333 -4.66699 24.333 -14 33l-28 29c0 10 10.333 18.333 31 25l84 22c23.333 6 35 14 35 24c0 6 -11.833 10.5 -35.5 13.5s-55.834 4.5 -96.501 4.5c-38.667 0 -64.5 -2 -77.5 -6s-20.5 -9.66699 -22.5 -17
c0 -5.33301 8.66699 -16.333 26 -33c16.667 -18 25 -34 25 -48c0 -36 -24 -54 -72 -54c-26 0 -43.333 13.333 -52 40l17 3c2.66699 2 5 6 7 12l-13 15l-40 41c-17.333 17.333 -26 33.333 -26 48c0 14 9.33301 25.5 28 34.5s46 13.5 82 13.5l62 1h22h18
c8 1.33301 13.667 2 17 2c19.333 0 40.333 -0.166992 63 -0.5s51.667 -2.83301 87 -7.5c68.667 -8 103 -21.333 103 -40c0 -14 -10 -27 -30 -39c-44 -23.333 -66 -45.333 -66 -66v-377c0 -20 6.66699 -33.667 20 -41c12.667 -8.66699 19 -25 19 -49
c0 -33.333 -19.5 -58.666 -58.5 -75.999s-91.833 -26 -158.5 -26c-62.667 0 -109.667 5.33301 -141 16c-48.667 16 -73 46.333 -73 91c0 24.667 9 48 27 70l59 58c0 7.33301 -1.33301 13.333 -4 18l19 2c8 0 15 -2 21 -6s9.33301 -10.333 10 -19l-3 -20l-3 -34
c0 -13.333 5.33301 -24 16 -32c11.333 -6.66699 26.666 -10 45.999 -10c28 0 48 10 60 30c6.66699 12 10 33.333 10 64zM352.002 908.999c0 -21.333 -22.999 -48.999 -68.999 -82.999c-40.667 -28.667 -75.334 -43 -104.001 -43c-12.667 0 -19 4 -19 12c0 6 1.66699 11 5 15
l20 25c1.33301 3.33301 5.33301 7.33301 12 12l16 17c4 6 7 14.167 9 24.5s8.66699 20.166 20 29.499c10.667 6 19.667 9.66699 27 11h63c4 0 8.33301 -2 13 -6s7 -8.66699 7 -14z" />
    <glyph glyph-name="Icircumflex" unicode="&#xce;" horiz-adv-x="667" 
d="M284 293l-181 246c-7.33301 12 -18.666 21 -33.999 27c-16 7.33301 -24 13.333 -24 18c0 8 6.33301 14.333 19 19l141 49l15 5l5 3l3 4c0 4 -15 6 -45 6h-57c-12 0 -22.167 -0.666992 -30.5 -2s-15.166 -3 -20.499 -5c-13.333 -5.33301 -20 -13.333 -20 -24
c0 -6 3.33301 -12.667 10 -20c-32.667 0 -57.334 3.66699 -74.001 11c-20 9.33301 -30 24.666 -30 45.999c0 15.333 6.33301 25.833 19 31.5s29 8.5 49 8.5h260h33l20 -6c8.66699 -2 13 -9.33301 13 -22c0 -8.66699 -22.333 -22 -67 -40s-67 -30.667 -67 -38
c0 -2.66699 0.666992 -5.5 2 -8.5s4.33301 -7.5 9 -13.5l21 -30l133 -175c38.667 34 70 65.333 94 94c37.333 46.667 56 87.334 56 122.001c0 12 -3 21 -9 27l-11 6l-17 2c-13.333 0 -23.833 -0.5 -31.5 -1.5s-13.334 -1.83301 -17.001 -2.5s-10.834 -2.66699 -21.501 -6
l-52 -13l-65 -16l-26.5 -5c-7 -1.33301 -14.5 -2 -22.5 -2c-10.667 0 -16.334 4.33301 -17.001 13c2 5.33301 3.66699 8.66602 5 9.99902c4 3.33301 14 7.33301 30 12l173 57c74 24 117 36 129 36c17.333 0 33.166 -4.83301 47.499 -14.5s21.5 -23.834 21.5 -42.501
c0 -33.333 -32 -88.666 -96 -165.999c-26 -30.667 -52 -59 -78 -85c-22 -22 -44 -41 -66 -57v-242c0 -6.66699 16 -19.5 48 -38.5s48 -33.833 48 -44.5c0 -7.33301 -9.33301 -15 -28 -23l-44 -9l-25 1l-63 5l-52 -3l-36 -3c-7.33301 0 -13.166 0.5 -17.499 1.5
s-12.166 3.16699 -23.499 6.5c-19.333 6.66699 -29.666 14.667 -30.999 24c0 9.33301 16 23.333 48 42s48 32.334 48 41.001v184zM267 -144c0 9.33301 1.66797 17.667 5.00098 25l15 19c12.667 12.667 28.667 19 48 19c14 0 31 -5 51 -15c6 -4 11.667 -11 17 -21
c3.33301 -7.33301 5.66602 -16.333 6.99902 -27c0 -16.667 -8 -30 -24 -40c-22.667 -10.667 -39.667 -16 -51 -16c-18 0 -34 4 -48 12c-5.33301 3.33301 -10 9 -14 17z" />
    <glyph glyph-name="Idieresis" unicode="&#xcf;" 
d="M-428 -144c0 7.33301 2 15.6689 6 25.002s8.66699 15.666 14 18.999c12.667 12.667 28.667 19 48 19c14 0 31 -5 51 -15c8 -6 14.333 -13.333 19 -22c2 -6 3.66699 -14.667 5 -26c0 -17.333 -8 -30.666 -24 -39.999c-22.667 -10.667 -39.667 -16 -51 -16
c-20 0 -36 4 -48 12c-4 1.33301 -8.33301 6.66602 -13 15.999s-7 18.666 -7 27.999z" />
    <glyph glyph-name="Eth" unicode="&#xd0;" horiz-adv-x="296" 
 />
    <glyph glyph-name="Ntilde" unicode="&#xd1;" horiz-adv-x="667" 
d="M260 661l-0.00195312 -106.002l-128 61l-2 30c-3.33301 12 -10 18 -20 18c-8 0 -14 -2.16699 -18 -6.5s-6 -10.166 -6 -17.499c0 -8 2.66699 -15.667 8 -23c6.66699 -6.66699 18.334 -14.667 35.001 -24l126 -61c28.667 -12 49 -23.667 61 -35c12 -10 18 -21.333 18 -34
c0 -7.33301 -2.66699 -14.333 -8 -21s-15.666 -14.667 -30.999 -24l110 -2c8 0 14.167 -2.66699 18.5 -8s7.16602 -11.666 8.49902 -18.999c0 -9.33301 -2.16699 -16.5 -6.5 -21.5s-11.166 -8.16699 -20.499 -9.5h-145v-91c0 -12 4.66699 -21.667 14 -29l10 -7l4 -10
c0 -4 -14 -14 -42 -30c-20 -10 -38.333 -23.333 -55 -40l15 -4l26 -4l55 -3c74 0 129 19.333 165 58c38.667 42.667 58 108.667 58 198c0 80 -18.333 145.667 -55 197s-85.667 77 -147 77l-25 -3zM131.998 189.998l-0.000976562 168.001h-95
c-7.33301 0 -15.166 4.66699 -23.499 14s-13.5 18.666 -15.5 27.999c0 10.667 7.66699 16 23 16h111v104l48 -24l80 -44v-36c8 3.33301 13.667 7.5 17 12.5s5 11.833 5 20.5c0 5.33301 -4 12.666 -12 21.999l-33 21l-161 82c-30.667 14 -54 30.667 -70 50
c-13.333 15.333 -20 30.333 -20 45c0 22 8.33301 35.333 25 40l31 5l46 2l106 -2l115 2c104.667 0 184.667 -40.667 240 -122c47.333 -71.333 71 -163.666 71 -276.999c0 -92.667 -26.333 -169.667 -79 -231s-121 -92 -205 -92l-58 3l-58 3l-59 -3l-56 -3
c-26 0 -47 2.33301 -63 7c-30.667 8 -46 20.333 -46 37c0 16 22.667 41.167 68 75.5s68 59.833 68 76.5z" />
    <glyph glyph-name="Ograve" unicode="&#xd2;" horiz-adv-x="500" 
d="M264 222l0.00195312 290.999c0 13.333 -4.66699 24.333 -14 33l-28 29c0 10 10.333 18.333 31 25l84 22c23.333 6 35 14 35 24c0 6 -11.833 10.5 -35.5 13.5s-55.834 4.5 -96.501 4.5c-38.667 0 -64.5 -2 -77.5 -6s-20.5 -9.66699 -22.5 -17
c0 -5.33301 8.66699 -16.333 26 -33c16.667 -18 25 -34 25 -48c0 -36 -24 -54 -72 -54c-26 0 -43.333 13.333 -52 40l17 3c2.66699 2 5 6 7 12l-13 15l-40 41c-17.333 17.333 -26 33.333 -26 48c0 14 9.33301 25.5 28 34.5s46 13.5 82 13.5l62 1h22h18
c8 1.33301 13.667 2 17 2c19.333 0 40.333 -0.166992 63 -0.5s51.667 -2.83301 87 -7.5c68.667 -8 103 -21.333 103 -40c0 -14 -10 -27 -30 -39c-44 -23.333 -66 -45.333 -66 -66v-377c0 -20 6.66699 -33.667 20 -41c12.667 -8.66699 19 -25 19 -49
c0 -33.333 -19.5 -58.666 -58.5 -75.999s-91.833 -26 -158.5 -26c-62.667 0 -109.667 5.33301 -141 16c-48.667 16 -73 46.333 -73 91c0 24.667 9 48 27 70l59 58c0 7.33301 -1.33301 13.333 -4 18l19 2c8 0 15 -2 21 -6s9.33301 -10.333 10 -19l-3 -20l-3 -34
c0 -13.333 5.33301 -24 16 -32c11.333 -6.66699 26.666 -10 45.999 -10c28 0 48 10 60 30c6.66699 12 10 33.333 10 64zM137.002 -144.001c0 7.33301 1.99902 15.668 5.99902 25.001c2 7.33301 6.66699 13.666 14 18.999c12.667 12.667 28.667 19 48 19c14 0 31 -5 51 -15
c6.66699 -5.33301 12.334 -12.333 17.001 -21l7 -27c0 -17.333 -8 -30.666 -24 -39.999c-22.667 -10.667 -39.667 -16 -51 -16c-18 0 -34 4 -48 12c-5.33301 3.33301 -10 9.66602 -14 18.999z" />
    <glyph glyph-name="Oacute" unicode="&#xd3;" horiz-adv-x="500" 
d="M264 222l0.00195312 290.999c0 13.333 -4.66699 24.333 -14 33l-28 29c0 10 10.333 18.333 31 25l84 22c23.333 6 35 14 35 24c0 6 -11.833 10.5 -35.5 13.5s-55.834 4.5 -96.501 4.5c-38.667 0 -64.5 -2 -77.5 -6s-20.5 -9.66699 -22.5 -17
c0 -5.33301 8.66699 -16.333 26 -33c16.667 -18 25 -34 25 -48c0 -36 -24 -54 -72 -54c-26 0 -43.333 13.333 -52 40l17 3c2.66699 2 5 6 7 12l-13 15l-40 41c-17.333 17.333 -26 33.333 -26 48c0 14 9.33301 25.5 28 34.5s46 13.5 82 13.5l62 1h22h18
c8 1.33301 13.667 2 17 2c19.333 0 40.333 -0.166992 63 -0.5s51.667 -2.83301 87 -7.5c68.667 -8 103 -21.333 103 -40c0 -14 -10 -27 -30 -39c-44 -23.333 -66 -45.333 -66 -66v-377c0 -20 6.66699 -33.667 20 -41c12.667 -8.66699 19 -25 19 -49
c0 -33.333 -19.5 -58.666 -58.5 -75.999s-91.833 -26 -158.5 -26c-62.667 0 -109.667 5.33301 -141 16c-48.667 16 -73 46.333 -73 91c0 24.667 9 48 27 70l59 58c0 7.33301 -1.33301 13.333 -4 18l19 2c8 0 15 -2 21 -6s9.33301 -10.333 10 -19l-3 -20l-3 -34
c0 -13.333 5.33301 -24 16 -32c11.333 -6.66699 26.666 -10 45.999 -10c28 0 48 10 60 30c6.66699 12 10 33.333 10 64zM88.002 828.999c0 20.667 7.99805 40.668 23.998 60.001s36.333 29 61 29c6 0 30.667 -6 74 -18c26 -8.66699 46.333 -14 61 -16
c16 0 26.333 1.16699 31 3.5s11.334 10.166 20.001 23.499c0.666992 4 2.33398 6.66699 5.00098 8l7 4c4 -2.66699 6.33301 -5 7 -7l2 -26c0 -20 -8.66699 -38.667 -26 -56c-12 -13.333 -31 -20 -57 -20c-17.333 0 -40.333 4.33301 -69 13l-27 9l-27 9l-21 5
c-8.66699 0 -15 -2.16699 -19 -6.5s-7 -10.166 -9 -17.499l1 -6l3 -4l21 9l20 6l4 -5l-7 -19c-5.33301 -10 -15.333 -15 -30 -15c-8.66699 0 -19 2.33301 -31 7c-4 1.33301 -8 4.66602 -12 9.99902s-6 12 -6 20z" />
    <glyph glyph-name="Ocircumflex" unicode="&#xd4;" horiz-adv-x="666" 
d="M341 670c-68 0 -119.667 -31 -155 -93c-26 -47.333 -39 -103 -39 -167l1 -35v-22c2 -7.33301 3.33301 -12.333 4 -15l3 -34c2 -8 6 -18.667 12 -32c10 63.333 38.333 113.333 85 150l128 74c42.667 25.333 64 57 64 95c0 27.333 -9.66699 47.333 -29 60s-44 19 -74 19z
M213 252c0 -37.333 11.166 -64.1689 33.499 -80.502s55.5 -24.5 99.5 -24.5c58 0 103 27 135 81c25.333 44.667 38 98.334 38 161.001v15v12v43l-4 19c-5.33301 32.667 -14.666 61 -27.999 85c0 -20.667 -6.16699 -40.167 -18.5 -58.5s-30.5 -35.166 -54.5 -50.499l-130 -73
c-47.333 -33.333 -71 -76.333 -71 -129zM503.999 667.997c17.333 -14 33.3369 -32 48.0039 -54c44.667 -67.333 67 -157 67 -269c0 -42.667 -3.5 -81.167 -10.5 -115.5s-19.167 -70.166 -36.5 -107.499c-38 -85.333 -87 -128 -147 -128l-54 3l-42 3l-37 -3l-46 -3
c-50.667 0 -96.5 35.833 -137.5 107.5s-61.5 152.5 -61.5 242.5c0 104 22 190 66 258c52 80 127.333 120 226 120c54.667 0 103 -13 145 -39l42 16c13.333 3.33301 20 11.666 20 24.999c-1.33301 7.33301 -5 12.666 -11 15.999l-19 -4c-13.333 4 -22 11 -26 21l-4 14l1 25
c4.66699 23.333 17.667 37 39 41l26 -2c10.667 -2 19.167 -5.66699 25.5 -11s11.166 -12.5 14.499 -21.5s5.66602 -17.833 6.99902 -26.5v-23l-10 -38c-2.66699 -8.66699 -7.83398 -15.667 -15.501 -21s-15.834 -9.66602 -24.501 -12.999
c-5.33301 0 -12.333 -2.33301 -21 -7l-9 -3z" />
    <glyph glyph-name="Otilde" unicode="&#xd5;" horiz-adv-x="12" 
d="M-472 829c0 20.667 7.99805 40.6699 23.998 60.0029s36.333 29 61 29c6 0 30.667 -6 74 -18c26 -8.66699 46.333 -14 61 -16c16 0 26.333 1.16699 31 3.5s11.334 10.166 20.001 23.499c0.666992 4 2.33398 6.66699 5.00098 8l7 4c4 -2.66699 6.66699 -5 8 -7l1 -26
c0 -20 -8.66699 -38.667 -26 -56c-12 -13.333 -31 -20 -57 -20c-17.333 0 -40.333 4.33301 -69 13l-27 9l-27 9l-21 5c-10 0 -16.667 -2.33301 -20 -7s-6 -10.334 -8 -17.001l1 -6l3 -4l21 9l20 6l4 -5l-7 -19c-5.33301 -10 -15.333 -15 -30 -15
c-8.66699 0 -19 2.33301 -31 7c-4 1.33301 -8 4.66602 -12 9.99902s-6 12 -6 20z" />
    <glyph glyph-name="Odieresis" unicode="&#xd6;" horiz-adv-x="685" 
d="M669 686c0 -7.33301 -14.4971 -19.499 -43.4971 -36.499s-43.5 -33.5 -43.5 -49.5v-478c0 -12.667 15.667 -28.167 47 -46.5s47 -33.833 47 -46.5c0 -9.33301 -11 -18 -33 -26c-21.333 -6 -44.333 -9 -69 -9l-26 3l-26 4l-26 3l-26 2l-99 -8l-75 -4
c-60.667 0 -113.667 20.667 -159 62c-50 47.333 -75 112 -75 194c0 37.333 4.33301 73.5 13 108.5s22 69.167 40 102.5l116 170c0 14 -14 21 -42 21l-36 -2c-3.33301 0 -6 -3.66699 -8 -11c0 -4 5 -10.667 15 -20l12 -11l18 -12l-31 -39c-34 19.333 -63.667 40.333 -89 63
c-27.333 25.333 -41 47 -41 65c0 20.667 19 31 57 31h193c19.333 0 32.833 -3 40.5 -9s11.5 -15.333 11.5 -28c0 -14 -13.667 -39.667 -41 -77c-38 -49.333 -63.333 -85 -76 -107c-28 -49.333 -42 -98 -42 -146c0 -62.667 14.333 -112.667 43 -150
c33.333 -43.333 81 -65 143 -65c37.333 0 63.666 7.33301 78.999 22c15.333 13.333 23 35.333 23 66c0 37.333 -21.667 86.666 -65 147.999c-46 66 -96.333 112 -151 138l24 38c38 -20 74.333 -46.333 109 -79s61.667 -70.334 81 -113.001l2 242
c0 14.667 -13.833 31 -41.5 49s-41.5 33 -41.5 45c0 4.66699 9.16699 10.167 27.5 16.5s33.166 9.5 44.499 9.5l19 -1l48 -5l40 3l30 3c22 0 41 -2.33301 57 -7l6 -2l4 1c15.333 0 23 7.66699 23 23c0 6 -2.66699 11.667 -8 17l-20 -1l-8 4l-9 7l-6 13l-2 14l5 25
c8 23.333 22.667 35 44 35c8 0 16.667 -1.66699 26 -5c20 -8 31.333 -20.333 34 -37l4 -28l-3 -23l-15 -36c-4 -8.66699 -10.333 -15.167 -19 -19.5s-17.334 -7.16602 -26.001 -8.49902z" />
    <glyph glyph-name="multiply" unicode="&#xd7;" horiz-adv-x="600" 
d="M223 253l-158 158l77 77l158 -158l158 158l77 -77l-159 -158l159 -158l-77 -77l-158 159l-158 -159l-77 77z" />
    <glyph glyph-name="Oslash" unicode="&#xd8;" 
d="M-450 909c0 3.33301 2 7.33203 6 11.999s8.66699 7.33398 14 8.00098h63c6.66699 0 15.667 -3.66699 27 -11c11.333 -8.66699 18 -17.667 20 -27c0 -8 2.33301 -15.667 7 -23l11 -14l12 -10l7 -8l20 -26c2 -2.66699 3.66699 -7.66699 5 -15c0 -8 -6.33301 -12 -19 -12
c-28 0 -62.667 14.333 -104 43c-46 32 -69 59.667 -69 83z" />
    <glyph glyph-name="Ugrave" unicode="&#xd9;" 
d="M-198 909c0 -21.333 -23.002 -49.001 -69.002 -83.001c-43.333 -28.667 -78 -43 -104 -43c-11.333 0 -17.666 4 -18.999 12c0 6.66699 1.66699 11.667 5 15l20 26c2.66699 4 5.33398 6.66699 8.00098 8l11 10l12 15l7 23c0 6.66699 6.33301 15.334 19 26.001
c11.333 6 20.333 9.66699 27 11h63c5.33301 0 9.5 -1.5 12.5 -4.5s5.5 -8.16699 7.5 -15.5z" />
    <glyph glyph-name="Uacute" unicode="&#xda;" 
d="M-382 856c6 -2 10.3311 -4.66699 12.998 -8l7 -11l13 -12l22 -6c6 0 9 2.66699 9 8l-4 6l-7 1l-6 2l-3 5c2 4 4.33301 6.33301 7 7l22 5l24 5c16.667 6.66699 28.334 13.667 35.001 21l8 10l9 11c8.66699 7.33301 19.667 11 33 11c7.33301 0 14.333 -1.83301 21 -5.5
s11 -10.834 13 -21.501c-5.33301 4 -12.333 6.66699 -21 8c-7.33301 0 -13.666 -4 -18.999 -12l-2 -13l-5 -19c0 -6 -4 -14.667 -12 -26l-30 -27c-21.333 -17.333 -48.333 -26 -81 -26c-34 0 -62 8 -84 24c-12 6 -25.333 20.333 -40 43c-2 3.33301 -4.66699 8.83301 -8 16.5
s-5 16.834 -5 27.501l1 7v9c3.33301 6 8.5 11.167 15.5 15.5s16.5 7.5 28.5 9.5h18l13 -4l4 -13c-14.667 0 -26 -2 -34 -6l-4 -9l5 -9c9.33301 -8.66699 24 -16.667 44 -24zM-440.002 1077c0 27.333 10.8311 48.8291 32.498 64.4961s45.834 23.5 72.501 23.5
c24.667 0 45 -4.66699 61 -14c8 -4 16 -10 24 -18l18 -21c7.33301 -13.333 11 -27.666 11 -42.999s-3.33301 -28.666 -10 -39.999c-9.33301 -16 -32 -34.333 -68 -55c-20 -11.333 -30 -23.666 -30 -36.999l2 -3l1 -4h20l6 3l2 5l-3 5l-4 2c3.33301 10 11 15 23 15
c-2 -2.66699 -3.66699 -6.66699 -5 -12l3 -6l6 -4c4.66699 -4 8 -10.667 10 -20c0 -8.66699 -7.66699 -13 -23 -13h-49c-13.333 0 -20.333 5.33301 -21 16c0 12.667 3.66699 27.334 11 44.001l32 42l8 9l7 8l5 9c5.33301 8.66699 9.66602 22.667 12.999 42
c0 16 -4.66699 28.667 -14 38s-20 14 -32 14c-15.333 0 -26.5 -3.66699 -33.5 -11s-11.833 -14.666 -14.5 -21.999c0 -7.33301 1.83301 -13.833 5.5 -19.5s9.83398 -8.5 18.501 -8.5c6 0 10 2.33301 12 7c4 4 8.33301 6 13 6s10.667 -2.66699 18 -8l-5 -3l-4 -4l2 -6v-9
c0 -12 -3.66699 -20.333 -11 -25l-17 -8c-5.33301 -2 -13.666 -3.66699 -24.999 -5c-19.333 0 -35.5 6.16699 -48.5 18.5s-19.5 28.166 -19.5 47.499z" />
    <glyph glyph-name="Ucircumflex" unicode="&#xdb;" 
d="M-433 955c0 27.333 10.8311 48.832 32.498 64.499s45.834 23.5 72.501 23.5l34 -3c10.667 -2 19.667 -5.66699 27 -11c18 -10 32 -23 42 -39c7.33301 -13.333 11 -27.666 11 -42.999c0 -16 -3.33301 -29.333 -10 -40c-4 -8 -12 -17 -24 -27l-44 -28
c-18 -10 -28 -22.333 -30 -37l2 -3l1 -4h20l6 3l2 5l-3 5l-4 2c3.33301 10 11 15 23 15l-5 -12c0.666992 -1.33301 1.66699 -3 3 -5s3.33301 -3.66699 6 -5c4.66699 -4 8 -10.667 10 -20c0 -8.66699 -7.66699 -13 -23 -13h-49c-14 0 -21 5.33301 -21 16
c0 15.333 3.66699 30 11 44l15 21l17 21l10 11l6 8l4 7c8.66699 13.333 13 27.333 13 42c0 10 -2 19.667 -6 29c-5.33301 6.66699 -11.333 12.334 -18 17.001l-22 6c-7.33301 0 -14 -1.33301 -20 -4c-6 0 -11 -3 -15 -9c-6.66699 -6.66699 -11 -13.334 -13 -20.001
c0 -8.66699 1.83301 -15.5 5.5 -20.5s9.83398 -7.5 18.501 -7.5c6 0 10 2.33301 12 7c4 4 8.33301 6 13 6l7 -2l11 -6l-6 -3l-3 -4l2 -6v-9c0 -12 -3.66699 -20.333 -11 -25c-15.333 -8.66699 -29.333 -13 -42 -13c-18 0 -33.833 6.5 -47.5 19.5s-20.5 28.5 -20.5 46.5z" />
    <glyph glyph-name="Udieresis" unicode="&#xdc;" 
d="M-382 856c6 -2 10.3311 -4.66699 12.998 -8l7 -11l13 -12l22 -6c6 0 9 2.66699 9 8l-4 6l-7 1l-6 2l-3 5c2 4 4.33301 6.33301 7 7l22 5l24 5c16.667 6.66699 28.334 13.667 35.001 21l8 10l9 11c8.66699 7.33301 19.667 11 33 11c7.33301 0 14.333 -1.83301 21 -5.5
s11 -10.834 13 -21.501c-5.33301 4 -12.333 6.66699 -21 8c-7.33301 0 -13.666 -4 -18.999 -12l-2 -13l-5 -19c0 -6 -4 -14.667 -12 -26l-30 -27c-21.333 -17.333 -48.333 -26 -81 -26c-34 0 -62 8 -84 24c-12 6 -25.333 20.333 -40 43c-2 3.33301 -4.66699 8.83301 -8 16.5
s-5 16.834 -5 27.501l1 7v9c3.33301 6 8.5 11.167 15.5 15.5s16.5 7.5 28.5 9.5h18l13 -4l4 -13c-14.667 0 -26 -2 -34 -6l-4 -9l5 -9c9.33301 -8.66699 24 -16.667 44 -24zM-430.002 992c0 20.667 7.99902 40.6699 23.999 60.0029s36.333 29 61 29c6 0 30.667 -6 74 -18
c26 -8.66699 46.333 -14 61 -16c16 0 26.333 1.16699 31 3.5s11.334 10.166 20.001 23.499l5 8l7 4c4 -2.66699 6.66699 -5 8 -7l1 -26c0 -20 -8.66699 -38.667 -26 -56c-12 -13.333 -31 -20 -57 -20c-17.333 0 -40.333 4.33301 -69 13l-27 9l-27 9l-21 5
c-10 0 -16.667 -2.33301 -20 -7s-6 -10.334 -8 -17.001l1 -6l3 -4l21 9l20 6l4 -5l-7 -19c-5.33301 -10 -15.333 -15 -30 -15c-8.66699 0 -19 2.33301 -31 7c-4 1.33301 -8 4.66602 -12 9.99902s-6 12 -6 20z" />
    <glyph glyph-name="Yacute" unicode="&#xdd;" horiz-adv-x="667" 
d="M284 293l-181 246c-7.33301 12 -18.666 21 -33.999 27c-16 7.33301 -24 13.333 -24 18c0 8 6.33301 14.333 19 19l141 49l15 5l5 3l3 4c0 4 -15 6 -45 6h-57c-12 0 -22.167 -0.666992 -30.5 -2s-15.166 -3 -20.499 -5c-13.333 -5.33301 -20 -13.333 -20 -24
c0 -6 3.33301 -12.667 10 -20c-32.667 0 -57.334 3.66699 -74.001 11c-20 9.33301 -30 24.666 -30 45.999c0 15.333 6.33301 25.833 19 31.5s29 8.5 49 8.5h260h33l20 -6c8.66699 -2 13 -9.33301 13 -22c0 -8.66699 -22.333 -22 -67 -40s-67 -30.667 -67 -38
c0 -2.66699 0.666992 -5.5 2 -8.5s4.33301 -7.5 9 -13.5l21 -30l133 -175c38.667 34 70 65.333 94 94c37.333 46.667 56 87.334 56 122.001c0 12 -3 21 -9 27l-11 6l-17 2c-13.333 0 -23.833 -0.5 -31.5 -1.5s-13.334 -1.83301 -17.001 -2.5s-10.834 -2.66699 -21.501 -6
l-52 -13l-65 -16l-26.5 -5c-7 -1.33301 -14.5 -2 -22.5 -2c-10.667 0 -16.334 4.33301 -17.001 13c2 5.33301 3.66699 8.66602 5 9.99902c4 3.33301 14 7.33301 30 12l173 57c74 24 117 36 129 36c17.333 0 33.166 -4.83301 47.499 -14.5s21.5 -23.834 21.5 -42.501
c0 -33.333 -32 -88.666 -96 -165.999c-26 -30.667 -52 -59 -78 -85c-22 -22 -44 -41 -66 -57v-242c0 -6.66699 16 -19.5 48 -38.5s48 -33.833 48 -44.5c0 -7.33301 -9.33301 -15 -28 -23l-44 -9l-25 1l-63 5l-52 -3l-36 -3c-7.33301 0 -13.166 0.5 -17.499 1.5
s-12.166 3.16699 -23.499 6.5c-19.333 6.66699 -29.666 14.667 -30.999 24c0 9.33301 16 23.333 48 42s48 32.334 48 41.001v184zM459 894c0 -17.333 -20 -41.499 -60 -72.499s-74.667 -46.5 -104 -46.5c-12 0 -18 3.66699 -18 11c0 3.33301 4 9.66602 12 18.999l26 28
l22 30l17 27c8.66699 12.667 18.667 19 30 19l28 -2l30 2c9.33301 0 15 -5 17 -15z" />
    <glyph glyph-name="Thorn" unicode="&#xde;" horiz-adv-x="648" 
d="M103 115l-0.000976562 472.997c0 21.333 -18.667 43.666 -56 66.999c-18 10 -27.333 19.333 -28 28c0 10.667 13.333 19.334 40 26.001l49 5l70 2l96 -2c12.667 -2 19 -6.66699 19 -14c0 -5.33301 -10.333 -15.333 -31 -30s-31 -34.667 -31 -60h62
c94 0 167.667 -16.333 221 -49c66 -40 99 -104 99 -192c0 -56 -22 -102.667 -66 -140c-20 -16 -42.667 -28.167 -68 -36.5s-52.666 -12.5 -81.999 -12.5c-45.333 0 -85 10 -119 30c-38 23.333 -57 57.333 -57 102c0 13.333 2 24.833 6 34.5s9.33301 18.5 16 26.5l15 14l5 5
l2 4l-3 9l-4 4l12 5c6 2 14 3 24 3c14 0 26.667 -3.66699 38 -11s17 -19 17 -35c0 -23.333 2.83301 -39.666 8.5 -48.999s19.834 -14 42.501 -14c24.667 0 44 9 58 27c10 14 15 30.333 15 49c0 52.667 -16.333 94.834 -49 126.501s-74 47.5 -124 47.5l-32 -1
c-6.66699 0 -14.334 -2.66699 -23.001 -8c-9.33301 -4 -14 -12.667 -14 -26v-133c-10.667 -8.66699 -19 -19.334 -25 -32.001c-2.66699 -5.33301 -4.66699 -11.5 -6 -18.5s-2 -15.5 -2 -25.5c0 -18 2.5 -33.667 7.5 -47s13.5 -26 25.5 -38v-110
c0 -11.333 15.833 -26.666 47.5 -45.999s47.5 -34.333 47.5 -45c0 -9.33301 -8 -17.666 -24 -24.999c-15.333 -6 -30 -9 -44 -9l-38 3l-42 3l-51 -3l-43 -3c-12 0 -26.333 3 -43 9s-26 14.333 -28 25c0 7.33301 15 21 45 41c30 18 45 33.333 45 46z" />
    <glyph glyph-name="germandbls" unicode="&#xdf;" horiz-adv-x="667" 
d="M224 501l0.00195312 -459.001c0 -32 -10 -48 -30 -48l-27 3l-25 3l-15 -1l-35 -5c-16 0 -34 6 -54 18c-10.667 6.66699 -16.334 13.334 -17.001 20.001c0 7.33301 12.667 16 38 26c24.667 8 37 18 37 30v485c0 12.667 -16.167 29 -48.5 49s-48.5 35.667 -48.5 47
c0 18.667 15.667 31.167 47 37.5s103.333 9.5 216 9.5c106.667 0 175.5 -3.16699 206.5 -9.5s46.5 -21.166 46.5 -44.499c0 -27.333 -30.333 -63.333 -91 -108s-91 -72.667 -91 -84c0 -5.33301 25.667 -22.333 77 -51c64 -36 112 -70 144 -102c52 -52 78 -108.667 78 -170
c0 -42 -12 -78 -36 -108s-50 -45 -78 -45l-53 3l-53 3l-47 -3l-36 -3c-26.667 0 -47.834 6.83301 -63.501 20.5s-23.5 33.167 -23.5 58.5c0 22 6.33301 41.667 19 59l44 45c0 8 -1.5 14.833 -4.5 20.5s-8.16699 12.167 -15.5 19.5c14.667 10.667 30.667 16 48 16
c11.333 0 22.166 -4.5 32.499 -13.5s15.5 -19.5 15.5 -31.5l-2 -16l-2 -16c0 -10.667 6.66699 -16 20 -16l31 3l33 -3c8 0 15.167 5.16699 21.5 15.5s9.5 24.166 9.5 41.499c0 38.667 -25 80 -75 124l-154 130c0 20.667 13 45 39 73c56.667 60.667 85 98 85 112
c0 12 -11.667 21 -35 27c-13.333 2 -28.166 3.66699 -44.499 5s-34.5 2 -54.5 2c-84.667 0 -127 -8 -127 -24c0 -10 23 -21 69 -33l28 -5l24 -3c16.667 0 25 -6.33301 25 -19c0 -8 -8 -17.833 -24 -29.5s-24 -30.167 -24 -55.5z" />
    <glyph glyph-name="agrave" unicode="&#xe0;" 
d="M-249 620l-12.999 10.999l-10 7c-12 12 -25 18 -39 18l-13 -3l-2 -5c0 -8 8.66699 -13 26 -15l2 -4l-5 -5l-6 -3l-20 -13l-24 -14l-36 -11l-16 -4c-7.33301 0 -12.333 -0.666992 -15 -2l-12 3l-4 3l-2 2l9 15l19 16l19 16c8.66699 8.66699 22 19.334 40 32.001l18 9
l24 13l5 7c0 4 -9.66699 7.33301 -29 10l-8 3l-3 5l3 5l20 5c8.66699 3.33301 20 5 34 5c10.667 0 17.334 -0.666992 20.001 -2c17.333 -4 34.666 -18 51.999 -42c7.33301 -13.333 18.666 -26 33.999 -38l18 -16l14 -12l18 -16l6 -9l3 -6c0 -3.33301 -4.33301 -6 -13 -8
c-22 0 -42.667 3.66699 -62 11l-15 8l-17 9zM-314.999 846.999c0 3.33301 2 7.33301 6 12s8.66699 7.33398 14 8.00098h63c6.66699 0 15.667 -3.66699 27 -11c10 -8 16.167 -17.333 18.5 -28s5.83301 -19.334 10.5 -26.001l16 -17l12 -11l20 -26
c2 -2.66699 3.66699 -7.66699 5 -15c0 -8 -6.33301 -12 -19 -12c-28 0 -62.667 14.333 -104 43c-46 32 -69 59.667 -69 83z" />
    <glyph glyph-name="aacute" unicode="&#xe1;" 
d="M-249 620l-12.999 10.999l-10 7c-12 12 -25 18 -39 18l-13 -3l-2 -5c0 -8 8.66699 -13 26 -15l2 -4l-5 -5l-6 -3l-20 -13l-24 -14l-36 -11l-16 -4c-7.33301 0 -12.333 -0.666992 -15 -2l-12 3l-4 3l-2 2l9 15l19 16l19 16c8.66699 8.66699 22 19.334 40 32.001l18 9
l24 13l5 7c0 4 -9.66699 7.33301 -29 10l-8 3l-3 5l3 5l20 5c8.66699 3.33301 20 5 34 5c10.667 0 17.334 -0.666992 20.001 -2c17.333 -4 34.666 -18 51.999 -42c7.33301 -13.333 18.666 -26 33.999 -38l18 -16l14 -12l18 -16l6 -9l3 -6c0 -3.33301 -4.33301 -6 -13 -8
c-22 0 -42.667 3.66699 -62 11l-15 8l-17 9zM10.001 820.999c0 -21.333 -22.998 -48.999 -68.998 -82.999c-40.667 -28.667 -75.334 -43 -104.001 -43c-12.667 0 -19 4 -19 12c0 6 1.66699 11 5 15l20 25c1.33301 2 2.83301 4 4.5 6s4.16699 4 7.5 6l16 17
c3.33301 5.33301 6.66602 13.666 9.99902 24.999c0.666992 9.33301 7 19 19 29c10.667 6 19.667 9.66699 27 11h63c6 0 11 -2.33301 15 -7c2 -2.66699 3.66699 -7 5 -13z" />
    <glyph glyph-name="acircumflex" unicode="&#xe2;" 
d="M-249 620l-12.999 10.999l-10 7c-12 12 -25 18 -39 18l-13 -3l-2 -5c0 -8 8.66699 -13 26 -15l2 -4l-5 -5l-6 -3l-20 -13l-24 -14l-36 -11l-16 -4c-7.33301 0 -12.333 -0.666992 -15 -2l-12 3l-4 3l-2 2l9 15l19 16l19 16c8.66699 8.66699 22 19.334 40 32.001l18 9
l24 13l5 7c0 4 -9.66699 7.33301 -29 10l-8 3l-3 5l3 5l20 5c8.66699 3.33301 20 5 34 5c10.667 0 17.334 -0.666992 20.001 -2c17.333 -4 34.666 -18 51.999 -42c7.33301 -13.333 18.666 -26 33.999 -38l18 -16l14 -12l18 -16l6 -9l3 -6c0 -3.33301 -4.33301 -6 -13 -8
c-22 0 -42.667 3.66699 -62 11l-15 8l-17 9z" />
    <glyph glyph-name="atilde" unicode="&#xe3;" 
d="M-249 620l-12.999 10.999l-10 7c-12 12 -25 18 -39 18l-13 -3l-2 -5c0 -8 8.66699 -13 26 -15l2 -4l-5 -5l-6 -3l-20 -13l-24 -14l-36 -11l-16 -4c-7.33301 0 -12.333 -0.666992 -15 -2l-12 3l-4 3l-2 2l9 15l19 16l19 16c8.66699 8.66699 22 19.334 40 32.001l18 9
l24 13l5 7c0 4 -9.66699 7.33301 -29 10l-8 3l-3 5l3 5l20 5c8.66699 3.33301 20 5 34 5c10.667 0 17.334 -0.666992 20.001 -2c17.333 -4 34.666 -18 51.999 -42c7.33301 -13.333 18.666 -26 33.999 -38l18 -16l14 -12l18 -16l6 -9l3 -6c0 -3.33301 -4.33301 -6 -13 -8
c-22 0 -42.667 3.66699 -62 11l-15 8l-17 9zM-425.999 798.999c0 20.667 8.00195 41 24.002 61c5.33301 6.66699 14.333 13.334 27 20.001l16 6l18 2l74 -18c28.667 -9.33301 49 -14.666 61 -15.999c15.333 0 25 0.833008 29 2.5s11.333 9.83398 22 24.501l5 8l7 4
c4 -2.66699 6.66699 -5.33398 8 -8.00098l1 -25c0 -6.66699 -0.333008 -11.667 -1 -15s-2.83398 -9.33301 -6.50098 -18s-9.83398 -16.334 -18.501 -23.001c-12 -13.333 -31 -20 -57 -20c-16 0 -39 4.33301 -69 13l-26 9l-28 9l-21 5c-14.667 0 -24 -8 -28 -24
c0 -6 1.33301 -9.33301 4 -10l9 3l12 6l20 6l4 -5l-7 -19c-5.33301 -10 -15.333 -15 -30 -15c-8.66699 0 -19 2.33301 -31 7c-4 1.33301 -8 4.66602 -12 9.99902s-6 12 -6 20z" />
    <glyph glyph-name="adieresis" unicode="&#xe4;" 
d="M-249 620l-12.999 10.999l-10 7c-12 12 -25 18 -39 18l-13 -3l-2 -5c0 -8 8.66699 -13 26 -15l2 -4l-5 -5l-6 -3l-20 -13l-24 -14l-36 -11l-16 -4c-7.33301 0 -12.333 -0.666992 -15 -2l-12 3l-4 3l-2 2l9 15l19 16l19 16c8.66699 8.66699 22 19.334 40 32.001l18 9
l24 13l5 7c0 4 -9.66699 7.33301 -29 10l-8 3l-3 5l3 5l20 5c8.66699 3.33301 20 5 34 5c10.667 0 17.334 -0.666992 20.001 -2c17.333 -4 34.666 -18 51.999 -42c7.33301 -13.333 18.666 -26 33.999 -38l18 -16l14 -12l18 -16l6 -9l3 -6c0 -3.33301 -4.33301 -6 -13 -8
c-22 0 -42.667 3.66699 -62 11l-15 8l-17 9zM-346.999 -144.001c0 7.33301 2 15.6689 6 25.002s8.66699 15.666 14 18.999c12.667 12.667 28.667 19 48 19c14 0 31 -5 51 -15c8 -6 14.333 -13.333 19 -22c2 -6 3.66699 -14.667 5 -26c0 -17.333 -8 -30.666 -24 -39.999
c-22.667 -10.667 -39.667 -16 -51 -16c-18 0 -34 4 -48 12c-4 1.33301 -8.33301 6.66602 -13 15.999s-7 18.666 -7 27.999z" />
    <glyph glyph-name="aring" unicode="&#xe5;" 
d="M-249 620l-12.999 10.999l-10 7c-12 12 -25 18 -39 18l-13 -3l-2 -5c0 -8 8.66699 -13 26 -15l2 -4l-5 -5l-6 -3l-20 -13l-24 -14l-36 -11l-16 -4c-7.33301 0 -12.333 -0.666992 -15 -2l-12 3l-4 3l-2 2l9 15l19 16l19 16c8.66699 8.66699 22 19.334 40 32.001l18 9
l24 13l5 7c0 4 -9.66699 7.33301 -29 10l-8 3l-3 5l3 5l20 5c8.66699 3.33301 20 5 34 5c10.667 0 17.334 -0.666992 20.001 -2c17.333 -4 34.666 -18 51.999 -42c7.33301 -13.333 18.666 -26 33.999 -38l18 -16l14 -12l18 -16l6 -9l3 -6c0 -3.33301 -4.33301 -6 -13 -8
c-22 0 -42.667 3.66699 -62 11l-15 8l-17 9zM-263.999 844.999c0 27.333 10.332 48.999 30.999 64.999c23.333 15.333 48 23 74 23c24 0 44.667 -5 62 -15s30.333 -22.167 39 -36.5s13 -29.166 13 -44.499c0 -16 -3.33301 -29.333 -10 -40
c-8 -15.333 -30.667 -33.666 -68 -54.999c-18 -10 -28 -22.333 -30 -37l2 -3l1 -4h20l6 3l2 5l-3 5l-4 2c3.33301 10 11 15 23 15l-5 -12c0.666992 -1.33301 1.66699 -3 3 -5s3.33301 -3.66699 6 -5c6 -6 9.33301 -12.667 10 -20c0 -8.66699 -7.66699 -13 -23 -13h-49
c-14 0 -21 5.33301 -21 16c0 15.333 3.33301 29.166 10 41.499s17.667 27.166 33 44.499l8 9l5 6l3 4l4 7c8.66699 10.667 13 24.667 13 42c0 16 -4.5 28.667 -13.5 38s-19.833 14 -32.5 14c-15.333 0 -26.5 -3.66699 -33.5 -11s-11.833 -14.666 -14.5 -21.999
c0 -8.66699 1.83301 -15.5 5.5 -20.5s9.83398 -7.5 18.501 -7.5c6 0 10 2.33301 12 7c4 4 8.33301 6 13 6s10.667 -2.66699 18 -8l-6 -3l-3 -4l2 -6v-9c0 -12 -3.66699 -20.333 -11 -25c-13.333 -8.66699 -27.333 -13 -42 -13c-18.667 0 -34.667 6.5 -48 19.5
s-20 28.5 -20 46.5z" />
    <glyph glyph-name="ae" unicode="&#xe6;" horiz-adv-x="296" 
d="M84 85l-0.000976562 376.999l-24 9l-18 9c-9.33301 6 -14.666 13 -15.999 21c0 14 15.667 21 47 21h145c18.667 0 31.667 -1.66699 39 -5c8.66699 -2 13 -7.33301 13 -16c0 -6 -5.33301 -13.333 -16 -22c-4.66699 -2.66699 -10.5 -5.5 -17.5 -8.5
s-15.167 -5.83301 -24.5 -8.5v-377l9 -8l31 -23c12 -7.33301 18 -14.666 18 -21.999c0 -6 -8.83301 -13.333 -26.5 -22s-32.5 -13 -44.5 -13l-51 3l-47 -3c-8 0 -15.5 0.666992 -22.5 2s-15.833 4.33301 -26.5 9c-16 8 -24.667 16 -26 24c0 8 9.33301 17.5 28 28.5
s28.667 19.167 30 24.5zM38.999 744.999c0 27.333 10.499 48.8291 31.499 64.4961s45.5 23.5 73.5 23.5c24.667 0 45 -4.66699 61 -14c8.66699 -4 16.667 -10.333 24 -19l18 -20c7.33301 -13.333 11 -27.666 11 -42.999c0 -16 -3.33301 -29.333 -10 -40
c-9.33301 -16 -32 -34.333 -68 -55c-20 -11.333 -30 -23.666 -30 -36.999l1 -3l2 -4h20l6 3l2 5l-4 5l-3 2c3.33301 10 11 15 23 15c-2 -2.66699 -3.66699 -6.66699 -5 -12l2 -4l8 -8c4 -2 7 -8 9 -18c0 -8.66699 -7.66699 -13 -23 -13h-49
c-13.333 0 -20.333 5.33301 -21 16c0 12.667 3.66699 27.334 11 44.001c2.66699 4.66699 7 11.167 13 19.5s12.333 15.833 19 22.5l14 18l6 8c5.33301 8.66699 9.66602 22.667 12.999 42c0 16 -4.66699 28.667 -14 38s-20 14 -32 14l-20 -3
c-6.66699 -2 -11.667 -5.33301 -15 -10c-4.66699 -4 -9 -10.667 -13 -20c0 -8 1.83301 -14.667 5.5 -20s9.83398 -8 18.501 -8c6 0 10 2.33301 12 7c4 4 8.33301 6 13 6s10.667 -2.66699 18 -8l-6 -3l-3 -4l2 -6v-9c0 -12 -3.66699 -20.333 -11 -25l-17 -8
c-5.33301 -2 -13.666 -3.66699 -24.999 -5c-19.333 0 -35.5 6.33301 -48.5 19s-19.5 28.334 -19.5 47.001z" />
    <glyph glyph-name="ccedilla" unicode="&#xe7;" horiz-adv-x="519" 
d="M296 528c56.667 0 99.832 -9.33203 129.499 -27.999s44.5 -47 44.5 -85c0 -23.333 -9.16699 -43.166 -27.5 -59.499s-41.166 -24.5 -68.499 -24.5c-19.333 0 -36.666 6.66699 -51.999 20l-26 19c-8 0 -13 -3.66699 -15 -11c-10.667 5.33301 -16 14.333 -16 27
c0 8 3.66699 16.667 11 26c7.33301 5.33301 16.666 8.66602 27.999 9.99902l21 -1l17 -2c10 0 16 5 18 15c0 9.33301 -8.83301 18.666 -26.5 27.999s-34.834 14 -51.501 14c-46 0 -82 -16 -108 -48c-23.333 -32.667 -35 -74 -35 -124c0 -60 12.333 -102.667 37 -128
c28 -28 79.333 -42 154 -42c29.333 0 55.666 5 78.999 15c26.667 12 44.334 31.333 53.001 58c16.667 -2 30.667 -11.5 42 -28.5s17 -34.167 17 -51.5c0 -38 -12.667 -69.667 -38 -95c-12 -12 -25.667 -21.333 -41 -28s-31 -10 -47 -10l-61 3l-42 3l-31 -1l-61 -5
c-42 0 -81 23 -117 69s-54 102.667 -54 170c0 91.333 23.333 163.333 70 216s112.334 79 197.001 79zM308.998 6.00098l-26 -48l18 2l27 1c14 0 25.667 -4.66699 35 -14s14 -22 14 -38c0 -19.333 -7.33301 -35.833 -22 -49.5s-32.334 -20.5 -53.001 -20.5l-22 1
c-8.66699 0 -17 1.33301 -25 4l-29 4c-12.667 0 -20.667 -0.666992 -24 -2l-14 -11c2 10 7 21 15 33c5.33301 7.33301 13.333 12 24 14l53 -3c8 0 14.333 2.33301 19 7s7.33398 10.667 8.00098 18c0 15.333 -8.33301 23 -25 23l-19 -3l-16 -3c-10 0 -15.333 3.66699 -16 11
c0 6 3 14 9 24l29 50h40z" />
    <glyph glyph-name="egrave" unicode="&#xe8;" 
d="M-342 656c9.33301 -4 15.168 -8.66797 17.501 -14.001s7.5 -11 15.5 -17c10 -4 17.333 -6 22 -6c6 0 9 2.66699 9 8c0 3.33301 -3.66699 6 -11 8c-4 0 -7 2 -9 6c0.666992 2 1.66699 3.33301 3 4s2.33301 1.33398 3 2.00098l22 6l25 5c18 7.33301 29.667 14.333 35 21
l9 11l8 10c8.66699 7.33301 19.667 11 33 11c19.333 0 30.666 -9 33.999 -27c-4 3.33301 -11 6 -21 8c-6.66699 0 -13 -4 -19 -12l-2 -13l-5 -19c-2 -6.66699 -6 -15.334 -12 -26.001l-30 -27c-7.33301 -6 -18.333 -12 -33 -18l-21 -6l-27 -2c-32.667 0 -60.667 8 -84 24
c-12 6 -25.333 20.333 -40 43c-2 3.33301 -4.66699 8.83301 -8 16.5s-5 16.834 -5 27.501l1 7v9c2 6 8.33301 12 19 18c6 4.66699 14.333 7 25 7h18l13 -4l4 -13c-14.667 0 -26 -2 -34 -6l-4 -9l5 -9c4 -2.66699 9.66699 -6.16699 17 -10.5s16.333 -8.83301 27 -13.5z
M-444.998 845.999c0 3.33301 1.66504 7.33203 4.99805 11.999s8.33301 7.33398 15 8.00098h63c6.66699 0 15.834 -4 27.501 -12s17.834 -16.333 18.501 -25l7 -24l11 -13l12 -10l8 -9c3.33301 -6 10 -14.667 20 -26c2 -2.66699 3.66699 -7.66699 5 -15
c0 -8 -6.33301 -12 -19 -12c-28 0 -62.667 14.333 -104 43c-46 32 -69 59.667 -69 83z" />
    <glyph glyph-name="eacute" unicode="&#xe9;" 
d="M-342 656c9.33301 -4 15.168 -8.66797 17.501 -14.001s7.5 -11 15.5 -17c10 -4 17.333 -6 22 -6c6 0 9 2.66699 9 8c0 3.33301 -3.66699 6 -11 8c-4 0 -7 2 -9 6c0.666992 2 1.66699 3.33301 3 4s2.33301 1.33398 3 2.00098l22 6l25 5c18 7.33301 29.667 14.333 35 21
l9 11l8 10c8.66699 7.33301 19.667 11 33 11c19.333 0 30.666 -9 33.999 -27c-4 3.33301 -11 6 -21 8c-6.66699 0 -13 -4 -19 -12l-2 -13l-5 -19c-2 -6.66699 -6 -15.334 -12 -26.001l-30 -27c-7.33301 -6 -18.333 -12 -33 -18l-21 -6l-27 -2c-32.667 0 -60.667 8 -84 24
c-12 6 -25.333 20.333 -40 43c-2 3.33301 -4.66699 8.83301 -8 16.5s-5 16.834 -5 27.501l1 7v9c2 6 8.33301 12 19 18c6 4.66699 14.333 7 25 7h18l13 -4l4 -13c-14.667 0 -26 -2 -34 -6l-4 -9l5 -9c4 -2.66699 9.66699 -6.16699 17 -10.5s16.333 -8.83301 27 -13.5z
M-132.998 845.999c0 -21.333 -23.001 -49.001 -69.001 -83.001c-43.333 -28.667 -78 -43 -104 -43c-11.333 0 -17.666 4 -18.999 12c0 6.66699 1.66699 11.667 5 15l20 26l7 8l12 10l12 15l7 23c0 6.66699 6.33301 15.334 19 26.001c11.333 6 20.333 9.66699 27 11h63
c4 0 8.33301 -2 13 -6s7 -8.66699 7 -14z" />
    <glyph glyph-name="ecircumflex" unicode="&#xea;" 
d="M-342 656c9.33301 -4 15.168 -8.66797 17.501 -14.001s7.5 -11 15.5 -17c10 -4 17.333 -6 22 -6c6 0 9 2.66699 9 8c0 3.33301 -3.66699 6 -11 8c-4 0 -7 2 -9 6c0.666992 2 1.66699 3.33301 3 4s2.33301 1.33398 3 2.00098l22 6l25 5c18 7.33301 29.667 14.333 35 21
l9 11l8 10c8.66699 7.33301 19.667 11 33 11c19.333 0 30.666 -9 33.999 -27c-4 3.33301 -11 6 -21 8c-6.66699 0 -13 -4 -19 -12l-2 -13l-5 -19c-2 -6.66699 -6 -15.334 -12 -26.001l-30 -27c-7.33301 -6 -18.333 -12 -33 -18l-21 -6l-27 -2c-32.667 0 -60.667 8 -84 24
c-12 6 -25.333 20.333 -40 43c-2 3.33301 -4.66699 8.83301 -8 16.5s-5 16.834 -5 27.501l1 7v9c2 6 8.33301 12 19 18c6 4.66699 14.333 7 25 7h18l13 -4l4 -13c-14.667 0 -26 -2 -34 -6l-4 -9l5 -9c4 -2.66699 9.66699 -6.16699 17 -10.5s16.333 -8.83301 27 -13.5z" />
    <glyph glyph-name="edieresis" unicode="&#xeb;" 
d="M-342 656c9.33301 -4 15.168 -8.66797 17.501 -14.001s7.5 -11 15.5 -17c10 -4 17.333 -6 22 -6c6 0 9 2.66699 9 8c0 3.33301 -3.66699 6 -11 8c-4 0 -7 2 -9 6c0.666992 2 1.66699 3.33301 3 4s2.33301 1.33398 3 2.00098l22 6l25 5c18 7.33301 29.667 14.333 35 21
l9 11l8 10c8.66699 7.33301 19.667 11 33 11c19.333 0 30.666 -9 33.999 -27c-4 3.33301 -11 6 -21 8c-6.66699 0 -13 -4 -19 -12l-2 -13l-5 -19c-2 -6.66699 -6 -15.334 -12 -26.001l-30 -27c-7.33301 -6 -18.333 -12 -33 -18l-21 -6l-27 -2c-32.667 0 -60.667 8 -84 24
c-12 6 -25.333 20.333 -40 43c-2 3.33301 -4.66699 8.83301 -8 16.5s-5 16.834 -5 27.501l1 7v9c2 6 8.33301 12 19 18c6 4.66699 14.333 7 25 7h18l13 -4l4 -13c-14.667 0 -26 -2 -34 -6l-4 -9l5 -9c4 -2.66699 9.66699 -6.16699 17 -10.5s16.333 -8.83301 27 -13.5z
M-352.998 -144.001c0 9.33301 1.83301 17.666 5.5 24.999s8.5 13.666 14.5 18.999c12.667 12.667 28.667 19 48 19c14 0 31 -5 51 -15c8 -6 14.333 -13.333 19 -22c2 -6 3.66699 -14.667 5 -26c0 -17.333 -8 -30.666 -24 -39.999c-22.667 -10.667 -39.667 -16 -51 -16
c-18 0 -34 4 -48 12c-5.33301 3.33301 -10 9.33301 -14 18s-6 17.334 -6 26.001z" />
    <glyph glyph-name="igrave" unicode="&#xec;" horiz-adv-x="296" 
d="M84 85l-0.000976562 376.999l-24 9l-18 9c-9.33301 6 -14.666 13 -15.999 21c0 14 15.667 21 47 21h145c18.667 0 31.667 -1.66699 39 -5c8.66699 -2 13 -7.33301 13 -16c0 -6 -5.33301 -13.333 -16 -22c-4.66699 -2.66699 -10.5 -5.5 -17.5 -8.5
s-15.167 -5.83301 -24.5 -8.5v-377l9 -8l31 -23c12 -7.33301 18 -14.666 18 -21.999c0 -6 -8.83301 -13.333 -26.5 -22s-32.5 -13 -44.5 -13l-51 3l-47 -3c-8 0 -15.5 0.666992 -22.5 2s-15.833 4.33301 -26.5 9c-16 8 -24.667 16 -26 24c0 8 9.33301 17.5 28 28.5
s28.667 19.167 30 24.5zM26.999 718.999c0 4.66699 1.5 8.83398 4.5 12.501s8.16699 6.16699 15.5 7.5h63c6 0 15 -3.66699 27 -11c12 -8.66699 18.333 -17.334 19 -26.001l7 -24l11 -13l12 -10l8 -9c3.33301 -6 10 -14.667 20 -26c2 -2.66699 3.66699 -7.66699 5 -15
c0 -8 -6.33301 -12 -19 -12c-28 0 -62.667 14.333 -104 43c-46 32 -69 59.667 -69 83z" />
    <glyph glyph-name="iacute" unicode="&#xed;" horiz-adv-x="296" 
d="M84 85l-0.000976562 376.999l-24 9l-18 9c-9.33301 6 -14.666 13 -15.999 21c0 14 15.667 21 47 21h145c18.667 0 31.667 -1.66699 39 -5c8.66699 -2 13 -7.33301 13 -16c0 -6 -5.33301 -13.333 -16 -22c-4.66699 -2.66699 -10.5 -5.5 -17.5 -8.5
s-15.167 -5.83301 -24.5 -8.5v-377l9 -8l31 -23c12 -7.33301 18 -14.666 18 -21.999c0 -6 -8.83301 -13.333 -26.5 -22s-32.5 -13 -44.5 -13l-51 3l-47 -3c-8 0 -15.5 0.666992 -22.5 2s-15.833 4.33301 -26.5 9c-16 8 -24.667 16 -26 24c0 8 9.33301 17.5 28 28.5
s28.667 19.167 30 24.5zM263.999 718.999c0 -21.333 -23 -49.001 -69 -83.001c-40 -28.667 -74.667 -43 -104 -43c-12.667 0 -19 4 -19 12c0 6 1.66699 11 5 15c10.667 12.667 17 21.334 19 26.001l13 12c6 4 10.833 8.66699 14.5 14s7.5 15.333 11.5 30
c0.666992 7.33301 7 16 19 26c7.33301 5.33301 16.333 9 27 11h63c6 0 11 -2 15 -6z" />
    <glyph glyph-name="icircumflex" unicode="&#xee;" horiz-adv-x="574" 
d="M233 84l-192 352.999c-3.33301 7.33301 -13.333 18.5 -30 33.5s-25 26.167 -25 33.5c0 6.66699 2.66699 11 8 13s10 3.33301 14 4s10.667 1 20 1h248c21.333 0 32 -6 32 -18c0 -8 -5.66699 -15.333 -17 -22l44 6l78 20l22 5l31 6l43 3c13.333 0 24.333 -2.66699 33 -8
c9.33301 -4 14 -12 14 -24c0 -25.333 -27 -89 -81 -191l-47 -86c-14.667 -27.333 -35 -61.666 -61 -102.999v-178c0 -45.333 -7.83301 -77 -23.5 -95s-35.167 -27 -58.5 -27c-14 0 -25.167 2.33301 -33.5 7s-18.833 15.334 -31.5 32.001l-24 34
c-8 9.33301 -15 14.666 -21 15.999l-16 -4l-15 -6l9 45c4 23.333 17.667 35 41 35c12 0 25 -4 39 -12v127zM159 475.999l154 -295.001l6 -10l4 -1l6 4l11 12c26.667 38 49 77.167 67 117.5s27 78.5 27 114.5c0 30.667 -11.333 46 -34 46c-13.333 0 -24.333 -1.33301 -33 -4
l-50 -14l-43 -12c-17.333 -4 -32.333 -6 -45 -6c-19.333 0 -29 8.33301 -29 25c0 4 1.16699 8.33301 3.5 13s5.83301 7.33398 10.5 8.00098zM401 -64.002c0 7.33301 2.00098 16.001 6.00098 26.001c4.66699 8.66699 9.33398 14.667 14.001 18c12.667 12.667 28.667 19 48 19
c14 0 31 -5 51 -15c7.33301 -4.66699 12.666 -10.5 15.999 -17.5s6 -17.167 8 -30.5c0 -17.333 -8 -30.666 -24 -39.999c-22.667 -10.667 -39.667 -16 -51 -16c-20 0 -36 4 -48 12c-6.66699 5.33301 -11.334 11.166 -14.001 17.499s-4.66699 15.166 -6 26.499z" />
    <glyph glyph-name="idieresis" unicode="&#xef;" 
d="M-353 -144c0 9.33301 1.83301 17.666 5.5 24.999s8.5 13.666 14.5 18.999c12.667 12.667 28.667 19 48 19c14 0 31 -5 51 -15c8 -6 14.333 -13.333 19 -22c2 -6 3.66699 -14.667 5 -26c0 -17.333 -8 -30.666 -24 -39.999c-22.667 -10.667 -39.667 -16 -51 -16
c-18 0 -34 4 -48 12c-5.33301 3.33301 -10 9.33301 -14 18s-6 17.334 -6 26.001z" />
    <glyph glyph-name="eth" unicode="&#xf0;" horiz-adv-x="760" 
d="M107 24c-42 96 -64.999 162.335 -68.999 199.002c0 20 12.333 38 37 54c20 14.667 42.333 22 67 22c8 0 14 -3.33301 18 -10l10 -15l6 -11c0 -12.667 4.33301 -28.667 13 -48l9 -15l7 -8l2 -2l4 -1c6 0 13.333 7.33301 22 22l110 161
c45.333 70.667 76.666 116.667 93.999 138l57 80l19 26l17 22c14 8.66699 25.333 20 34 34l13 8l18 10l18 7c8 3.33301 20.167 6.66602 36.5 9.99902s39.5 7.66602 69.5 12.999l7 -18l-37 -43l-25 -31l-30 -37l-30 -37l-56 -75l-62 -85l-27 -38l-27 -38l-30 -45l-30 -44
l-38 -59l-51 -81l-36 -58c-16.667 -20.667 -39.667 -31 -69 -31h-28c-14.667 0 -29 8 -43 24z" />
    <glyph glyph-name="ntilde" unicode="&#xf1;" horiz-adv-x="610" 
d="M398 188v237.999c-9.33301 2 -26 9.83301 -50 23.5s-48 20.5 -72 20.5c-42 0 -74.667 -20.667 -98 -62c-18 -33.333 -27 -72.666 -27 -117.999c0 -42.667 10.667 -78.667 32 -108c18 -24 36.333 -36 55 -36l59 3l49 -3c15.333 0 27.833 4 37.5 12s14.5 18 14.5 30z
M398 547.999l-4 0.00195312h-19l-20.5 5c-5.66699 1.33301 -10.667 2.83301 -15 4.5s-9.83301 4.5 -16.5 8.5c-16 8.66699 -24.667 17.667 -26 27c0 8 5.33301 13.333 16 16l33 3l52 -5v16c0 8.66699 -16.667 22.334 -50 41.001c-14 8 -22 17.667 -24 29
c0 15.333 9.33301 23 28 23h137c12 0 21.167 -2.83301 27.5 -8.5s9.5 -15.834 9.5 -30.501l-2 -74c8 0 21.667 2 41 6l14 3l8 2c12.667 0 23.334 -2.66699 32.001 -8c8.66699 -6.66699 13 -15.334 13 -26.001c0 -6.66699 -0.5 -12 -1.5 -16s-3.16699 -10.667 -6.5 -20
c-6 -14 -9 -25.333 -9 -34c0 -19.333 5.66699 -33.666 17 -42.999c-4.66699 -8 -11 -13.667 -19 -17l-17 -4l-13 -1c-5.33301 0 -9 0.666992 -11 2l-6 6l-7 9c-8 9.33301 -12 24.666 -12 45.999l2 16l2 13c0 4 -3.33301 6 -10 6h-9l-8 1l2 -456l37 -22
c17.333 -11.333 27 -21.333 29 -30c0 -8 -7.33301 -16.333 -22 -25l-27 -8l-37 -3h-30h-22l-19 2h-38l-29 4c-11.333 0 -30.333 -2 -57 -6s-46.334 -6 -59.001 -6c-72 0 -128.333 26.667 -169 80c-36 49.333 -54 112.333 -54 189c0 67.333 18.667 127.666 56 180.999
c42 60 95.667 90 161 90c30.667 0 58 -5.33301 82 -16l70 -30v60z" />
    <glyph glyph-name="ograve" unicode="&#xf2;" horiz-adv-x="296" 
d="M84 85l-0.000976562 376.999l-24 9l-18 9c-9.33301 6 -14.666 13 -15.999 21c0 14 15.667 21 47 21h145c18.667 0 31.667 -1.66699 39 -5c8.66699 -2 13 -7.33301 13 -16c0 -6 -5.33301 -13.333 -16 -22c-4.66699 -2.66699 -10.5 -5.5 -17.5 -8.5
s-15.167 -5.83301 -24.5 -8.5v-377l9 -8l31 -23c12 -7.33301 18 -14.666 18 -21.999c0 -6 -8.83301 -13.333 -26.5 -22s-32.5 -13 -44.5 -13l-51 3l-47 -3c-8 0 -15.5 0.666992 -22.5 2s-15.833 4.33301 -26.5 9c-16 8 -24.667 16 -26 24c0 8 9.33301 17.5 28 28.5
s28.667 19.167 30 24.5zM147.999 591.999l-30.001 1.00098c-5.33301 0 -11.666 2.33301 -18.999 7c-16 7.33301 -24 19.666 -24 36.999s7.16699 29.833 21.5 37.5s31.833 11.5 52.5 11.5c22.667 0 39 -2.66699 49 -8c15.333 -8 23 -21.333 23 -40
c0 -18 -6.33301 -30.167 -19 -36.5s-30.667 -9.5 -54 -9.5zM76.998 -144c0 7.33301 2.00098 15.6689 6.00098 25.002c2 7.33301 6.66699 13.666 14 18.999c12.667 12.667 28.667 19 48 19c14 0 31 -5 51 -15c6 -4 11.667 -11 17 -21
c3.33301 -7.33301 5.66602 -16.333 6.99902 -27c0 -16.667 -8 -30 -24 -40c-22.667 -10.667 -39.667 -16 -51 -16c-18 0 -34 4 -48 12c-5.33301 3.33301 -10 9.66602 -14 18.999z" />
    <glyph glyph-name="oacute" unicode="&#xf3;" horiz-adv-x="296" 
d="M84 85l-0.000976562 376.999l-24 9l-18 9c-9.33301 6 -14.666 13 -15.999 21c0 14 15.667 21 47 21h145c18.667 0 31.667 -1.66699 39 -5c8.66699 -2 13 -7.33301 13 -16c0 -6 -5.33301 -13.333 -16 -22c-4.66699 -2.66699 -10.5 -5.5 -17.5 -8.5
s-15.167 -5.83301 -24.5 -8.5v-377l9 -8l31 -23c12 -7.33301 18 -14.666 18 -21.999c0 -6 -8.83301 -13.333 -26.5 -22s-32.5 -13 -44.5 -13l-51 3l-47 -3c-8 0 -15.5 0.666992 -22.5 2s-15.833 4.33301 -26.5 9c-16 8 -24.667 16 -26 24c0 8 9.33301 17.5 28 28.5
s28.667 19.167 30 24.5zM2.99902 643.999c0 20.667 8 40.667 24 60s36.333 29 61 29c6 0 30.667 -6 74 -18l61 -16c17.333 0 27.666 1.33301 30.999 4c4.66699 2 11.334 9.66699 20.001 23l5 8l7 4c4 -2.66699 6.33301 -5.33398 7 -8.00098l2 -25
c0 -20 -8.66699 -38.667 -26 -56c-13.333 -13.333 -32.333 -20 -57 -20c-17.333 0 -40.333 4.33301 -69 13l-27 9l-27 9c-4 2 -11 3.66699 -21 5c-8.66699 0 -15 -2.16699 -19 -6.5s-7 -10.166 -9 -17.499l1 -6l3 -4l6 1l7 4l8 4l20 6l4 -5l-7 -19
c-5.33301 -10 -15.333 -15 -30 -15c-8.66699 0 -19 2.33301 -31 7l-13 10c-2 4 -3.66699 10.667 -5 20z" />
    <glyph glyph-name="ocircumflex" unicode="&#xf4;" horiz-adv-x="556" 
d="M145 318c0 -44 11.168 -80.666 33.501 -109.999s52.166 -44 89.499 -44c50 0 87.667 16 113 48c20 27.333 30 66.666 30 117.999c0 23.333 -2.33301 43.5 -7 60.5s-13 33.167 -25 48.5c-21.333 28.667 -52.333 43 -93 43c-46 0 -81 -15.167 -105 -45.5
s-36 -69.833 -36 -118.5zM442.001 482.001l20 -18.999c43.333 -48.667 65 -113.667 65 -195c0 -76.667 -19.333 -141.5 -58 -194.5s-84.667 -79.5 -138 -79.5l-27 3l-25 3l-26 -3l-22 -3c-56 0 -103.667 27 -143 81s-59 118.333 -59 193c0 82.667 21 147.667 63 195
s104.333 71 187 71c53.333 0 99.333 -11.333 138 -34c20 2 33.333 4.33301 40 7l11 3c15.333 2 23 9.66699 23 23c0 6 -2.66699 11.667 -8 17l-20 -1c-12 5.33301 -19.667 13.333 -23 24l-2 14c0 9.33301 1.66699 17.666 5 24.999c8 23.333 22.667 35 44 35
c8 0 16.667 -1.66699 26 -5c20 -8 31.333 -20.333 34 -37l4 -28l-3 -23l-16 -37c-2 -6 -8.33301 -12 -19 -18l-25 -9l-22 -4l-9 -2z" />
    <glyph glyph-name="otilde" unicode="&#xf5;" 
d="M-417 644c0 21.333 8.16895 41.499 24.502 60.499s36.5 28.5 60.5 28.5c6 0 30.667 -6 74 -18l61 -16c17.333 0 27.666 1.33301 30.999 4c5.33301 2.66699 12 10.334 20 23.001l5 8l7 4c3.33301 0 6 -2.66699 8 -8l1 -25c0 -10.667 -2.33301 -20.667 -7 -30l-7 -13
l-12 -13c-13.333 -13.333 -32.333 -20 -57 -20c-17.333 0 -40.333 4.33301 -69 13l-27 9l-27 9c-4 2 -11 3.66699 -21 5c-9.33301 0 -16 -2.33301 -20 -7l-8 -17l1 -6l3 -4l6 1l8 4l7 4l20 6l4 -5l-7 -19c-5.33301 -10 -15.333 -15 -30 -15c-8.66699 0 -19 2.33301 -31 7
c-4.66699 2 -8.83398 5.5 -12.501 10.5s-5.5 11.5 -5.5 19.5z" />
    <glyph glyph-name="odieresis" unicode="&#xf6;" horiz-adv-x="590" 
d="M555 493c-3.33301 -4.66699 -10.999 -10.3311 -22.999 -16.998c-18 -9.33301 -27.667 -18.666 -29 -27.999v-361c0 -12 11.667 -26.333 35 -43c10.667 -6.66699 16.334 -14.334 17.001 -23.001c0 -8.66699 -2.83301 -14.334 -8.5 -17.001s-15.167 -4 -28.5 -4h-162
c-22.667 0 -34.334 5.33301 -35.001 16c0 8 12 21.667 36 41c12 8 18 15.667 18 23v8c-21.333 -4.66699 -48.666 -21.667 -81.999 -51c-28.667 -24.667 -60.667 -37 -96 -37c-42 0 -73.5 10.333 -94.5 31s-31.5 54 -31.5 100v317c0 10 -9.66699 20 -29 30s-29 19 -29 27
c0 4 2.5 7.83301 7.5 11.5s13.833 5.5 26.5 5.5h122c12 0 20.333 -4.33301 25 -13l5 -25v-310c0 -38.667 16.333 -58 49 -58c16 0 42 6.66699 78 20c18.667 6.66699 35 10 49 10v302c0 5.33301 -9 15 -27 29c-18.667 11.333 -28 20.666 -28 27.999
c0 5.33301 2.66699 9.5 8 12.5s14 4.5 26 4.5h172c11.333 0 20 -1.33301 26 -4c6 2 10.333 7.33301 13 16c0 8 -1.66699 14 -5 18l-4 1l-7 1l-9 1l-14 13l-4 15v14c0 6 3.33301 13.667 10 23c3.33301 8 9.16602 14.5 17.499 19.5s18.833 7.5 31.5 7.5
c8.66699 -0.666992 17 -3.66699 25 -9c18 -12 27 -26 27 -42l-1 -29c-2 -10 -4.33301 -17.333 -7 -22l-22 -32c-4 -8 -10.333 -13 -19 -15c-8.66699 -3.33301 -18.334 -5 -29.001 -5z" />
    <glyph glyph-name="divide" unicode="&#xf7;" horiz-adv-x="600" 
d="M552 303v-100h-504v100h504zM215 461c0 22 8.66699 41.667 26 59s37 26 59 26c22.667 0 42.667 -8.33301 60 -25c16.667 -18.667 25 -38.667 25 -60c0 -20 -8.33301 -39.667 -25 -59c-17.333 -17.333 -37.333 -26 -60 -26c-21.333 0 -40.833 8 -58.5 24
s-26.5 36.333 -26.5 61zM215 45c0 21.333 8.5 40.832 25.5 58.499s36.833 26.5 59.5 26.5c22 0 41.667 -8.66699 59 -26c17.333 -16 26 -35.667 26 -59c0 -21.333 -8.66699 -40.666 -26 -57.999c-16 -18 -35.667 -27 -59 -27c-22 0 -41.667 8.66699 -59 26
c-17.333 16 -26 35.667 -26 59z" />
    <glyph glyph-name="oslash" unicode="&#xf8;" 
d="M-385 719c0 4 1.83301 8.33398 5.5 13.001s8.5 7 14.5 7h63c6 0 15 -3.66699 27 -11c12 -8.66699 18.333 -17.334 19 -26.001l7 -24l11 -13l12 -10l8 -9l20 -26c2 -2.66699 3.66699 -7.66699 5 -15c0 -8 -6.33301 -12 -19 -12c-28 0 -62.667 14.333 -104 43
c-46 32 -69 59.667 -69 83z" />
    <glyph glyph-name="ugrave" unicode="&#xf9;" 
d="M-148 719c0 -21.333 -22.999 -48.999 -68.999 -82.999c-40 -28.667 -74.667 -43 -104 -43c-12.667 0 -19 4 -19 12c0 6 1.66699 11 5 15l20 26l12 11l16 17c3.33301 5.33301 6.66602 13.666 9.99902 24.999c0.666992 9.33301 7 19 19 29c7.33301 5.33301 16.333 9 27 11
h63c6 0 11 -2.33301 15 -7c2 -2.66699 3.66699 -7 5 -13z" />
    <glyph glyph-name="uacute" unicode="&#xfa;" 
d="M-342 656c9.33301 -4 15.168 -8.66797 17.501 -14.001s7.5 -11 15.5 -17c10 -4 17.333 -6 22 -6c6 0 9 2.66699 9 8c0 3.33301 -3.66699 6 -11 8c-4 0 -7 2 -9 6c0.666992 2 1.66699 3.33301 3 4s2.33301 1.33398 3 2.00098l22 6l25 5c18 7.33301 29.667 14.333 35 21
l9 11l8 10c8.66699 7.33301 19.667 11 33 11c19.333 0 30.666 -9 33.999 -27c-4 3.33301 -11 6 -21 8c-6.66699 0 -13 -4 -19 -12l-2 -13l-5 -19c-2 -6.66699 -6 -15.334 -12 -26.001l-30 -27c-7.33301 -6 -18.333 -12 -33 -18l-21 -6l-27 -2c-32.667 0 -60.667 8 -84 24
c-12 6 -25.333 20.333 -40 43c-2 3.33301 -4.66699 8.83301 -8 16.5s-5 16.834 -5 27.501l1 7v9c2 6 8.33301 12 19 18c6 4.66699 14.333 7 25 7h18l13 -4l4 -13c-14.667 0 -26 -2 -34 -6l-4 -9l5 -9c4 -2.66699 9.66699 -6.16699 17 -10.5s16.333 -8.83301 27 -13.5z
M-394.998 871.999c0 28 10.5 49.668 31.5 65.001s45.5 23 73.5 23c24 0 45 -5 63 -15c16 -10 29.333 -22.667 40 -38l8 -21l3 -22c0 -16 -3.5 -29.833 -10.5 -41.5s-29.5 -29.5 -67.5 -53.5c-20 -11.333 -30 -23.666 -30 -36.999l2 -3l1 -4h20l6 3l2 5l-3 5l-4 2
c3.33301 10 11 15 23 15c-2 -2.66699 -3.66699 -6.66699 -5 -12l3 -6l6 -4c4.66699 -4 8 -10.667 10 -20c0 -8.66699 -7.66699 -13 -23 -13h-49c-13.333 0 -20.333 5.33301 -21 16c0 6 0.5 12.333 1.5 19s4.16699 15 9.5 25l16 22l16 20l8 9l7 8l5 9
c5.33301 8.66699 9.66602 22.667 12.999 42c0 16 -4.66699 28.667 -14 38s-20 14 -32 14c-7.33301 0 -14 -1.33301 -20 -4c-6 0 -11 -3 -15 -9c-6.66699 -6.66699 -11 -13.334 -13 -20.001c0 -8.66699 1.83301 -15.5 5.5 -20.5s9.83398 -7.5 18.501 -7.5
c6 0 10 2.33301 12 7c4 4 8.33301 6 13 6l7 -2l11 -6l-5 -3l-4 -4l2 -6v-9c0 -12 -3.66699 -20.333 -11 -25c-15.333 -8.66699 -29.333 -13 -42 -13c-18 0 -33.833 6.16699 -47.5 18.5s-20.5 28.166 -20.5 47.499z" />
    <glyph glyph-name="ucircumflex" unicode="&#xfb;" 
d="M-401 745c0 28 10.4971 49.665 31.4971 64.998s45.5 23 73.5 23l34 -3c10.667 -2 19.667 -5.66699 27 -11c16 -10 30 -23 42 -39c7.33301 -13.333 11 -27.666 11 -42.999c0 -16 -3.33301 -29.333 -10 -40c-9.33301 -16 -32 -34.333 -68 -55
c-20 -11.333 -30 -23.666 -30 -36.999l2 -3l1 -4h20l6 3l2 5l-3 5l-4 2c3.33301 10 11 15 23 15c-2 -2.66699 -3.66699 -6.66699 -5 -12c0.666992 -1.33301 1.66699 -3 3 -5s4.33301 -4.5 9 -7.5s7 -8.83301 7 -17.5s-7.66699 -13 -23 -13h-49
c-13.333 0 -20.333 5.33301 -21 16c0 12.667 3.66699 27.334 11 44.001c2.66699 4.66699 6.33398 10.167 11.001 16.5s11.667 14.833 21 25.5l15 18l5 8c4 5.33301 7 11 9 17l4 25c0 16 -4.66699 28.667 -14 38s-20 14 -32 14l-20 -3c-6.66699 -2 -11.667 -5.33301 -15 -10
c-6 -6 -10.333 -12.667 -13 -20c0 -7.33301 1.83301 -13.833 5.5 -19.5s9.83398 -8.5 18.501 -8.5c6 0 10 2.33301 12 7c4 4 8.33301 6 13 6s10.667 -2.66699 18 -8l-6 -3l-3 -4l2 -6v-9c0 -12 -3.66699 -20.333 -11 -25l-17 -8c-5.33301 -2 -13.666 -3.66699 -24.999 -5
c-19.333 0 -35.5 6.16699 -48.5 18.5s-19.5 28.166 -19.5 47.499z" />
    <glyph glyph-name="udieresis" unicode="&#xfc;" 
d="M-342 656c9.33301 -4 15.168 -8.66797 17.501 -14.001s7.5 -11 15.5 -17c10 -4 17.333 -6 22 -6c6 0 9 2.66699 9 8c0 3.33301 -3.66699 6 -11 8c-4 0 -7 2 -9 6c0.666992 2 1.66699 3.33301 3 4s2.33301 1.33398 3 2.00098l22 6l25 5c18 7.33301 29.667 14.333 35 21
l9 11l8 10c8.66699 7.33301 19.667 11 33 11c19.333 0 30.666 -9 33.999 -27c-4 3.33301 -11 6 -21 8c-6.66699 0 -13 -4 -19 -12l-2 -13l-5 -19c-2 -6.66699 -6 -15.334 -12 -26.001l-30 -27c-7.33301 -6 -18.333 -12 -33 -18l-21 -6l-27 -2c-32.667 0 -60.667 8 -84 24
c-12 6 -25.333 20.333 -40 43c-2 3.33301 -4.66699 8.83301 -8 16.5s-5 16.834 -5 27.501l1 7v9c2 6 8.33301 12 19 18c6 4.66699 14.333 7 25 7h18l13 -4l4 -13c-14.667 0 -26 -2 -34 -6l-4 -9l5 -9c4 -2.66699 9.66699 -6.16699 17 -10.5s16.333 -8.83301 27 -13.5z
M-431.998 795.999c0 19.333 7.99902 39.668 23.999 61.001c16.667 18.667 37 28 61 28l16 -3l28 -7l30 -8c28.667 -9.33301 49 -14.666 61 -15.999c16 0 26.333 1.33301 31 4c4 0.666992 10.667 8.33398 20 23.001l5 9l7 3c4 -2.66699 6.66699 -5.33398 8 -8.00098l1 -25
c0 -22 -8.66699 -40.667 -26 -56c-13.333 -13.333 -32.333 -20 -57 -20c-15.333 0 -38.333 4.33301 -69 13l-54 18l-21 5c-8.66699 0 -15 -2.33301 -19 -7s-7 -10.334 -9 -17.001c0 -6 1.33301 -9.33301 4 -10l10 4l11 5l20 6l4 -5l-7 -19c-5.33301 -10 -15.333 -15 -30 -15
c-7.33301 0 -17.666 2.33301 -30.999 7c-4 1.33301 -8 4.66602 -12 9.99902s-6 12 -6 20z" />
    <glyph glyph-name="yacute" unicode="&#xfd;" horiz-adv-x="1045" 
d="M710 279c0 8 -0.666992 14 -2 18l-9 22c-8.66699 0 -27 -4.33301 -55 -13c-23.333 -4 -45 -6 -65 -6h-16l-20 2l-2 -8l-2 -6c0 -19.333 12 -33 36 -41c15.333 -3.33301 31.333 -5 48 -5l40 2c12.667 2 22.667 6.16699 30 12.5s13 13.833 17 22.5zM527 379
l-3.99805 -4.00098l-4 -4c0 -8.66699 2.66699 -16 8 -22c5.33301 -4.66699 13.666 -9 24.999 -13c17.333 -4 37 -6 59 -6l39 2c15.333 0 28.5 3.33301 39.5 10s18.833 16.334 23.5 29.001l1 8c0 12 -6.33301 20 -19 24l-7 1c-6.66699 0 -15.334 -2.66699 -26.001 -8l-26 -6
l-43 -2l-34 -3zM615.002 413.999c25.333 2.66699 45.999 7.66699 61.999 15s25 15.333 27 24c0 14.667 -2.66699 25.667 -8 33c-20.667 -19.333 -45 -29 -73 -29c-11.333 0 -22.166 1.66699 -32.499 5s-19.5 8 -27.5 14s-15 12.667 -21 20
c-34 -2.66699 -54.667 -16.667 -62 -42l-1 -9c0 -14 4 -22 12 -24l6 -6l7 -4c10 -2 23 -3 39 -3c20 0 44 2 72 6zM631.001 649.999l51.999 -119l231 -51c6 -2 14.333 -3 25 -3c16.667 0 27.334 6.33301 32.001 19l1 4c0 16.667 -8.66699 31.667 -26 45
c-16 14 -40.667 25.333 -74 34l-17 5l-25 10l-29 11l-93 24zM299 654.999l-55 -204.001l9 -3l23 -9l25 -16c16 -12 32 -28 48 -48c16.667 -17.333 37.334 -30 62.001 -38l46 -14l57 -18l4 19l-5 1l-6 5l-6 10c-0.666992 2 -1.16699 3.66699 -1.5 5s-2.16602 4 -5.49902 8
l-4 14l2 16c-28.667 7.33301 -43 32.333 -43 75l-18 5l-11 3l-12 3l-17 5l-9 7l-8 8l-9 7l-14 8l-9 10l-12 7l11 19l9 -8c5.33301 -5.33301 9.66602 -8.33301 12.999 -9c17.333 -3.33301 29.666 -6.66602 36.999 -9.99902c17.333 -4 33 -6 47 -6c26.667 0 49 5.66699 67 17
l-34 67l18 10l42 -57c21.333 -26 38.333 -41 51 -45l6 -5l7 -4l19 -3c16 0 26 5 30 15c0 19.333 -5 38 -15 56l-9 20l-24 39l-21 35c-3.33301 6.66699 -9 12.667 -17 18c-6 5.33301 -14.667 10 -26 14l-37 4l-14 -1l-35 -10l-28 -10l-68 -17c-24 0 -41 1 -51 3l-5 1z
M211 719.998l-66 -285l59 -15l75 281zM8 409.998l96.998 359.998l216 -48l-7 -29l18 -9l20 -1c23.333 0 49 5 77 15c6 0 22 3.66699 48 11l26 7h13c14 0 26.833 -1.66699 38.5 -5s29.167 -14.666 52.5 -33.999l53 -14l152 -41c25.333 -6 50 -14.333 74 -25l40 -18l37 -18
c28 -16 42 -37 42 -63l-1 -17c-6 -21.333 -25 -32 -57 -32l-40 5l-49 6l-41 9l-55 12l-28 5v-6l4 -16l-1 -10v-11l-5 -7l-4 -11c13.333 -16.667 20 -35 20 -55l-2 -12c-1.33301 -6.66699 -4 -12.667 -8 -18l-10 -9c8.66699 -6.66699 13 -18 13 -34
c0 -11.333 -0.666992 -18.333 -2 -21c-4 -15.333 -11.167 -28.166 -21.5 -38.499s-22.166 -16.833 -35.499 -19.5l-20 -2l-15 -1c-24.667 0 -47 3.33301 -67 10c-5.33301 0 -14 3 -26 9l-17 8c-6.66699 0 -13.667 6.66699 -21 20l-4 8l-3 5l-59 16l-45 13l-25 11
c-11.333 6 -31 23.333 -59 52l-14 15l-21 17c-15.333 10 -30.666 17 -45.999 21l-13 -54l-89 20l-16 -18z" />
    <glyph glyph-name="thorn" unicode="&#xfe;" horiz-adv-x="593" 
d="M76 -102l-0.00195312 729.996c0 8 -8.33301 19 -25 33c-17.333 12.667 -26.666 23.667 -27.999 33c0 7.33301 2.5 12.333 7.5 15s12.833 5 23.5 7h158c18 0 27 -7.66699 27 -23l-4 -5l-14 -14c-12 -10 -18.333 -19.333 -19 -28v-206c30 28 53 47 69 57
c26 16.667 54.667 25 86 25c58 0 105.667 -26 143 -78c33.333 -48.667 50 -109 50 -181c0 -71.333 -18.667 -133.666 -56 -186.999c-42.667 -58.667 -97.667 -88 -165 -88c-40 0 -72 11 -96 33s-36 48.333 -36 79c0 14.667 3 29 9 43l18 39c0 7.33301 -2.66699 14 -8 20
l20 2c25.333 0 43 -12.667 53 -38c8 -25.333 22.667 -38 44 -38c37.333 0 67 17 89 51c18.667 32 28 68 28 108c0 22.667 -2 42.834 -6 60.501s-10.667 33.834 -20 48.501c-21.333 33.333 -54.333 50 -99 50c-17.333 0 -41.666 -8.16699 -72.999 -24.5
s-47.333 -29.833 -48 -40.5v-208l-13 -18l-6 -14c-5.33301 -14.667 -8 -29.667 -8 -45l1 -22l7 -17l7 -17l12 -16v-126c0 -3.33301 13 -13.666 39 -30.999c12 -8 18.333 -15.333 19 -22c0 -6 -8.83301 -13.333 -26.5 -22s-32.5 -13 -44.5 -13l-51 3l-47 -3
c-15.333 0 -31.166 3.5 -47.499 10.5s-25.5 15.167 -27.5 24.5c0 5.33301 6 13 18 23c13.333 8 24.666 16.333 33.999 25z" />
    <glyph glyph-name="ydieresis" unicode="&#xff;" horiz-adv-x="574" 
d="M233 84l-192 352.999c-3.33301 7.33301 -13.333 18.5 -30 33.5s-25 26.167 -25 33.5c0 6.66699 2.66699 11 8 13s10 3.33301 14 4s10.667 1 20 1h248c21.333 0 32 -6 32 -18c0 -8 -5.66699 -15.333 -17 -22l44 6l78 20l22 5l31 6l43 3c13.333 0 24.333 -2.66699 33 -8
c9.33301 -4 14 -12 14 -24c0 -25.333 -27 -89 -81 -191l-47 -86c-14.667 -27.333 -35 -61.666 -61 -102.999v-178c0 -45.333 -7.83301 -77 -23.5 -95s-35.167 -27 -58.5 -27c-14 0 -25.167 2.33301 -33.5 7s-18.833 15.334 -31.5 32.001l-24 34
c-8 9.33301 -15 14.666 -21 15.999l-16 -4l-15 -6l9 45c4 23.333 17.667 35 41 35c12 0 25 -4 39 -12v127zM159 475.999l154 -295.001l6 -10l4 -1l6 4l11 12c26.667 38 49 77.167 67 117.5s27 78.5 27 114.5c0 30.667 -11.333 46 -34 46c-13.333 0 -24.333 -1.33301 -33 -4
l-50 -14l-43 -12c-17.333 -4 -32.333 -6 -45 -6c-19.333 0 -29 8.33301 -29 25c0 4 1.16699 8.33301 3.5 13s5.83301 7.33398 10.5 8.00098zM401 -64.002c0 7.33301 2.00098 16.001 6.00098 26.001c4.66699 8.66699 9.33398 14.667 14.001 18c12.667 12.667 28.667 19 48 19
c14 0 31 -5 51 -15c7.33301 -4.66699 12.666 -10.5 15.999 -17.5s6 -17.167 8 -30.5c0 -17.333 -8 -30.666 -24 -39.999c-22.667 -10.667 -39.667 -16 -51 -16c-20 0 -36 4 -48 12c-6.66699 5.33301 -11.334 11.166 -14.001 17.499s-4.66699 15.166 -6 26.499z" />
    <glyph glyph-name="OE" unicode="&#x152;" horiz-adv-x="12" 
d="M-433 955c0 27.333 10.8311 48.832 32.498 64.499s45.834 23.5 72.501 23.5l34 -3c10.667 -2 19.667 -5.66699 27 -11c18 -10 32 -23 42 -39c7.33301 -13.333 11 -27.666 11 -42.999c0 -16 -3.33301 -29.333 -10 -40c-4 -8 -12 -17 -24 -27l-44 -28
c-18 -10 -28 -22.333 -30 -37l2 -3l1 -4h20l6 3l2 5l-3 5l-4 2c3.33301 10 11 15 23 15l-5 -12c0.666992 -1.33301 1.66699 -3 3 -5s3.33301 -3.66699 6 -5c4.66699 -4 8 -10.667 10 -20c0 -8.66699 -7.66699 -13 -23 -13h-49c-14 0 -21 5.33301 -21 16
c0 15.333 3.66699 30 11 44l15 21l17 21l10 11l6 8l4 7c8.66699 13.333 13 27.333 13 42c0 10 -2 19.667 -6 29c-5.33301 6.66699 -11.333 12.334 -18 17.001l-22 6c-7.33301 0 -14 -1.33301 -20 -4c-6 0 -11 -3 -15 -9c-6.66699 -6.66699 -11 -13.334 -13 -20.001
c0 -8.66699 1.83301 -15.5 5.5 -20.5s9.83398 -7.5 18.501 -7.5c6 0 10 2.33301 12 7c4 4 8.33301 6 13 6l7 -2l11 -6l-6 -3l-3 -4l2 -6v-9c0 -12 -3.66699 -20.333 -11 -25c-15.333 -8.66699 -29.333 -13 -42 -13c-18 0 -33.833 6.5 -47.5 19.5s-20.5 28.5 -20.5 46.5z" />
    <glyph glyph-name="oe" unicode="&#x153;" horiz-adv-x="12" 
d="M-401 745c0 28 10.4971 49.665 31.4971 64.998s45.5 23 73.5 23l34 -3c10.667 -2 19.667 -5.66699 27 -11c16 -10 30 -23 42 -39c7.33301 -13.333 11 -27.666 11 -42.999c0 -16 -3.33301 -29.333 -10 -40c-9.33301 -16 -32 -34.333 -68 -55
c-20 -11.333 -30 -23.666 -30 -36.999l2 -3l1 -4h20l6 3l2 5l-3 5l-4 2c3.33301 10 11 15 23 15c-2 -2.66699 -3.66699 -6.66699 -5 -12c0.666992 -1.33301 1.66699 -3 3 -5s4.33301 -4.5 9 -7.5s7 -8.83301 7 -17.5s-7.66699 -13 -23 -13h-49
c-13.333 0 -20.333 5.33301 -21 16c0 12.667 3.66699 27.334 11 44.001c2.66699 4.66699 6.33398 10.167 11.001 16.5s11.667 14.833 21 25.5l15 18l5 8c4 5.33301 7 11 9 17l4 25c0 16 -4.66699 28.667 -14 38s-20 14 -32 14l-20 -3c-6.66699 -2 -11.667 -5.33301 -15 -10
c-6 -6 -10.333 -12.667 -13 -20c0 -7.33301 1.83301 -13.833 5.5 -19.5s9.83398 -8.5 18.501 -8.5c6 0 10 2.33301 12 7c4 4 8.33301 6 13 6s10.667 -2.66699 18 -8l-6 -3l-3 -4l2 -6v-9c0 -12 -3.66699 -20.333 -11 -25l-17 -8c-5.33301 -2 -13.666 -3.66699 -24.999 -5
c-19.333 0 -35.5 6.16699 -48.5 18.5s-19.5 28.166 -19.5 47.499z" />
    <glyph glyph-name="Scaron" unicode="&#x160;" horiz-adv-x="709" 
d="M228 264l-168 133h216l83 210l83 -210h210l-173 -133l71 -207l-191 125l-192 -125z" />
    <glyph glyph-name="scaron" unicode="&#x161;" horiz-adv-x="361" 
d="M44 631c0 -26 7.33398 -48.334 22.001 -67.001c15.333 -17.333 34.666 -26 57.999 -26c34 0 58.667 9.66699 74 29c12.667 16.667 19 40.334 19 71.001c0 28 -7 50 -21 66c-12.667 16.667 -32.667 25 -60 25c-30 0 -52.833 -9.16699 -68.5 -27.5
s-23.5 -41.833 -23.5 -70.5zM-30.999 600.999c0 50.667 13.668 89.8311 41.001 117.498s67.666 41.5 120.999 41.5c49.333 0 89 -14 119 -42c28.667 -30.667 43 -69.667 43 -117s-12.667 -86.666 -38 -117.999s-55.333 -47 -90 -47l-17 2l-17 2l-17 -2l-14 -2
c-36 0 -66.833 16.333 -92.5 49s-38.5 71.334 -38.5 116.001z" />
    <glyph glyph-name="Ydieresis" unicode="&#x178;" horiz-adv-x="630" 
d="M99 106h370v372h-370v-372zM78 86v398l82 82h399v-399l-87 -81h-394z" />
    <glyph glyph-name="florin" unicode="&#x192;" horiz-adv-x="660" 
d="M256 421l2.00293 -1.99805l3 -2l3 2v5c-24 30 -36 58 -36 84c0 30 11 55 33 75c7.33301 6 18 12.667 32 20l21 6l18 2c33.333 0 59.333 -11.333 78 -34c20.667 -22 31 -45 31 -69c0 -14 -4.33301 -28.667 -13 -44l-7 -13l-9 -17l-7 -15
c4.66699 -2 8.66699 -0.333008 12 5v6l1 4l14 11l9 9c2.66699 2 8 5.33301 16 10l17 10c10 6 22 9 36 9c10 0 25 -4 45 -12s35.5 -19.333 46.5 -34s16.5 -33 16.5 -55c0 -16.667 -3.33301 -34 -10 -52c-4 -10.667 -15.333 -24.334 -34 -41.001
c-10.667 -10.667 -27.667 -16 -51 -16c-26.667 0 -48.334 4.66699 -65.001 14l-5 2l-5 -2l-1 -3c0 -7.33301 7.66699 -11 23 -11c9.33301 0 21 -5.66699 35 -17c7.33301 -3.33301 17.666 -15 30.999 -35c2.66699 -4 5.5 -10.5 8.5 -19.5s4.5 -19.833 4.5 -32.5
c0 -22.667 -8.66699 -45.667 -26 -69c-19.333 -21.333 -44.666 -32 -75.999 -32c-34 0 -61.333 10.667 -82 32c-17.333 22.667 -26 47 -26 73l-2 2l-1 3l1 9l2 4c0 10 -2.33301 15 -7 15l-2 -3l-2 -8v-4l1 -9l1 -9c0 -19.333 -3.66699 -35.333 -11 -48
c-4.66699 -12.667 -13.334 -24.334 -26.001 -35.001c-22 -14.667 -46 -22 -72 -22c-27.333 0 -50.666 9.66699 -69.999 29c-9.33301 7.33301 -17.666 18 -24.999 32c-6.66699 16.667 -10 30 -10 40c0 12.667 2 25.167 6 37.5s10.333 22.166 19 29.499
c7.33301 9.33301 15.166 16.833 23.499 22.5s20.166 10.5 35.499 14.5c14 0 21 2.33301 21 7l-1 6l-3 3l-6 -1l-7 -4c-4.66699 0 -8 -0.666992 -10 -2l-6 -2l-9 -2l-7 -1h-20c-28.667 0 -53.334 11.333 -74.001 34c-18.667 24.667 -28 48.334 -28 71.001
c0 26 9.66699 50 29 72c18 23.333 42.333 35 73 35c42 0 76.667 -22.667 104 -68zM241.003 322.002c0 -25.333 9.66797 -47.333 29.001 -66s39.333 -28 60 -28h6l17 1c4 0 9.66699 2.33301 17 7c12 4 22 10.667 30 20c16.667 12.667 25 33.667 25 63c0 28 -10.333 50 -31 66
c-18.667 17.333 -39.334 26 -62.001 26c-22 0 -42 -8.66699 -60 -26l-14 -13l-8 -14c-6 -11.333 -9 -23.333 -9 -36z" />
    <glyph glyph-name="circumflex" unicode="&#x2c6;" horiz-adv-x="330" 
d="M148 519l4 137l-82 -61l23 51l61 44v18l-49 -36l23 51l28 21v16l-19 -12l25 52l24 -52l-18 12v-16l30 -21l23 -51l-51 36v-18l62 -44l23 -50l-83 60l6 -183zM143 380l41 -61l1 -50l69 -66v-203l-92 86l-92 -86v203l69 66zM40 554h77l92 -142l-2 56v86h82v-259h-81
l-92 140l4 -59v-81h-80v259z" />
    <glyph glyph-name="tilde" unicode="&#x2dc;" horiz-adv-x="278" 
d="M78 692c10.667 0 22.001 -1.66602 34.001 -4.99902l37 -13l34 -13c13.333 -4 23.666 -6 30.999 -6l25 3c5.33301 2 11.666 8 18.999 18l9 18c2 6 6.33301 9.33301 13 10c8 0 12 -11 12 -33c0 -18.667 -9 -37 -27 -55c-18 -16.667 -38.333 -25 -61 -25h-23l-12 4l-38 12
l-40 14l-31 5l-17 -3c-4.66699 -2.66699 -11.667 -9.33398 -21 -20.001l-11 -18c-3.33301 -6 -7 -9 -11 -9c-3.33301 0 -6.66602 3 -9.99902 9l-4 26c0 20 9.16699 38.5 27.5 55.5s39.833 25.5 64.5 25.5z" />
    <glyph glyph-name="endash" unicode="&#x2013;" horiz-adv-x="500" 
d="M471 243l-442 -0.000976562c-6 0 -12.333 2.16699 -19 6.5s-10 11.5 -10 21.5c0 8 3 15 9 21s12.667 9 20 9h442c8 0 15 -2.66699 21 -8c4 -5.33301 6.66699 -12.666 8 -21.999c0 -6 -3 -12.667 -9 -20c-4 -3.33301 -10.667 -6 -20 -8z" />
    <glyph glyph-name="emdash" unicode="&#x2014;" horiz-adv-x="1000" 
d="M971 243l-942 -0.000976562c-6 0 -12.333 2.16699 -19 6.5s-10 11.5 -10 21.5c0 8 3 15 9 21s12.667 9 20 9h942c8 0 15 -2.66699 21 -8c4 -5.33301 6.66699 -12.666 8 -21.999c0 -6 -3 -12.667 -9 -20c-4 -3.33301 -10.667 -6 -20 -8z" />
    <glyph glyph-name="quoteleft" unicode="&#x2018;" horiz-adv-x="184" 
d="M83 546c-18 0 -32.667 6.00098 -44 18.001s-17 28.333 -17 49c0 50 22.333 78.333 67 85l41 6c14 2.66699 24.667 8.66699 32 18c-2 -11.333 -7 -21 -15 -29l-28 -14c-15.333 -6 -25.333 -11.333 -30 -16s-8.66699 -11.334 -12 -20.001l17 3
c11.333 0 21.5 -3.83301 30.5 -11.5s13.5 -19.5 13.5 -35.5s-5.33301 -28.833 -16 -38.5s-23.667 -14.5 -39 -14.5z" />
    <glyph glyph-name="quoteright" unicode="&#x2019;" horiz-adv-x="184" 
d="M101 722c18 0 32.667 -5.66797 44 -17.001s17 -28 17 -50c0 -50 -22.333 -78.333 -67 -85l-46 -7c-12.667 -2 -21.667 -7.66699 -27 -17c2 11.333 7 21 15 29l10 6l19 8c15.333 6.66699 25.333 12.334 30 17.001l5 7l6 12l-17 -3c-14.667 0 -25.667 4 -33 12
s-11 19.667 -11 35s5 28 15 38s23.333 15 40 15z" />
    <glyph glyph-name="quotesinglbase" unicode="&#x201a;" horiz-adv-x="871" 
d="M534 52l-51 -52v167l-54 -1v371l54 1v165l51 -51v-600zM631 150l-79 -79l1 562l78 -82v-401zM708 231l-58 -61v360l58 -58v-241zM727 251l1 199l98 -98zM39 537h151v-371h-151v371zM201 537h113v-371h-113v371zM327 537h87v-371h-87v371z" />
    <glyph glyph-name="quotedblleft" unicode="&#x201c;" horiz-adv-x="278" 
d="M199 546c-18 0 -32.668 5.99902 -44.001 17.999s-17 28.333 -17 49c0 50 22.333 78.333 67 85l41 6c13.333 2 24 8 32 18c-2 -11.333 -7 -21 -15 -29l-28 -14c-16 -6 -26.167 -11.167 -30.5 -15.5s-8.16602 -11.166 -11.499 -20.499l17 3
c11.333 0 21.5 -3.83301 30.5 -11.5s13.5 -19.5 13.5 -35.5s-5.33301 -28.833 -16 -38.5s-23.667 -14.5 -39 -14.5zM60.999 545.999c-18 0 -32.667 6.00098 -44 18.001s-17 28.333 -17 49c0 50 22.333 78.333 67 85l41 6c14 2.66699 24.667 8.66699 32 18
c-2 -11.333 -7 -21 -15 -29l-28 -14c-15.333 -6 -25.333 -11.333 -30 -16s-8.66699 -11.334 -12 -20.001l17 3c12 0 22.333 -3.83301 31 -11.5s13 -19.5 13 -35.5s-5.33301 -28.833 -16 -38.5s-23.667 -14.5 -39 -14.5z" />
    <glyph glyph-name="quotedblright" unicode="&#x201d;" horiz-adv-x="278" 
d="M79 722c18 0 32.6689 -5.66699 44.002 -17s17 -28 17 -50c0 -50 -22.333 -78.333 -67 -85l-46 -7c-12.667 -2 -21.667 -7.66699 -27 -17c2 11.333 7 21 15 29l10 6l19 8c15.333 6.66699 25.166 12 29.499 16s8.16602 10.667 11.499 20l-17 -3c-14.667 0 -25.667 4 -33 12
s-11 19.667 -11 35s5 28 15 38s23.333 15 40 15zM217.002 722c18.667 0 33.667 -5.66504 45 -16.998c10.667 -12.667 16 -29.334 16 -50.001c0 -50 -22.333 -78.333 -67 -85l-46 -7c-10.667 -2 -19.667 -7.66699 -27 -17c2 11.333 7 21 15 29l29 14
c16.667 6 26.667 11.667 30 17c4 3.33301 7.66699 9.66602 11 18.999l-17 -3c-13.333 0 -24 3.83301 -32 11.5s-12 19.5 -12 35.5c0 15.333 5 28 15 38s23.333 15 40 15z" />
    <glyph glyph-name="quotedblbase" unicode="&#x201e;" horiz-adv-x="970" 
d="M136 704h704v-704h-704v704zM162 678v-651h651v651h-651z" />
    <glyph glyph-name="dagger" unicode="&#x2020;" horiz-adv-x="600" 
d="M302 567c41.333 0 80.667 -10.6689 118 -32.002s67 -50.333 89 -87s33 -77 33 -121c0 -42 -11 -81.5 -33 -118.5s-51.333 -66.5 -88 -88.5c-18 -10 -36.833 -17.667 -56.5 -23s-40.5 -8 -62.5 -8c-44.667 0 -84.167 10.167 -118.5 30.5s-62.833 49.333 -85.5 87
s-34 77.834 -34 120.501c0 43.333 10.833 83.333 32.5 120s50.667 65.834 87 87.501s75.833 32.5 118.5 32.5z" />
    <glyph glyph-name="daggerdbl" unicode="&#x2021;" horiz-adv-x="761" 
d="M240 284l-60 -185l162 115l158 -115l-58 185l159 112h-193l-66 194l-62 -194h-187zM154 72l69 203l-180 135h224l70 209l94 -15l67 -194h164l49 -14l-168 -125l73 -207l-104 3l-114 89l-143 -104z" />
    </font>
</defs>
</svg>
